G04 EAGLE Gerber X2 export*
%TF.Part,Single*%
%TF.FileFunction,Copper,L2,Bot,Mixed*%
%TF.FilePolarity,Positive*%
%TF.GenerationSoftware,Autodesk,EAGLE,9.1.0*%
%TF.CreationDate,2018-12-11T14:46:23Z*%
G75*
%MOMM*%
%FSLAX34Y34*%
%LPD*%
%AMOC8*
5,1,8,0,0,1.08239X$1,22.5*%
G01*
%ADD10C,1.500000*%
%ADD11C,1.524000*%
%ADD12C,0.152400*%
%ADD13C,0.604000*%

G36*
X482620Y24642D02*
X482620Y24642D01*
X482639Y24640D01*
X482741Y24662D01*
X482843Y24679D01*
X482860Y24688D01*
X482880Y24692D01*
X482969Y24745D01*
X483060Y24794D01*
X483074Y24808D01*
X483091Y24818D01*
X483158Y24897D01*
X483230Y24972D01*
X483238Y24990D01*
X483251Y25005D01*
X483290Y25101D01*
X483333Y25195D01*
X483335Y25215D01*
X483343Y25233D01*
X483361Y25400D01*
X483361Y711200D01*
X483358Y711220D01*
X483360Y711239D01*
X483338Y711341D01*
X483322Y711443D01*
X483312Y711460D01*
X483308Y711480D01*
X483255Y711569D01*
X483206Y711660D01*
X483192Y711674D01*
X483182Y711691D01*
X483103Y711758D01*
X483028Y711830D01*
X483010Y711838D01*
X482995Y711851D01*
X482899Y711890D01*
X482805Y711933D01*
X482785Y711935D01*
X482767Y711943D01*
X482600Y711961D01*
X127000Y711961D01*
X126980Y711958D01*
X126961Y711960D01*
X126859Y711938D01*
X126757Y711922D01*
X126740Y711912D01*
X126720Y711908D01*
X126631Y711855D01*
X126540Y711806D01*
X126526Y711792D01*
X126509Y711782D01*
X126442Y711703D01*
X126371Y711628D01*
X126362Y711610D01*
X126349Y711595D01*
X126310Y711499D01*
X126267Y711405D01*
X126265Y711385D01*
X126257Y711367D01*
X126239Y711200D01*
X126239Y25400D01*
X126242Y25380D01*
X126240Y25361D01*
X126262Y25259D01*
X126279Y25157D01*
X126288Y25140D01*
X126292Y25120D01*
X126345Y25031D01*
X126394Y24940D01*
X126408Y24926D01*
X126418Y24909D01*
X126497Y24842D01*
X126572Y24771D01*
X126590Y24762D01*
X126605Y24749D01*
X126701Y24710D01*
X126795Y24667D01*
X126815Y24665D01*
X126833Y24657D01*
X127000Y24639D01*
X482600Y24639D01*
X482620Y24642D01*
G37*
%LPC*%
G36*
X447905Y130675D02*
X447905Y130675D01*
X444588Y132049D01*
X442049Y134588D01*
X440675Y137905D01*
X440675Y141495D01*
X442049Y144812D01*
X444588Y147351D01*
X447628Y148610D01*
X447667Y148634D01*
X447710Y148650D01*
X447771Y148699D01*
X447837Y148740D01*
X447866Y148775D01*
X447902Y148804D01*
X447944Y148869D01*
X447994Y148929D01*
X448010Y148972D01*
X448035Y149011D01*
X448054Y149086D01*
X448082Y149159D01*
X448084Y149205D01*
X448095Y149249D01*
X448089Y149327D01*
X448092Y149405D01*
X448080Y149449D01*
X448076Y149494D01*
X448046Y149566D01*
X448024Y149641D01*
X447998Y149678D01*
X447980Y149721D01*
X447894Y149827D01*
X447884Y149843D01*
X447880Y149846D01*
X447875Y149852D01*
X437627Y160099D01*
X437627Y322501D01*
X447875Y332748D01*
X447902Y332786D01*
X447936Y332817D01*
X447973Y332885D01*
X448018Y332948D01*
X448032Y332992D01*
X448054Y333032D01*
X448068Y333109D01*
X448091Y333183D01*
X448090Y333229D01*
X448098Y333274D01*
X448087Y333351D01*
X448084Y333429D01*
X448069Y333472D01*
X448062Y333518D01*
X448027Y333587D01*
X448000Y333660D01*
X447971Y333696D01*
X447951Y333737D01*
X447895Y333791D01*
X447846Y333852D01*
X447808Y333877D01*
X447775Y333909D01*
X447655Y333975D01*
X447639Y333985D01*
X447635Y333986D01*
X447628Y333990D01*
X444588Y335249D01*
X442049Y337788D01*
X440675Y341105D01*
X440675Y344695D01*
X442049Y348012D01*
X444588Y350551D01*
X447628Y351810D01*
X447667Y351834D01*
X447710Y351850D01*
X447771Y351899D01*
X447837Y351940D01*
X447866Y351975D01*
X447902Y352004D01*
X447944Y352069D01*
X447994Y352129D01*
X448010Y352172D01*
X448035Y352211D01*
X448054Y352286D01*
X448082Y352359D01*
X448084Y352405D01*
X448095Y352449D01*
X448089Y352527D01*
X448092Y352605D01*
X448080Y352649D01*
X448076Y352694D01*
X448046Y352766D01*
X448024Y352841D01*
X447998Y352878D01*
X447980Y352921D01*
X447894Y353027D01*
X447884Y353043D01*
X447880Y353046D01*
X447875Y353052D01*
X439190Y361737D01*
X437627Y363299D01*
X437627Y525701D01*
X439190Y527263D01*
X447875Y535948D01*
X447902Y535986D01*
X447936Y536017D01*
X447973Y536085D01*
X448018Y536148D01*
X448032Y536192D01*
X448054Y536232D01*
X448068Y536309D01*
X448091Y536383D01*
X448090Y536429D01*
X448098Y536474D01*
X448087Y536551D01*
X448084Y536629D01*
X448069Y536672D01*
X448062Y536718D01*
X448027Y536787D01*
X448000Y536860D01*
X447971Y536896D01*
X447951Y536937D01*
X447895Y536991D01*
X447846Y537052D01*
X447808Y537077D01*
X447775Y537109D01*
X447655Y537175D01*
X447639Y537185D01*
X447635Y537186D01*
X447628Y537190D01*
X444588Y538449D01*
X442049Y540988D01*
X441074Y543343D01*
X441012Y543442D01*
X440952Y543543D01*
X440947Y543547D01*
X440944Y543552D01*
X440854Y543627D01*
X440765Y543703D01*
X440759Y543705D01*
X440754Y543709D01*
X440646Y543751D01*
X440537Y543795D01*
X440529Y543796D01*
X440525Y543797D01*
X440507Y543798D01*
X440370Y543813D01*
X403892Y543813D01*
X403802Y543799D01*
X403711Y543791D01*
X403681Y543779D01*
X403649Y543774D01*
X403568Y543731D01*
X403484Y543695D01*
X403452Y543669D01*
X403432Y543658D01*
X403430Y543657D01*
X403430Y543656D01*
X403409Y543635D01*
X403353Y543590D01*
X393670Y533907D01*
X313759Y533907D01*
X291376Y556290D01*
X291302Y556343D01*
X291232Y556403D01*
X291202Y556415D01*
X291176Y556434D01*
X291089Y556461D01*
X291004Y556495D01*
X290963Y556499D01*
X290941Y556506D01*
X290909Y556505D01*
X290838Y556513D01*
X250698Y556513D01*
X250678Y556510D01*
X250659Y556512D01*
X250557Y556490D01*
X250455Y556474D01*
X250438Y556464D01*
X250418Y556460D01*
X250329Y556407D01*
X250238Y556358D01*
X250224Y556344D01*
X250207Y556334D01*
X250140Y556255D01*
X250068Y556180D01*
X250060Y556162D01*
X250047Y556147D01*
X250008Y556051D01*
X249965Y555957D01*
X249963Y555937D01*
X249955Y555919D01*
X249937Y555752D01*
X249937Y512456D01*
X249951Y512366D01*
X249959Y512275D01*
X249971Y512245D01*
X249976Y512213D01*
X250019Y512132D01*
X250055Y512048D01*
X250081Y512016D01*
X250092Y511996D01*
X250115Y511974D01*
X250160Y511918D01*
X252195Y509883D01*
X252195Y506117D01*
X250160Y504082D01*
X250107Y504008D01*
X250047Y503939D01*
X250035Y503909D01*
X250016Y503883D01*
X249989Y503796D01*
X249955Y503711D01*
X249951Y503670D01*
X249944Y503648D01*
X249945Y503615D01*
X249937Y503544D01*
X249937Y410856D01*
X249951Y410766D01*
X249959Y410675D01*
X249971Y410645D01*
X249976Y410613D01*
X250019Y410532D01*
X250055Y410448D01*
X250081Y410416D01*
X250092Y410396D01*
X250115Y410374D01*
X250160Y410318D01*
X252195Y408283D01*
X252195Y404517D01*
X250160Y402482D01*
X250107Y402408D01*
X250047Y402339D01*
X250035Y402309D01*
X250016Y402283D01*
X249989Y402196D01*
X249955Y402111D01*
X249951Y402070D01*
X249944Y402048D01*
X249945Y402015D01*
X249937Y401944D01*
X249937Y309256D01*
X249951Y309166D01*
X249959Y309075D01*
X249971Y309045D01*
X249976Y309013D01*
X250019Y308932D01*
X250055Y308848D01*
X250081Y308816D01*
X250092Y308796D01*
X250115Y308774D01*
X250160Y308718D01*
X252195Y306683D01*
X252195Y302917D01*
X250160Y300882D01*
X250107Y300808D01*
X250047Y300739D01*
X250035Y300709D01*
X250016Y300683D01*
X249989Y300596D01*
X249955Y300511D01*
X249951Y300470D01*
X249944Y300448D01*
X249945Y300415D01*
X249937Y300344D01*
X249937Y207656D01*
X249951Y207566D01*
X249959Y207475D01*
X249971Y207445D01*
X249976Y207413D01*
X250019Y207332D01*
X250055Y207248D01*
X250081Y207216D01*
X250092Y207196D01*
X250115Y207174D01*
X250160Y207118D01*
X252195Y205083D01*
X252195Y201317D01*
X249533Y198655D01*
X245767Y198655D01*
X243105Y201317D01*
X243105Y205083D01*
X245140Y207118D01*
X245193Y207192D01*
X245253Y207261D01*
X245265Y207291D01*
X245284Y207317D01*
X245311Y207404D01*
X245345Y207489D01*
X245349Y207530D01*
X245356Y207552D01*
X245355Y207585D01*
X245363Y207656D01*
X245363Y300344D01*
X245349Y300434D01*
X245341Y300525D01*
X245329Y300555D01*
X245324Y300587D01*
X245281Y300668D01*
X245245Y300752D01*
X245219Y300784D01*
X245208Y300804D01*
X245185Y300826D01*
X245140Y300882D01*
X243105Y302917D01*
X243105Y306683D01*
X245140Y308718D01*
X245193Y308792D01*
X245253Y308861D01*
X245265Y308891D01*
X245284Y308917D01*
X245311Y309004D01*
X245345Y309089D01*
X245349Y309130D01*
X245356Y309152D01*
X245355Y309185D01*
X245363Y309256D01*
X245363Y401944D01*
X245349Y402034D01*
X245341Y402125D01*
X245329Y402155D01*
X245324Y402187D01*
X245281Y402268D01*
X245245Y402352D01*
X245219Y402384D01*
X245208Y402404D01*
X245185Y402426D01*
X245140Y402482D01*
X243105Y404517D01*
X243105Y408283D01*
X245140Y410318D01*
X245193Y410392D01*
X245253Y410461D01*
X245265Y410491D01*
X245284Y410517D01*
X245311Y410604D01*
X245345Y410689D01*
X245349Y410730D01*
X245356Y410752D01*
X245355Y410785D01*
X245363Y410856D01*
X245363Y503544D01*
X245349Y503634D01*
X245341Y503725D01*
X245329Y503755D01*
X245324Y503787D01*
X245281Y503868D01*
X245245Y503952D01*
X245219Y503984D01*
X245208Y504004D01*
X245185Y504026D01*
X245140Y504082D01*
X243105Y506117D01*
X243105Y509883D01*
X245140Y511918D01*
X245193Y511992D01*
X245253Y512061D01*
X245265Y512091D01*
X245284Y512117D01*
X245311Y512204D01*
X245345Y512289D01*
X245349Y512330D01*
X245356Y512352D01*
X245355Y512385D01*
X245363Y512456D01*
X245363Y617920D01*
X245344Y618035D01*
X245327Y618151D01*
X245325Y618157D01*
X245324Y618163D01*
X245269Y618266D01*
X245216Y618371D01*
X245211Y618375D01*
X245208Y618380D01*
X245124Y618460D01*
X245040Y618543D01*
X245034Y618546D01*
X245030Y618550D01*
X245013Y618558D01*
X244893Y618624D01*
X242470Y619627D01*
X239897Y622200D01*
X238698Y625096D01*
X238674Y625135D01*
X238658Y625178D01*
X238609Y625239D01*
X238568Y625305D01*
X238533Y625334D01*
X238504Y625370D01*
X238439Y625412D01*
X238379Y625462D01*
X238336Y625478D01*
X238297Y625503D01*
X238222Y625522D01*
X238149Y625550D01*
X238103Y625552D01*
X238059Y625563D01*
X237981Y625557D01*
X237903Y625561D01*
X237859Y625548D01*
X237814Y625544D01*
X237742Y625514D01*
X237667Y625492D01*
X237629Y625466D01*
X237587Y625448D01*
X237481Y625363D01*
X237465Y625352D01*
X237462Y625348D01*
X237456Y625343D01*
X227300Y615187D01*
X225037Y615187D01*
X224946Y615173D01*
X224856Y615165D01*
X224826Y615153D01*
X224794Y615148D01*
X224713Y615105D01*
X224629Y615069D01*
X224597Y615043D01*
X224576Y615032D01*
X224554Y615009D01*
X224498Y614964D01*
X164723Y555189D01*
X164696Y555152D01*
X164663Y555121D01*
X164625Y555053D01*
X164580Y554990D01*
X164566Y554946D01*
X164544Y554905D01*
X164530Y554829D01*
X164507Y554755D01*
X164509Y554709D01*
X164500Y554663D01*
X164512Y554586D01*
X164514Y554509D01*
X164529Y554466D01*
X164536Y554420D01*
X164571Y554351D01*
X164598Y554278D01*
X164627Y554242D01*
X164648Y554201D01*
X164703Y554146D01*
X164752Y554086D01*
X164791Y554061D01*
X164823Y554029D01*
X164943Y553963D01*
X164959Y553953D01*
X164964Y553951D01*
X164970Y553948D01*
X165200Y553853D01*
X167773Y551280D01*
X169165Y547919D01*
X169165Y544281D01*
X167773Y540920D01*
X165200Y538347D01*
X161839Y536955D01*
X142961Y536955D01*
X139600Y538347D01*
X137027Y540920D01*
X135635Y544281D01*
X135635Y547919D01*
X137027Y551280D01*
X139600Y553853D01*
X142961Y555245D01*
X157995Y555245D01*
X158086Y555259D01*
X158176Y555267D01*
X158206Y555279D01*
X158238Y555284D01*
X158319Y555327D01*
X158403Y555363D01*
X158435Y555389D01*
X158456Y555400D01*
X158478Y555423D01*
X158534Y555468D01*
X165248Y562182D01*
X165305Y562261D01*
X165367Y562336D01*
X165377Y562361D01*
X165392Y562382D01*
X165421Y562475D01*
X165455Y562566D01*
X165457Y562592D01*
X165464Y562617D01*
X165462Y562714D01*
X165466Y562812D01*
X165459Y562837D01*
X165458Y562863D01*
X165424Y562955D01*
X165397Y563048D01*
X165382Y563069D01*
X165373Y563094D01*
X165313Y563170D01*
X165257Y563250D01*
X165236Y563266D01*
X165220Y563286D01*
X165138Y563339D01*
X165060Y563397D01*
X165035Y563405D01*
X165013Y563419D01*
X164918Y563443D01*
X164826Y563473D01*
X164800Y563473D01*
X164774Y563479D01*
X164677Y563472D01*
X164580Y563471D01*
X164548Y563461D01*
X164529Y563460D01*
X164499Y563447D01*
X164419Y563424D01*
X161839Y562355D01*
X142961Y562355D01*
X139600Y563747D01*
X137027Y566320D01*
X135635Y569681D01*
X135635Y573319D01*
X137027Y576680D01*
X139600Y579253D01*
X142961Y580645D01*
X157995Y580645D01*
X158086Y580659D01*
X158176Y580667D01*
X158206Y580679D01*
X158238Y580684D01*
X158319Y580727D01*
X158403Y580763D01*
X158435Y580789D01*
X158456Y580800D01*
X158478Y580823D01*
X158534Y580868D01*
X165248Y587582D01*
X165305Y587661D01*
X165367Y587736D01*
X165377Y587761D01*
X165392Y587782D01*
X165420Y587875D01*
X165455Y587966D01*
X165457Y587992D01*
X165464Y588017D01*
X165462Y588114D01*
X165466Y588212D01*
X165459Y588237D01*
X165458Y588263D01*
X165424Y588355D01*
X165397Y588448D01*
X165382Y588469D01*
X165373Y588494D01*
X165312Y588570D01*
X165257Y588650D01*
X165236Y588666D01*
X165220Y588686D01*
X165138Y588739D01*
X165060Y588797D01*
X165035Y588805D01*
X165013Y588819D01*
X164918Y588843D01*
X164826Y588873D01*
X164800Y588873D01*
X164774Y588879D01*
X164677Y588872D01*
X164580Y588871D01*
X164548Y588861D01*
X164529Y588860D01*
X164499Y588847D01*
X164419Y588824D01*
X161839Y587755D01*
X142961Y587755D01*
X139600Y589147D01*
X137027Y591720D01*
X135635Y595081D01*
X135635Y598719D01*
X137027Y602080D01*
X139600Y604653D01*
X142961Y606045D01*
X161839Y606045D01*
X165200Y604653D01*
X167773Y602080D01*
X169165Y598719D01*
X169165Y595081D01*
X168096Y592501D01*
X168074Y592406D01*
X168045Y592313D01*
X168046Y592287D01*
X168040Y592262D01*
X168049Y592165D01*
X168052Y592068D01*
X168061Y592043D01*
X168063Y592017D01*
X168103Y591928D01*
X168136Y591837D01*
X168152Y591816D01*
X168163Y591792D01*
X168229Y591721D01*
X168290Y591644D01*
X168312Y591630D01*
X168329Y591611D01*
X168415Y591564D01*
X168497Y591511D01*
X168522Y591505D01*
X168545Y591492D01*
X168641Y591475D01*
X168735Y591451D01*
X168761Y591453D01*
X168787Y591449D01*
X168884Y591463D01*
X168980Y591471D01*
X169004Y591481D01*
X169030Y591485D01*
X169117Y591529D01*
X169207Y591567D01*
X169232Y591587D01*
X169250Y591596D01*
X169273Y591620D01*
X169338Y591672D01*
X212835Y635169D01*
X212854Y635195D01*
X212916Y635264D01*
X212963Y635331D01*
X212976Y635357D01*
X212995Y635379D01*
X213030Y635467D01*
X213072Y635552D01*
X213076Y635580D01*
X213087Y635607D01*
X213105Y635774D01*
X213105Y644439D01*
X214497Y647800D01*
X217070Y650373D01*
X220431Y651765D01*
X224069Y651765D01*
X227430Y650373D01*
X230003Y647800D01*
X231395Y644439D01*
X231395Y627587D01*
X231406Y627516D01*
X231408Y627445D01*
X231426Y627396D01*
X231434Y627344D01*
X231468Y627281D01*
X231493Y627214D01*
X231525Y627173D01*
X231550Y627127D01*
X231602Y627078D01*
X231646Y627022D01*
X231690Y626994D01*
X231728Y626958D01*
X231793Y626928D01*
X231853Y626889D01*
X231904Y626876D01*
X231951Y626854D01*
X232022Y626846D01*
X232092Y626829D01*
X232144Y626833D01*
X232195Y626827D01*
X232266Y626842D01*
X232337Y626848D01*
X232385Y626868D01*
X232436Y626879D01*
X232497Y626916D01*
X232563Y626944D01*
X232619Y626989D01*
X232647Y627005D01*
X232662Y627023D01*
X232694Y627049D01*
X235234Y629589D01*
X235287Y629663D01*
X235347Y629732D01*
X235359Y629762D01*
X235378Y629789D01*
X235405Y629876D01*
X235439Y629961D01*
X235443Y630001D01*
X235450Y630024D01*
X235449Y630056D01*
X235457Y630127D01*
X235457Y647670D01*
X242600Y654813D01*
X252700Y654813D01*
X262856Y644657D01*
X262894Y644630D01*
X262925Y644596D01*
X262993Y644559D01*
X263056Y644513D01*
X263100Y644500D01*
X263140Y644478D01*
X263217Y644464D01*
X263291Y644441D01*
X263337Y644442D01*
X263382Y644434D01*
X263459Y644445D01*
X263537Y644447D01*
X263580Y644463D01*
X263625Y644470D01*
X263695Y644505D01*
X263768Y644532D01*
X263804Y644561D01*
X263845Y644581D01*
X263899Y644637D01*
X263960Y644686D01*
X263985Y644724D01*
X264017Y644757D01*
X264083Y644877D01*
X264093Y644892D01*
X264094Y644897D01*
X264098Y644904D01*
X265297Y647800D01*
X267870Y650373D01*
X271231Y651765D01*
X274869Y651765D01*
X278230Y650373D01*
X280803Y647800D01*
X282195Y644439D01*
X282195Y625561D01*
X280803Y622200D01*
X278230Y619627D01*
X274869Y618235D01*
X271231Y618235D01*
X267870Y619627D01*
X265297Y622200D01*
X263905Y625561D01*
X263905Y636825D01*
X263891Y636915D01*
X263883Y637006D01*
X263871Y637036D01*
X263866Y637067D01*
X263823Y637148D01*
X263787Y637232D01*
X263761Y637264D01*
X263750Y637285D01*
X263727Y637307D01*
X263682Y637363D01*
X258094Y642951D01*
X258036Y642993D01*
X257984Y643042D01*
X257937Y643064D01*
X257895Y643095D01*
X257826Y643116D01*
X257761Y643146D01*
X257709Y643152D01*
X257659Y643167D01*
X257588Y643165D01*
X257517Y643173D01*
X257466Y643162D01*
X257414Y643161D01*
X257346Y643136D01*
X257276Y643121D01*
X257231Y643094D01*
X257183Y643076D01*
X257127Y643031D01*
X257065Y642995D01*
X257031Y642955D01*
X256991Y642922D01*
X256952Y642862D01*
X256905Y642808D01*
X256886Y642759D01*
X256858Y642716D01*
X256840Y642646D01*
X256813Y642580D01*
X256805Y642508D01*
X256797Y642477D01*
X256799Y642454D01*
X256795Y642413D01*
X256795Y625561D01*
X255403Y622200D01*
X252830Y619627D01*
X250407Y618624D01*
X250307Y618562D01*
X250207Y618502D01*
X250203Y618497D01*
X250198Y618494D01*
X250123Y618404D01*
X250047Y618315D01*
X250045Y618309D01*
X250041Y618305D01*
X249999Y618196D01*
X249955Y618087D01*
X249954Y618080D01*
X249953Y618075D01*
X249952Y618057D01*
X249937Y617920D01*
X249937Y561848D01*
X249940Y561828D01*
X249938Y561809D01*
X249960Y561707D01*
X249976Y561605D01*
X249986Y561588D01*
X249990Y561568D01*
X250043Y561479D01*
X250092Y561388D01*
X250106Y561374D01*
X250116Y561357D01*
X250195Y561290D01*
X250270Y561218D01*
X250288Y561210D01*
X250303Y561197D01*
X250399Y561158D01*
X250493Y561115D01*
X250513Y561113D01*
X250531Y561105D01*
X250698Y561087D01*
X293047Y561087D01*
X294610Y559524D01*
X315430Y538704D01*
X315504Y538651D01*
X315574Y538591D01*
X315604Y538579D01*
X315630Y538560D01*
X315717Y538533D01*
X315802Y538499D01*
X315843Y538495D01*
X315865Y538488D01*
X315897Y538489D01*
X315969Y538481D01*
X366229Y538481D01*
X366300Y538492D01*
X366371Y538494D01*
X366420Y538512D01*
X366472Y538520D01*
X366535Y538554D01*
X366602Y538579D01*
X366643Y538611D01*
X366689Y538636D01*
X366738Y538688D01*
X366794Y538732D01*
X366823Y538776D01*
X366858Y538814D01*
X366889Y538879D01*
X366927Y538939D01*
X366940Y538990D01*
X366962Y539037D01*
X366970Y539108D01*
X366987Y539178D01*
X366983Y539230D01*
X366989Y539281D01*
X366974Y539352D01*
X366968Y539423D01*
X366948Y539471D01*
X366937Y539522D01*
X366900Y539583D01*
X366872Y539649D01*
X366827Y539705D01*
X366811Y539733D01*
X366809Y539734D01*
X366809Y539735D01*
X366792Y539749D01*
X366767Y539780D01*
X365627Y540920D01*
X364235Y544281D01*
X364235Y547919D01*
X365627Y551280D01*
X368200Y553853D01*
X371561Y555245D01*
X390439Y555245D01*
X393800Y553853D01*
X396373Y551280D01*
X397765Y547919D01*
X397765Y546307D01*
X397776Y546236D01*
X397778Y546165D01*
X397796Y546116D01*
X397804Y546064D01*
X397838Y546001D01*
X397863Y545934D01*
X397895Y545893D01*
X397920Y545847D01*
X397972Y545798D01*
X398016Y545742D01*
X398060Y545714D01*
X398098Y545678D01*
X398163Y545648D01*
X398223Y545609D01*
X398274Y545596D01*
X398321Y545574D01*
X398392Y545566D01*
X398462Y545549D01*
X398514Y545553D01*
X398565Y545547D01*
X398636Y545562D01*
X398707Y545568D01*
X398755Y545588D01*
X398806Y545599D01*
X398867Y545636D01*
X398933Y545664D01*
X398989Y545709D01*
X399017Y545725D01*
X399032Y545743D01*
X399064Y545769D01*
X401682Y548387D01*
X440370Y548387D01*
X440485Y548406D01*
X440601Y548423D01*
X440607Y548425D01*
X440613Y548426D01*
X440716Y548481D01*
X440820Y548534D01*
X440825Y548539D01*
X440830Y548542D01*
X440910Y548626D01*
X440993Y548710D01*
X440996Y548716D01*
X441000Y548720D01*
X441008Y548737D01*
X441074Y548857D01*
X442049Y551212D01*
X444588Y553751D01*
X447905Y555125D01*
X466495Y555125D01*
X469812Y553751D01*
X472351Y551212D01*
X473725Y547895D01*
X473725Y544305D01*
X472351Y540988D01*
X469812Y538449D01*
X466495Y537075D01*
X455785Y537075D01*
X455695Y537061D01*
X455604Y537053D01*
X455574Y537041D01*
X455542Y537036D01*
X455462Y536993D01*
X455378Y536957D01*
X455346Y536931D01*
X455325Y536920D01*
X455303Y536897D01*
X455247Y536852D01*
X450435Y532040D01*
X450393Y531982D01*
X450343Y531930D01*
X450322Y531883D01*
X450291Y531841D01*
X450270Y531772D01*
X450240Y531707D01*
X450234Y531655D01*
X450219Y531605D01*
X450221Y531534D01*
X450213Y531463D01*
X450224Y531412D01*
X450225Y531360D01*
X450250Y531292D01*
X450265Y531222D01*
X450292Y531177D01*
X450310Y531129D01*
X450354Y531073D01*
X450391Y531011D01*
X450431Y530977D01*
X450463Y530937D01*
X450524Y530898D01*
X450578Y530851D01*
X450626Y530832D01*
X450670Y530804D01*
X450740Y530786D01*
X450806Y530759D01*
X450878Y530751D01*
X450909Y530743D01*
X450932Y530745D01*
X450973Y530741D01*
X455677Y530741D01*
X455677Y521462D01*
X455680Y521442D01*
X455678Y521423D01*
X455700Y521321D01*
X455717Y521219D01*
X455726Y521202D01*
X455730Y521182D01*
X455783Y521093D01*
X455832Y521002D01*
X455846Y520988D01*
X455856Y520971D01*
X455935Y520904D01*
X456010Y520833D01*
X456028Y520824D01*
X456043Y520811D01*
X456139Y520773D01*
X456233Y520729D01*
X456253Y520727D01*
X456271Y520719D01*
X456438Y520701D01*
X457201Y520701D01*
X457201Y520699D01*
X456438Y520699D01*
X456418Y520696D01*
X456399Y520698D01*
X456297Y520676D01*
X456195Y520659D01*
X456178Y520650D01*
X456158Y520646D01*
X456069Y520593D01*
X455978Y520544D01*
X455964Y520530D01*
X455947Y520520D01*
X455880Y520441D01*
X455809Y520366D01*
X455800Y520348D01*
X455787Y520333D01*
X455748Y520237D01*
X455705Y520143D01*
X455703Y520123D01*
X455695Y520105D01*
X455677Y519938D01*
X455677Y510659D01*
X448910Y510659D01*
X447349Y510906D01*
X445846Y511395D01*
X444437Y512112D01*
X443409Y512859D01*
X443399Y512865D01*
X443390Y512873D01*
X443289Y512920D01*
X443190Y512970D01*
X443178Y512972D01*
X443167Y512977D01*
X443056Y512989D01*
X442946Y513005D01*
X442934Y513002D01*
X442923Y513004D01*
X442814Y512980D01*
X442704Y512960D01*
X442694Y512954D01*
X442682Y512951D01*
X442587Y512894D01*
X442489Y512840D01*
X442481Y512831D01*
X442471Y512825D01*
X442399Y512741D01*
X442324Y512658D01*
X442319Y512648D01*
X442311Y512638D01*
X442269Y512535D01*
X442225Y512433D01*
X442224Y512421D01*
X442219Y512410D01*
X442201Y512243D01*
X442201Y502401D01*
X442212Y502331D01*
X442214Y502259D01*
X442232Y502210D01*
X442240Y502159D01*
X442274Y502095D01*
X442299Y502028D01*
X442331Y501987D01*
X442356Y501941D01*
X442408Y501892D01*
X442452Y501836D01*
X442496Y501808D01*
X442534Y501772D01*
X442599Y501742D01*
X442659Y501703D01*
X442710Y501690D01*
X442757Y501668D01*
X442828Y501660D01*
X442898Y501643D01*
X442950Y501647D01*
X443001Y501641D01*
X443072Y501656D01*
X443143Y501662D01*
X443191Y501682D01*
X443242Y501693D01*
X443303Y501730D01*
X443369Y501758D01*
X443425Y501803D01*
X443453Y501820D01*
X443468Y501837D01*
X443500Y501863D01*
X444588Y502951D01*
X447905Y504325D01*
X466495Y504325D01*
X469812Y502951D01*
X472351Y500412D01*
X473725Y497095D01*
X473725Y493505D01*
X472351Y490188D01*
X469812Y487649D01*
X466495Y486275D01*
X447905Y486275D01*
X444588Y487649D01*
X443500Y488737D01*
X443442Y488779D01*
X443390Y488828D01*
X443343Y488850D01*
X443301Y488880D01*
X443232Y488901D01*
X443167Y488932D01*
X443115Y488937D01*
X443065Y488953D01*
X442994Y488951D01*
X442923Y488959D01*
X442872Y488948D01*
X442820Y488946D01*
X442752Y488922D01*
X442682Y488907D01*
X442637Y488880D01*
X442589Y488862D01*
X442533Y488817D01*
X442471Y488780D01*
X442437Y488741D01*
X442397Y488708D01*
X442358Y488648D01*
X442311Y488593D01*
X442292Y488545D01*
X442264Y488501D01*
X442246Y488432D01*
X442219Y488365D01*
X442211Y488294D01*
X442203Y488263D01*
X442205Y488239D01*
X442201Y488199D01*
X442201Y477001D01*
X442212Y476931D01*
X442214Y476859D01*
X442232Y476810D01*
X442240Y476759D01*
X442274Y476695D01*
X442299Y476628D01*
X442331Y476587D01*
X442356Y476541D01*
X442408Y476492D01*
X442452Y476436D01*
X442496Y476408D01*
X442534Y476372D01*
X442599Y476342D01*
X442659Y476303D01*
X442710Y476290D01*
X442757Y476268D01*
X442828Y476260D01*
X442898Y476243D01*
X442950Y476247D01*
X443001Y476241D01*
X443072Y476256D01*
X443143Y476262D01*
X443191Y476282D01*
X443242Y476293D01*
X443303Y476330D01*
X443369Y476358D01*
X443425Y476403D01*
X443453Y476420D01*
X443468Y476437D01*
X443500Y476463D01*
X444588Y477551D01*
X447905Y478925D01*
X466495Y478925D01*
X469812Y477551D01*
X472351Y475012D01*
X473725Y471695D01*
X473725Y468105D01*
X472351Y464788D01*
X469812Y462249D01*
X466495Y460875D01*
X447905Y460875D01*
X444588Y462249D01*
X443500Y463337D01*
X443442Y463379D01*
X443390Y463428D01*
X443343Y463450D01*
X443301Y463480D01*
X443232Y463501D01*
X443167Y463532D01*
X443115Y463537D01*
X443065Y463553D01*
X442994Y463551D01*
X442923Y463559D01*
X442872Y463548D01*
X442820Y463546D01*
X442752Y463522D01*
X442682Y463507D01*
X442637Y463480D01*
X442589Y463462D01*
X442533Y463417D01*
X442471Y463380D01*
X442437Y463341D01*
X442397Y463308D01*
X442358Y463248D01*
X442311Y463193D01*
X442292Y463145D01*
X442264Y463101D01*
X442246Y463032D01*
X442219Y462965D01*
X442211Y462894D01*
X442203Y462863D01*
X442205Y462839D01*
X442201Y462799D01*
X442201Y451601D01*
X442212Y451531D01*
X442214Y451459D01*
X442232Y451410D01*
X442240Y451359D01*
X442274Y451295D01*
X442299Y451228D01*
X442331Y451187D01*
X442356Y451141D01*
X442408Y451092D01*
X442452Y451036D01*
X442496Y451008D01*
X442534Y450972D01*
X442599Y450942D01*
X442659Y450903D01*
X442710Y450890D01*
X442757Y450868D01*
X442828Y450860D01*
X442898Y450843D01*
X442950Y450847D01*
X443001Y450841D01*
X443072Y450856D01*
X443143Y450862D01*
X443191Y450882D01*
X443242Y450893D01*
X443303Y450930D01*
X443369Y450958D01*
X443425Y451003D01*
X443453Y451020D01*
X443468Y451037D01*
X443500Y451063D01*
X444588Y452151D01*
X447905Y453525D01*
X466495Y453525D01*
X469812Y452151D01*
X472351Y449612D01*
X473725Y446295D01*
X473725Y442705D01*
X472351Y439388D01*
X469812Y436849D01*
X466495Y435475D01*
X447905Y435475D01*
X444588Y436849D01*
X443500Y437937D01*
X443442Y437979D01*
X443390Y438028D01*
X443343Y438050D01*
X443301Y438080D01*
X443232Y438101D01*
X443167Y438132D01*
X443115Y438137D01*
X443065Y438153D01*
X442994Y438151D01*
X442923Y438159D01*
X442872Y438148D01*
X442820Y438146D01*
X442752Y438122D01*
X442682Y438107D01*
X442637Y438080D01*
X442589Y438062D01*
X442533Y438017D01*
X442471Y437980D01*
X442437Y437941D01*
X442397Y437908D01*
X442358Y437848D01*
X442311Y437793D01*
X442292Y437745D01*
X442264Y437701D01*
X442246Y437632D01*
X442219Y437565D01*
X442211Y437494D01*
X442203Y437463D01*
X442205Y437439D01*
X442201Y437399D01*
X442201Y426201D01*
X442212Y426131D01*
X442214Y426059D01*
X442232Y426010D01*
X442240Y425959D01*
X442274Y425895D01*
X442299Y425828D01*
X442331Y425787D01*
X442356Y425741D01*
X442408Y425692D01*
X442452Y425636D01*
X442496Y425608D01*
X442534Y425572D01*
X442599Y425542D01*
X442659Y425503D01*
X442710Y425490D01*
X442757Y425468D01*
X442828Y425460D01*
X442898Y425443D01*
X442950Y425447D01*
X443001Y425441D01*
X443072Y425456D01*
X443143Y425462D01*
X443191Y425482D01*
X443242Y425493D01*
X443303Y425530D01*
X443369Y425558D01*
X443425Y425603D01*
X443453Y425620D01*
X443468Y425637D01*
X443500Y425663D01*
X444588Y426751D01*
X447905Y428125D01*
X466495Y428125D01*
X469812Y426751D01*
X472351Y424212D01*
X473725Y420895D01*
X473725Y417305D01*
X472351Y413988D01*
X469812Y411449D01*
X466495Y410075D01*
X447905Y410075D01*
X444588Y411449D01*
X443500Y412537D01*
X443442Y412579D01*
X443390Y412628D01*
X443343Y412650D01*
X443301Y412680D01*
X443232Y412701D01*
X443167Y412732D01*
X443115Y412737D01*
X443065Y412753D01*
X442994Y412751D01*
X442923Y412759D01*
X442872Y412748D01*
X442820Y412746D01*
X442752Y412722D01*
X442682Y412707D01*
X442637Y412680D01*
X442589Y412662D01*
X442533Y412617D01*
X442471Y412580D01*
X442437Y412541D01*
X442397Y412508D01*
X442358Y412448D01*
X442311Y412393D01*
X442292Y412345D01*
X442264Y412301D01*
X442246Y412232D01*
X442219Y412165D01*
X442211Y412094D01*
X442203Y412063D01*
X442205Y412039D01*
X442201Y411999D01*
X442201Y400801D01*
X442212Y400731D01*
X442214Y400659D01*
X442232Y400610D01*
X442240Y400559D01*
X442274Y400495D01*
X442299Y400428D01*
X442331Y400387D01*
X442356Y400341D01*
X442408Y400292D01*
X442452Y400236D01*
X442496Y400208D01*
X442534Y400172D01*
X442599Y400142D01*
X442659Y400103D01*
X442710Y400090D01*
X442757Y400068D01*
X442828Y400060D01*
X442898Y400043D01*
X442950Y400047D01*
X443001Y400041D01*
X443072Y400056D01*
X443143Y400062D01*
X443191Y400082D01*
X443242Y400093D01*
X443303Y400130D01*
X443369Y400158D01*
X443425Y400203D01*
X443453Y400220D01*
X443468Y400237D01*
X443500Y400263D01*
X444588Y401351D01*
X447905Y402725D01*
X466495Y402725D01*
X469812Y401351D01*
X472351Y398812D01*
X473725Y395495D01*
X473725Y391905D01*
X472351Y388588D01*
X469812Y386049D01*
X466495Y384675D01*
X447905Y384675D01*
X444588Y386049D01*
X443500Y387137D01*
X443442Y387179D01*
X443390Y387228D01*
X443343Y387250D01*
X443301Y387280D01*
X443232Y387301D01*
X443167Y387332D01*
X443115Y387337D01*
X443065Y387353D01*
X442994Y387351D01*
X442923Y387359D01*
X442872Y387348D01*
X442820Y387346D01*
X442752Y387322D01*
X442682Y387307D01*
X442637Y387280D01*
X442589Y387262D01*
X442533Y387217D01*
X442471Y387180D01*
X442437Y387141D01*
X442397Y387108D01*
X442358Y387048D01*
X442311Y386993D01*
X442292Y386945D01*
X442264Y386901D01*
X442246Y386832D01*
X442219Y386765D01*
X442211Y386694D01*
X442203Y386663D01*
X442205Y386639D01*
X442201Y386599D01*
X442201Y375401D01*
X442212Y375331D01*
X442214Y375259D01*
X442232Y375210D01*
X442240Y375159D01*
X442274Y375095D01*
X442299Y375028D01*
X442331Y374987D01*
X442356Y374941D01*
X442408Y374892D01*
X442452Y374836D01*
X442496Y374808D01*
X442534Y374772D01*
X442599Y374742D01*
X442659Y374703D01*
X442710Y374690D01*
X442757Y374668D01*
X442828Y374660D01*
X442898Y374643D01*
X442950Y374647D01*
X443001Y374641D01*
X443072Y374656D01*
X443143Y374662D01*
X443191Y374682D01*
X443242Y374693D01*
X443303Y374730D01*
X443369Y374758D01*
X443425Y374803D01*
X443453Y374820D01*
X443468Y374837D01*
X443500Y374863D01*
X444588Y375951D01*
X447905Y377325D01*
X466495Y377325D01*
X469812Y375951D01*
X472351Y373412D01*
X473725Y370095D01*
X473725Y366505D01*
X472351Y363188D01*
X469812Y360649D01*
X466495Y359275D01*
X449957Y359275D01*
X449886Y359264D01*
X449815Y359262D01*
X449766Y359244D01*
X449714Y359236D01*
X449651Y359202D01*
X449584Y359177D01*
X449543Y359145D01*
X449497Y359120D01*
X449448Y359069D01*
X449391Y359024D01*
X449363Y358980D01*
X449327Y358942D01*
X449297Y358877D01*
X449258Y358817D01*
X449246Y358766D01*
X449224Y358719D01*
X449216Y358648D01*
X449198Y358578D01*
X449202Y358526D01*
X449197Y358475D01*
X449212Y358404D01*
X449218Y358333D01*
X449238Y358285D01*
X449249Y358234D01*
X449286Y358173D01*
X449314Y358107D01*
X449359Y358051D01*
X449375Y358023D01*
X449393Y358008D01*
X449419Y357976D01*
X455247Y352148D01*
X455321Y352095D01*
X455390Y352035D01*
X455420Y352023D01*
X455446Y352004D01*
X455533Y351977D01*
X455618Y351943D01*
X455659Y351939D01*
X455682Y351932D01*
X455714Y351933D01*
X455785Y351925D01*
X466495Y351925D01*
X469812Y350551D01*
X472351Y348012D01*
X473725Y344695D01*
X473725Y341105D01*
X472351Y337788D01*
X469812Y335249D01*
X466495Y333875D01*
X455785Y333875D01*
X455695Y333861D01*
X455604Y333853D01*
X455574Y333841D01*
X455542Y333836D01*
X455462Y333793D01*
X455378Y333757D01*
X455346Y333731D01*
X455325Y333720D01*
X455303Y333697D01*
X455247Y333652D01*
X450435Y328840D01*
X450393Y328782D01*
X450343Y328730D01*
X450322Y328683D01*
X450291Y328641D01*
X450270Y328572D01*
X450240Y328507D01*
X450234Y328455D01*
X450219Y328405D01*
X450221Y328334D01*
X450213Y328263D01*
X450224Y328212D01*
X450225Y328160D01*
X450250Y328092D01*
X450265Y328022D01*
X450292Y327977D01*
X450310Y327929D01*
X450354Y327873D01*
X450391Y327811D01*
X450431Y327777D01*
X450463Y327737D01*
X450524Y327698D01*
X450578Y327651D01*
X450626Y327632D01*
X450670Y327604D01*
X450740Y327586D01*
X450806Y327559D01*
X450878Y327551D01*
X450909Y327543D01*
X450932Y327545D01*
X450973Y327541D01*
X455677Y327541D01*
X455677Y318262D01*
X455680Y318242D01*
X455678Y318223D01*
X455700Y318121D01*
X455717Y318019D01*
X455726Y318002D01*
X455730Y317982D01*
X455783Y317893D01*
X455832Y317802D01*
X455846Y317788D01*
X455856Y317771D01*
X455935Y317704D01*
X456010Y317633D01*
X456028Y317624D01*
X456043Y317611D01*
X456139Y317573D01*
X456233Y317529D01*
X456253Y317527D01*
X456271Y317519D01*
X456438Y317501D01*
X457201Y317501D01*
X457201Y317499D01*
X456438Y317499D01*
X456418Y317496D01*
X456399Y317498D01*
X456297Y317476D01*
X456195Y317459D01*
X456178Y317450D01*
X456158Y317446D01*
X456069Y317393D01*
X455978Y317344D01*
X455964Y317330D01*
X455947Y317320D01*
X455880Y317241D01*
X455809Y317166D01*
X455800Y317148D01*
X455787Y317133D01*
X455748Y317037D01*
X455705Y316943D01*
X455703Y316923D01*
X455695Y316905D01*
X455677Y316738D01*
X455677Y307459D01*
X448910Y307459D01*
X447349Y307706D01*
X445846Y308195D01*
X444437Y308912D01*
X443409Y309659D01*
X443399Y309665D01*
X443390Y309673D01*
X443289Y309720D01*
X443190Y309770D01*
X443178Y309772D01*
X443167Y309777D01*
X443056Y309789D01*
X442946Y309805D01*
X442934Y309802D01*
X442923Y309804D01*
X442814Y309780D01*
X442704Y309760D01*
X442694Y309754D01*
X442682Y309751D01*
X442587Y309694D01*
X442489Y309640D01*
X442481Y309631D01*
X442471Y309625D01*
X442399Y309541D01*
X442324Y309458D01*
X442319Y309448D01*
X442311Y309438D01*
X442269Y309335D01*
X442225Y309233D01*
X442224Y309221D01*
X442219Y309210D01*
X442201Y309043D01*
X442201Y299201D01*
X442212Y299131D01*
X442214Y299059D01*
X442232Y299010D01*
X442240Y298959D01*
X442274Y298895D01*
X442299Y298828D01*
X442331Y298787D01*
X442356Y298741D01*
X442408Y298692D01*
X442452Y298636D01*
X442496Y298608D01*
X442534Y298572D01*
X442599Y298542D01*
X442659Y298503D01*
X442710Y298490D01*
X442757Y298468D01*
X442828Y298460D01*
X442898Y298443D01*
X442950Y298447D01*
X443001Y298441D01*
X443072Y298456D01*
X443143Y298462D01*
X443191Y298482D01*
X443242Y298493D01*
X443303Y298530D01*
X443369Y298558D01*
X443425Y298603D01*
X443453Y298620D01*
X443468Y298637D01*
X443500Y298663D01*
X444588Y299751D01*
X447905Y301125D01*
X466495Y301125D01*
X469812Y299751D01*
X472351Y297212D01*
X473725Y293895D01*
X473725Y290305D01*
X472351Y286988D01*
X469812Y284449D01*
X466495Y283075D01*
X447905Y283075D01*
X444588Y284449D01*
X443500Y285537D01*
X443442Y285579D01*
X443390Y285628D01*
X443343Y285650D01*
X443301Y285680D01*
X443232Y285701D01*
X443167Y285732D01*
X443115Y285737D01*
X443065Y285753D01*
X442994Y285751D01*
X442923Y285759D01*
X442872Y285748D01*
X442820Y285746D01*
X442752Y285722D01*
X442682Y285707D01*
X442637Y285680D01*
X442589Y285662D01*
X442533Y285617D01*
X442471Y285580D01*
X442437Y285541D01*
X442397Y285508D01*
X442358Y285448D01*
X442311Y285393D01*
X442292Y285345D01*
X442264Y285301D01*
X442246Y285232D01*
X442235Y285205D01*
X442229Y285191D01*
X442229Y285188D01*
X442219Y285165D01*
X442211Y285094D01*
X442203Y285063D01*
X442205Y285039D01*
X442201Y284999D01*
X442201Y273801D01*
X442212Y273731D01*
X442214Y273659D01*
X442232Y273610D01*
X442240Y273559D01*
X442274Y273495D01*
X442299Y273428D01*
X442331Y273387D01*
X442356Y273341D01*
X442408Y273292D01*
X442452Y273236D01*
X442496Y273208D01*
X442534Y273172D01*
X442599Y273142D01*
X442659Y273103D01*
X442710Y273090D01*
X442757Y273068D01*
X442828Y273060D01*
X442898Y273043D01*
X442950Y273047D01*
X443001Y273041D01*
X443072Y273056D01*
X443143Y273062D01*
X443191Y273082D01*
X443242Y273093D01*
X443303Y273130D01*
X443369Y273158D01*
X443425Y273203D01*
X443453Y273220D01*
X443468Y273237D01*
X443500Y273263D01*
X444588Y274351D01*
X447905Y275725D01*
X466495Y275725D01*
X469812Y274351D01*
X472351Y271812D01*
X473725Y268495D01*
X473725Y264905D01*
X472351Y261588D01*
X469812Y259049D01*
X466495Y257675D01*
X447905Y257675D01*
X444588Y259049D01*
X443500Y260137D01*
X443442Y260179D01*
X443390Y260228D01*
X443343Y260250D01*
X443301Y260280D01*
X443232Y260301D01*
X443167Y260332D01*
X443115Y260337D01*
X443065Y260353D01*
X442994Y260351D01*
X442923Y260359D01*
X442872Y260348D01*
X442820Y260346D01*
X442752Y260322D01*
X442682Y260307D01*
X442637Y260280D01*
X442589Y260262D01*
X442533Y260217D01*
X442471Y260180D01*
X442437Y260141D01*
X442397Y260108D01*
X442358Y260048D01*
X442311Y259993D01*
X442292Y259945D01*
X442264Y259901D01*
X442246Y259832D01*
X442219Y259765D01*
X442211Y259694D01*
X442203Y259663D01*
X442205Y259639D01*
X442201Y259599D01*
X442201Y248401D01*
X442212Y248331D01*
X442214Y248259D01*
X442232Y248210D01*
X442240Y248159D01*
X442274Y248095D01*
X442299Y248028D01*
X442331Y247987D01*
X442356Y247941D01*
X442408Y247892D01*
X442452Y247836D01*
X442496Y247808D01*
X442534Y247772D01*
X442599Y247742D01*
X442659Y247703D01*
X442710Y247690D01*
X442757Y247668D01*
X442828Y247660D01*
X442898Y247643D01*
X442950Y247647D01*
X443001Y247641D01*
X443072Y247656D01*
X443143Y247662D01*
X443191Y247682D01*
X443242Y247693D01*
X443303Y247730D01*
X443369Y247758D01*
X443425Y247803D01*
X443453Y247820D01*
X443468Y247837D01*
X443500Y247863D01*
X444588Y248951D01*
X447905Y250325D01*
X466495Y250325D01*
X469812Y248951D01*
X472351Y246412D01*
X473725Y243095D01*
X473725Y239505D01*
X472351Y236188D01*
X469812Y233649D01*
X466495Y232275D01*
X447905Y232275D01*
X444588Y233649D01*
X443500Y234737D01*
X443442Y234779D01*
X443390Y234828D01*
X443343Y234850D01*
X443301Y234880D01*
X443232Y234901D01*
X443167Y234932D01*
X443115Y234937D01*
X443065Y234953D01*
X442994Y234951D01*
X442923Y234959D01*
X442872Y234948D01*
X442820Y234946D01*
X442752Y234922D01*
X442682Y234907D01*
X442637Y234880D01*
X442589Y234862D01*
X442533Y234817D01*
X442471Y234780D01*
X442437Y234741D01*
X442397Y234708D01*
X442358Y234648D01*
X442311Y234593D01*
X442292Y234545D01*
X442264Y234501D01*
X442246Y234432D01*
X442219Y234365D01*
X442211Y234294D01*
X442203Y234263D01*
X442205Y234239D01*
X442201Y234199D01*
X442201Y223001D01*
X442212Y222931D01*
X442214Y222859D01*
X442232Y222810D01*
X442240Y222759D01*
X442274Y222695D01*
X442299Y222628D01*
X442331Y222587D01*
X442356Y222541D01*
X442408Y222492D01*
X442452Y222436D01*
X442496Y222408D01*
X442534Y222372D01*
X442599Y222342D01*
X442659Y222303D01*
X442710Y222290D01*
X442757Y222268D01*
X442828Y222260D01*
X442898Y222243D01*
X442950Y222247D01*
X443001Y222241D01*
X443072Y222256D01*
X443143Y222262D01*
X443191Y222282D01*
X443242Y222293D01*
X443303Y222330D01*
X443369Y222358D01*
X443425Y222403D01*
X443453Y222420D01*
X443468Y222437D01*
X443500Y222463D01*
X444588Y223551D01*
X447905Y224925D01*
X466495Y224925D01*
X469812Y223551D01*
X472351Y221012D01*
X473725Y217695D01*
X473725Y214105D01*
X472351Y210788D01*
X469812Y208249D01*
X466495Y206875D01*
X447905Y206875D01*
X444588Y208249D01*
X443500Y209337D01*
X443442Y209379D01*
X443390Y209428D01*
X443343Y209450D01*
X443301Y209480D01*
X443232Y209501D01*
X443167Y209532D01*
X443115Y209537D01*
X443065Y209553D01*
X442994Y209551D01*
X442923Y209559D01*
X442872Y209548D01*
X442820Y209546D01*
X442752Y209522D01*
X442682Y209507D01*
X442637Y209480D01*
X442589Y209462D01*
X442533Y209417D01*
X442471Y209380D01*
X442437Y209341D01*
X442397Y209308D01*
X442358Y209248D01*
X442311Y209193D01*
X442292Y209145D01*
X442264Y209101D01*
X442246Y209032D01*
X442219Y208965D01*
X442211Y208894D01*
X442203Y208863D01*
X442205Y208839D01*
X442201Y208799D01*
X442201Y197601D01*
X442212Y197531D01*
X442214Y197459D01*
X442232Y197410D01*
X442240Y197359D01*
X442274Y197295D01*
X442299Y197228D01*
X442331Y197187D01*
X442356Y197141D01*
X442408Y197092D01*
X442452Y197036D01*
X442496Y197008D01*
X442534Y196972D01*
X442599Y196942D01*
X442659Y196903D01*
X442710Y196890D01*
X442757Y196868D01*
X442828Y196860D01*
X442898Y196843D01*
X442950Y196847D01*
X443001Y196841D01*
X443072Y196856D01*
X443143Y196862D01*
X443191Y196882D01*
X443242Y196893D01*
X443303Y196930D01*
X443369Y196958D01*
X443425Y197003D01*
X443453Y197020D01*
X443468Y197037D01*
X443500Y197063D01*
X444588Y198151D01*
X447905Y199525D01*
X466495Y199525D01*
X469812Y198151D01*
X472351Y195612D01*
X473725Y192295D01*
X473725Y188705D01*
X472351Y185388D01*
X469812Y182849D01*
X466495Y181475D01*
X447905Y181475D01*
X444588Y182849D01*
X443500Y183937D01*
X443442Y183979D01*
X443390Y184028D01*
X443343Y184050D01*
X443301Y184080D01*
X443232Y184101D01*
X443167Y184132D01*
X443115Y184137D01*
X443065Y184153D01*
X442994Y184151D01*
X442923Y184159D01*
X442872Y184148D01*
X442820Y184146D01*
X442752Y184122D01*
X442682Y184107D01*
X442637Y184080D01*
X442589Y184062D01*
X442533Y184017D01*
X442471Y183980D01*
X442437Y183941D01*
X442397Y183908D01*
X442358Y183848D01*
X442311Y183793D01*
X442292Y183745D01*
X442264Y183701D01*
X442246Y183632D01*
X442219Y183565D01*
X442211Y183494D01*
X442203Y183463D01*
X442205Y183439D01*
X442201Y183399D01*
X442201Y172201D01*
X442212Y172131D01*
X442214Y172059D01*
X442232Y172010D01*
X442240Y171959D01*
X442274Y171895D01*
X442299Y171828D01*
X442331Y171787D01*
X442356Y171741D01*
X442408Y171692D01*
X442452Y171636D01*
X442496Y171608D01*
X442534Y171572D01*
X442599Y171542D01*
X442659Y171503D01*
X442710Y171490D01*
X442757Y171468D01*
X442828Y171460D01*
X442898Y171443D01*
X442950Y171447D01*
X443001Y171441D01*
X443072Y171456D01*
X443143Y171462D01*
X443191Y171482D01*
X443242Y171493D01*
X443303Y171530D01*
X443369Y171558D01*
X443425Y171603D01*
X443453Y171620D01*
X443468Y171637D01*
X443500Y171663D01*
X444588Y172751D01*
X447905Y174125D01*
X466495Y174125D01*
X469812Y172751D01*
X472351Y170212D01*
X473725Y166895D01*
X473725Y163305D01*
X472351Y159988D01*
X469812Y157449D01*
X466495Y156075D01*
X449957Y156075D01*
X449886Y156064D01*
X449815Y156062D01*
X449766Y156044D01*
X449714Y156036D01*
X449651Y156002D01*
X449584Y155977D01*
X449543Y155945D01*
X449497Y155920D01*
X449447Y155868D01*
X449391Y155824D01*
X449363Y155780D01*
X449327Y155742D01*
X449297Y155677D01*
X449258Y155617D01*
X449246Y155566D01*
X449224Y155519D01*
X449216Y155448D01*
X449198Y155378D01*
X449202Y155326D01*
X449197Y155275D01*
X449212Y155204D01*
X449218Y155133D01*
X449238Y155085D01*
X449249Y155034D01*
X449286Y154973D01*
X449314Y154907D01*
X449359Y154851D01*
X449375Y154823D01*
X449393Y154808D01*
X449419Y154776D01*
X455247Y148948D01*
X455321Y148895D01*
X455390Y148835D01*
X455420Y148823D01*
X455446Y148804D01*
X455533Y148777D01*
X455618Y148743D01*
X455659Y148739D01*
X455682Y148732D01*
X455714Y148733D01*
X455785Y148725D01*
X466495Y148725D01*
X469812Y147351D01*
X472351Y144812D01*
X473725Y141495D01*
X473725Y137905D01*
X472351Y134588D01*
X469812Y132049D01*
X466495Y130675D01*
X447905Y130675D01*
G37*
%LPD*%
%LPC*%
G36*
X227653Y86613D02*
X227653Y86613D01*
X188213Y126053D01*
X188213Y227337D01*
X188199Y227428D01*
X188191Y227518D01*
X188179Y227548D01*
X188174Y227580D01*
X188131Y227661D01*
X188095Y227745D01*
X188069Y227777D01*
X188058Y227798D01*
X188035Y227820D01*
X187990Y227876D01*
X169338Y246528D01*
X169259Y246585D01*
X169184Y246647D01*
X169159Y246657D01*
X169138Y246672D01*
X169045Y246700D01*
X168954Y246735D01*
X168928Y246737D01*
X168903Y246744D01*
X168806Y246742D01*
X168708Y246746D01*
X168683Y246739D01*
X168657Y246738D01*
X168565Y246704D01*
X168472Y246677D01*
X168451Y246662D01*
X168426Y246653D01*
X168350Y246592D01*
X168270Y246537D01*
X168254Y246516D01*
X168234Y246500D01*
X168181Y246418D01*
X168123Y246340D01*
X168115Y246315D01*
X168101Y246293D01*
X168077Y246198D01*
X168047Y246106D01*
X168047Y246080D01*
X168041Y246054D01*
X168048Y245957D01*
X168049Y245860D01*
X168059Y245828D01*
X168060Y245809D01*
X168073Y245779D01*
X168096Y245699D01*
X169165Y243119D01*
X169165Y239481D01*
X167773Y236120D01*
X165200Y233547D01*
X161839Y232155D01*
X142961Y232155D01*
X139600Y233547D01*
X137027Y236120D01*
X135635Y239481D01*
X135635Y243119D01*
X137027Y246480D01*
X139600Y249053D01*
X142961Y250445D01*
X161839Y250445D01*
X164419Y249376D01*
X164514Y249354D01*
X164607Y249325D01*
X164633Y249326D01*
X164658Y249320D01*
X164755Y249329D01*
X164852Y249332D01*
X164877Y249341D01*
X164903Y249343D01*
X164992Y249383D01*
X165083Y249416D01*
X165104Y249432D01*
X165128Y249443D01*
X165199Y249509D01*
X165276Y249570D01*
X165290Y249592D01*
X165309Y249609D01*
X165356Y249695D01*
X165409Y249777D01*
X165415Y249802D01*
X165428Y249825D01*
X165445Y249921D01*
X165469Y250015D01*
X165467Y250041D01*
X165471Y250067D01*
X165457Y250164D01*
X165449Y250260D01*
X165439Y250284D01*
X165435Y250310D01*
X165391Y250397D01*
X165353Y250487D01*
X165333Y250512D01*
X165324Y250530D01*
X165300Y250553D01*
X165248Y250618D01*
X158534Y257332D01*
X158460Y257385D01*
X158390Y257445D01*
X158360Y257457D01*
X158334Y257476D01*
X158247Y257503D01*
X158162Y257537D01*
X158121Y257541D01*
X158099Y257548D01*
X158067Y257547D01*
X157995Y257555D01*
X142961Y257555D01*
X139600Y258947D01*
X137027Y261520D01*
X135635Y264881D01*
X135635Y268519D01*
X137027Y271880D01*
X139600Y274453D01*
X142961Y275845D01*
X161839Y275845D01*
X164419Y274776D01*
X164514Y274754D01*
X164607Y274725D01*
X164633Y274726D01*
X164658Y274720D01*
X164755Y274729D01*
X164853Y274732D01*
X164877Y274741D01*
X164903Y274743D01*
X164992Y274783D01*
X165084Y274816D01*
X165104Y274832D01*
X165128Y274843D01*
X165199Y274909D01*
X165276Y274970D01*
X165290Y274992D01*
X165309Y275009D01*
X165356Y275095D01*
X165409Y275177D01*
X165415Y275202D01*
X165428Y275225D01*
X165445Y275321D01*
X165469Y275415D01*
X165467Y275441D01*
X165471Y275467D01*
X165457Y275564D01*
X165449Y275660D01*
X165439Y275684D01*
X165435Y275710D01*
X165391Y275797D01*
X165353Y275887D01*
X165333Y275912D01*
X165324Y275930D01*
X165300Y275953D01*
X165248Y276018D01*
X158534Y282732D01*
X158460Y282785D01*
X158390Y282845D01*
X158360Y282857D01*
X158334Y282876D01*
X158247Y282903D01*
X158162Y282937D01*
X158121Y282941D01*
X158099Y282948D01*
X158067Y282947D01*
X157996Y282955D01*
X142961Y282955D01*
X139600Y284347D01*
X137027Y286920D01*
X135635Y290281D01*
X135635Y293919D01*
X137027Y297280D01*
X139600Y299853D01*
X142961Y301245D01*
X161839Y301245D01*
X164419Y300176D01*
X164514Y300154D01*
X164607Y300125D01*
X164633Y300126D01*
X164658Y300120D01*
X164755Y300129D01*
X164852Y300132D01*
X164877Y300141D01*
X164903Y300143D01*
X164992Y300183D01*
X165083Y300216D01*
X165104Y300232D01*
X165128Y300243D01*
X165200Y300309D01*
X165276Y300370D01*
X165290Y300392D01*
X165309Y300410D01*
X165356Y300495D01*
X165409Y300577D01*
X165415Y300602D01*
X165428Y300625D01*
X165445Y300721D01*
X165469Y300815D01*
X165467Y300841D01*
X165471Y300867D01*
X165457Y300964D01*
X165449Y301060D01*
X165439Y301084D01*
X165435Y301110D01*
X165391Y301197D01*
X165353Y301287D01*
X165333Y301312D01*
X165324Y301330D01*
X165300Y301353D01*
X165248Y301418D01*
X158534Y308132D01*
X158460Y308185D01*
X158390Y308245D01*
X158360Y308257D01*
X158334Y308276D01*
X158247Y308303D01*
X158162Y308337D01*
X158121Y308341D01*
X158099Y308348D01*
X158067Y308347D01*
X157995Y308355D01*
X142961Y308355D01*
X139600Y309747D01*
X137027Y312320D01*
X135635Y315681D01*
X135635Y319319D01*
X137027Y322680D01*
X139600Y325253D01*
X142961Y326645D01*
X161839Y326645D01*
X165200Y325253D01*
X167773Y322680D01*
X169165Y319319D01*
X169165Y315681D01*
X167773Y312320D01*
X165200Y309747D01*
X164970Y309652D01*
X164931Y309628D01*
X164888Y309612D01*
X164827Y309564D01*
X164761Y309523D01*
X164732Y309487D01*
X164696Y309459D01*
X164654Y309393D01*
X164604Y309333D01*
X164588Y309290D01*
X164563Y309252D01*
X164544Y309176D01*
X164516Y309104D01*
X164514Y309058D01*
X164503Y309013D01*
X164509Y308936D01*
X164506Y308858D01*
X164519Y308814D01*
X164522Y308768D01*
X164553Y308696D01*
X164574Y308622D01*
X164600Y308584D01*
X164618Y308542D01*
X164704Y308435D01*
X164715Y308420D01*
X164719Y308417D01*
X164723Y308411D01*
X216624Y256510D01*
X218187Y254947D01*
X218187Y128263D01*
X218201Y128172D01*
X218209Y128082D01*
X218221Y128052D01*
X218226Y128020D01*
X218269Y127939D01*
X218305Y127855D01*
X218331Y127823D01*
X218342Y127802D01*
X218365Y127780D01*
X218410Y127724D01*
X229324Y116810D01*
X229398Y116757D01*
X229468Y116697D01*
X229498Y116685D01*
X229524Y116666D01*
X229611Y116639D01*
X229696Y116605D01*
X229737Y116601D01*
X229759Y116594D01*
X229791Y116595D01*
X229863Y116587D01*
X252737Y116587D01*
X252828Y116601D01*
X252918Y116609D01*
X252948Y116621D01*
X252980Y116626D01*
X253061Y116669D01*
X253145Y116705D01*
X253177Y116731D01*
X253198Y116742D01*
X253220Y116765D01*
X253276Y116810D01*
X264190Y127724D01*
X264243Y127798D01*
X264303Y127868D01*
X264315Y127898D01*
X264334Y127924D01*
X264361Y128011D01*
X264395Y128096D01*
X264399Y128137D01*
X264406Y128159D01*
X264405Y128191D01*
X264413Y128263D01*
X264413Y135244D01*
X264399Y135334D01*
X264391Y135425D01*
X264379Y135455D01*
X264374Y135487D01*
X264331Y135568D01*
X264295Y135652D01*
X264269Y135684D01*
X264258Y135704D01*
X264235Y135726D01*
X264190Y135782D01*
X262155Y137817D01*
X262155Y141583D01*
X264190Y143618D01*
X264232Y143676D01*
X264281Y143727D01*
X264289Y143745D01*
X264303Y143761D01*
X264315Y143791D01*
X264334Y143817D01*
X264356Y143888D01*
X264384Y143950D01*
X264386Y143968D01*
X264395Y143989D01*
X264399Y144030D01*
X264406Y144052D01*
X264405Y144085D01*
X264413Y144156D01*
X264413Y236844D01*
X264399Y236934D01*
X264391Y237025D01*
X264379Y237055D01*
X264374Y237087D01*
X264331Y237168D01*
X264295Y237252D01*
X264269Y237284D01*
X264258Y237304D01*
X264235Y237326D01*
X264190Y237382D01*
X262155Y239417D01*
X262155Y243183D01*
X264190Y245218D01*
X264243Y245291D01*
X264303Y245361D01*
X264315Y245391D01*
X264334Y245417D01*
X264361Y245504D01*
X264395Y245589D01*
X264399Y245630D01*
X264406Y245652D01*
X264405Y245685D01*
X264413Y245756D01*
X264413Y338444D01*
X264399Y338534D01*
X264391Y338625D01*
X264379Y338655D01*
X264374Y338687D01*
X264331Y338768D01*
X264295Y338851D01*
X264269Y338884D01*
X264258Y338904D01*
X264235Y338926D01*
X264190Y338982D01*
X262155Y341017D01*
X262155Y344783D01*
X264190Y346818D01*
X264243Y346891D01*
X264303Y346961D01*
X264315Y346991D01*
X264334Y347017D01*
X264361Y347104D01*
X264395Y347189D01*
X264399Y347230D01*
X264406Y347252D01*
X264405Y347285D01*
X264413Y347356D01*
X264413Y440044D01*
X264399Y440134D01*
X264391Y440225D01*
X264379Y440255D01*
X264374Y440287D01*
X264331Y440368D01*
X264295Y440451D01*
X264269Y440484D01*
X264258Y440504D01*
X264235Y440526D01*
X264190Y440582D01*
X262155Y442617D01*
X262155Y446383D01*
X264190Y448418D01*
X264243Y448491D01*
X264303Y448561D01*
X264315Y448591D01*
X264334Y448617D01*
X264361Y448704D01*
X264395Y448789D01*
X264399Y448830D01*
X264406Y448852D01*
X264405Y448885D01*
X264413Y448956D01*
X264413Y541644D01*
X264399Y541734D01*
X264391Y541825D01*
X264379Y541855D01*
X264374Y541887D01*
X264331Y541968D01*
X264295Y542051D01*
X264269Y542084D01*
X264258Y542104D01*
X264235Y542126D01*
X264190Y542182D01*
X262155Y544217D01*
X262155Y547983D01*
X264817Y550645D01*
X268583Y550645D01*
X271245Y547983D01*
X271245Y544217D01*
X269210Y542182D01*
X269157Y542109D01*
X269097Y542039D01*
X269085Y542009D01*
X269066Y541983D01*
X269039Y541896D01*
X269005Y541811D01*
X269001Y541770D01*
X268994Y541748D01*
X268995Y541715D01*
X268987Y541644D01*
X268987Y448956D01*
X269001Y448866D01*
X269009Y448775D01*
X269021Y448745D01*
X269026Y448713D01*
X269069Y448632D01*
X269105Y448549D01*
X269131Y448516D01*
X269142Y448496D01*
X269165Y448474D01*
X269210Y448418D01*
X271245Y446383D01*
X271245Y442617D01*
X269210Y440582D01*
X269157Y440509D01*
X269097Y440439D01*
X269085Y440409D01*
X269066Y440383D01*
X269039Y440296D01*
X269005Y440211D01*
X269001Y440170D01*
X268994Y440148D01*
X268995Y440115D01*
X268987Y440044D01*
X268987Y347356D01*
X269001Y347266D01*
X269009Y347175D01*
X269021Y347145D01*
X269026Y347113D01*
X269069Y347032D01*
X269105Y346949D01*
X269131Y346916D01*
X269142Y346896D01*
X269165Y346874D01*
X269210Y346818D01*
X271245Y344783D01*
X271245Y341017D01*
X269210Y338982D01*
X269157Y338909D01*
X269097Y338839D01*
X269085Y338809D01*
X269066Y338783D01*
X269039Y338696D01*
X269005Y338611D01*
X269001Y338570D01*
X268994Y338548D01*
X268995Y338515D01*
X268987Y338444D01*
X268987Y245756D01*
X269001Y245666D01*
X269009Y245575D01*
X269021Y245545D01*
X269026Y245513D01*
X269069Y245432D01*
X269105Y245349D01*
X269131Y245316D01*
X269142Y245296D01*
X269165Y245274D01*
X269210Y245218D01*
X271245Y243183D01*
X271245Y239417D01*
X269210Y237382D01*
X269157Y237308D01*
X269097Y237239D01*
X269085Y237209D01*
X269066Y237183D01*
X269039Y237096D01*
X269005Y237011D01*
X269001Y236970D01*
X268994Y236948D01*
X268995Y236915D01*
X268987Y236844D01*
X268987Y144156D01*
X268990Y144133D01*
X268989Y144116D01*
X269003Y144051D01*
X269009Y143975D01*
X269021Y143945D01*
X269026Y143913D01*
X269037Y143893D01*
X269041Y143875D01*
X269076Y143816D01*
X269105Y143748D01*
X269131Y143716D01*
X269142Y143696D01*
X269157Y143681D01*
X269167Y143664D01*
X269184Y143649D01*
X269210Y143618D01*
X271245Y141583D01*
X271245Y137817D01*
X269210Y135782D01*
X269157Y135708D01*
X269097Y135639D01*
X269085Y135609D01*
X269066Y135583D01*
X269039Y135496D01*
X269005Y135411D01*
X269001Y135370D01*
X268994Y135348D01*
X268995Y135315D01*
X268987Y135244D01*
X268987Y126053D01*
X254947Y112013D01*
X227653Y112013D01*
X213613Y126053D01*
X213613Y252737D01*
X213599Y252828D01*
X213591Y252918D01*
X213579Y252948D01*
X213574Y252980D01*
X213531Y253061D01*
X213495Y253145D01*
X213469Y253177D01*
X213458Y253198D01*
X213435Y253220D01*
X213390Y253276D01*
X169338Y297328D01*
X169259Y297385D01*
X169184Y297447D01*
X169159Y297457D01*
X169138Y297472D01*
X169045Y297500D01*
X168954Y297535D01*
X168928Y297537D01*
X168903Y297544D01*
X168806Y297542D01*
X168708Y297546D01*
X168683Y297539D01*
X168657Y297538D01*
X168566Y297504D01*
X168472Y297477D01*
X168451Y297462D01*
X168426Y297453D01*
X168350Y297393D01*
X168270Y297337D01*
X168254Y297316D01*
X168234Y297300D01*
X168181Y297218D01*
X168123Y297140D01*
X168115Y297115D01*
X168101Y297093D01*
X168077Y296998D01*
X168047Y296906D01*
X168047Y296880D01*
X168041Y296854D01*
X168049Y296757D01*
X168049Y296660D01*
X168059Y296628D01*
X168060Y296609D01*
X168073Y296579D01*
X168096Y296499D01*
X169165Y293919D01*
X169165Y290281D01*
X167773Y286920D01*
X165200Y284347D01*
X164970Y284252D01*
X164931Y284228D01*
X164888Y284212D01*
X164827Y284164D01*
X164761Y284123D01*
X164732Y284087D01*
X164696Y284059D01*
X164654Y283993D01*
X164604Y283933D01*
X164588Y283890D01*
X164563Y283852D01*
X164544Y283776D01*
X164516Y283704D01*
X164514Y283658D01*
X164503Y283613D01*
X164509Y283536D01*
X164506Y283458D01*
X164519Y283414D01*
X164522Y283368D01*
X164553Y283296D01*
X164574Y283222D01*
X164600Y283184D01*
X164618Y283142D01*
X164704Y283035D01*
X164715Y283020D01*
X164719Y283017D01*
X164723Y283011D01*
X203924Y243810D01*
X205487Y242247D01*
X205487Y128262D01*
X205501Y128172D01*
X205509Y128081D01*
X205521Y128052D01*
X205526Y128020D01*
X205569Y127939D01*
X205605Y127855D01*
X205631Y127823D01*
X205642Y127802D01*
X205665Y127780D01*
X205710Y127724D01*
X229324Y104110D01*
X229398Y104057D01*
X229468Y103997D01*
X229498Y103985D01*
X229524Y103966D01*
X229611Y103939D01*
X229696Y103905D01*
X229737Y103901D01*
X229759Y103894D01*
X229791Y103895D01*
X229863Y103887D01*
X252737Y103887D01*
X252828Y103901D01*
X252918Y103909D01*
X252948Y103921D01*
X252980Y103926D01*
X253061Y103969D01*
X253145Y104005D01*
X253177Y104031D01*
X253198Y104042D01*
X253220Y104065D01*
X253276Y104110D01*
X289590Y140424D01*
X289643Y140498D01*
X289703Y140568D01*
X289715Y140598D01*
X289734Y140624D01*
X289761Y140711D01*
X289795Y140796D01*
X289799Y140837D01*
X289806Y140859D01*
X289805Y140891D01*
X289813Y140963D01*
X289813Y160644D01*
X289799Y160734D01*
X289791Y160825D01*
X289779Y160855D01*
X289774Y160887D01*
X289731Y160968D01*
X289695Y161051D01*
X289669Y161084D01*
X289658Y161104D01*
X289635Y161126D01*
X289590Y161182D01*
X287555Y163217D01*
X287555Y166983D01*
X289590Y169018D01*
X289643Y169091D01*
X289703Y169161D01*
X289715Y169191D01*
X289734Y169217D01*
X289761Y169304D01*
X289795Y169389D01*
X289799Y169430D01*
X289806Y169452D01*
X289805Y169485D01*
X289813Y169556D01*
X289813Y262244D01*
X289799Y262334D01*
X289791Y262425D01*
X289779Y262455D01*
X289774Y262487D01*
X289731Y262568D01*
X289695Y262651D01*
X289669Y262684D01*
X289658Y262704D01*
X289635Y262726D01*
X289590Y262782D01*
X287555Y264817D01*
X287555Y268583D01*
X289590Y270618D01*
X289643Y270691D01*
X289703Y270761D01*
X289715Y270791D01*
X289734Y270817D01*
X289761Y270904D01*
X289795Y270989D01*
X289799Y271030D01*
X289806Y271052D01*
X289805Y271085D01*
X289813Y271156D01*
X289813Y363844D01*
X289799Y363934D01*
X289791Y364025D01*
X289779Y364055D01*
X289774Y364087D01*
X289731Y364168D01*
X289695Y364251D01*
X289669Y364284D01*
X289658Y364304D01*
X289635Y364326D01*
X289590Y364382D01*
X287555Y366417D01*
X287555Y370183D01*
X289590Y372218D01*
X289643Y372291D01*
X289703Y372361D01*
X289715Y372391D01*
X289734Y372417D01*
X289761Y372504D01*
X289795Y372589D01*
X289799Y372630D01*
X289806Y372652D01*
X289805Y372685D01*
X289813Y372756D01*
X289813Y465444D01*
X289799Y465534D01*
X289791Y465625D01*
X289779Y465655D01*
X289774Y465687D01*
X289731Y465768D01*
X289695Y465851D01*
X289669Y465884D01*
X289658Y465904D01*
X289635Y465926D01*
X289590Y465982D01*
X287555Y468017D01*
X287555Y471783D01*
X290217Y474445D01*
X293983Y474445D01*
X296645Y471783D01*
X296645Y468017D01*
X294610Y465982D01*
X294557Y465909D01*
X294497Y465839D01*
X294485Y465809D01*
X294466Y465783D01*
X294439Y465696D01*
X294405Y465611D01*
X294401Y465570D01*
X294394Y465548D01*
X294395Y465515D01*
X294387Y465444D01*
X294387Y372756D01*
X294401Y372666D01*
X294409Y372575D01*
X294421Y372545D01*
X294426Y372513D01*
X294469Y372432D01*
X294505Y372349D01*
X294531Y372316D01*
X294542Y372296D01*
X294565Y372274D01*
X294610Y372218D01*
X296645Y370183D01*
X296645Y366417D01*
X294610Y364382D01*
X294557Y364309D01*
X294497Y364239D01*
X294485Y364209D01*
X294466Y364183D01*
X294439Y364096D01*
X294405Y364011D01*
X294401Y363970D01*
X294394Y363948D01*
X294395Y363915D01*
X294387Y363844D01*
X294387Y271156D01*
X294401Y271066D01*
X294409Y270975D01*
X294421Y270945D01*
X294426Y270913D01*
X294469Y270832D01*
X294505Y270749D01*
X294531Y270716D01*
X294542Y270696D01*
X294565Y270674D01*
X294610Y270618D01*
X296645Y268583D01*
X296645Y264817D01*
X294610Y262782D01*
X294557Y262709D01*
X294497Y262639D01*
X294485Y262609D01*
X294466Y262583D01*
X294439Y262496D01*
X294405Y262411D01*
X294401Y262370D01*
X294394Y262348D01*
X294395Y262315D01*
X294387Y262244D01*
X294387Y169556D01*
X294401Y169466D01*
X294409Y169375D01*
X294421Y169345D01*
X294426Y169313D01*
X294469Y169232D01*
X294505Y169149D01*
X294531Y169116D01*
X294542Y169096D01*
X294565Y169074D01*
X294610Y169018D01*
X296645Y166983D01*
X296645Y163217D01*
X294610Y161182D01*
X294557Y161109D01*
X294497Y161039D01*
X294485Y161009D01*
X294466Y160983D01*
X294439Y160896D01*
X294405Y160811D01*
X294401Y160770D01*
X294394Y160748D01*
X294395Y160715D01*
X294387Y160644D01*
X294387Y138753D01*
X254947Y99313D01*
X227653Y99313D01*
X226090Y100876D01*
X202476Y124490D01*
X200913Y126053D01*
X200913Y240038D01*
X200899Y240128D01*
X200891Y240219D01*
X200879Y240248D01*
X200874Y240280D01*
X200831Y240361D01*
X200795Y240445D01*
X200769Y240477D01*
X200758Y240498D01*
X200735Y240520D01*
X200690Y240576D01*
X169338Y271928D01*
X169259Y271985D01*
X169184Y272047D01*
X169159Y272057D01*
X169138Y272072D01*
X169045Y272101D01*
X168954Y272135D01*
X168928Y272137D01*
X168903Y272144D01*
X168806Y272142D01*
X168708Y272146D01*
X168683Y272139D01*
X168657Y272138D01*
X168565Y272104D01*
X168472Y272077D01*
X168451Y272062D01*
X168426Y272053D01*
X168350Y271993D01*
X168270Y271937D01*
X168254Y271916D01*
X168234Y271900D01*
X168181Y271818D01*
X168123Y271740D01*
X168115Y271715D01*
X168101Y271693D01*
X168077Y271598D01*
X168047Y271506D01*
X168047Y271480D01*
X168041Y271454D01*
X168048Y271357D01*
X168049Y271260D01*
X168059Y271228D01*
X168060Y271209D01*
X168073Y271179D01*
X168096Y271099D01*
X169165Y268519D01*
X169165Y264881D01*
X167773Y261520D01*
X165200Y258947D01*
X164970Y258852D01*
X164931Y258828D01*
X164888Y258812D01*
X164827Y258764D01*
X164761Y258723D01*
X164732Y258687D01*
X164696Y258659D01*
X164654Y258593D01*
X164604Y258533D01*
X164588Y258490D01*
X164563Y258452D01*
X164544Y258376D01*
X164516Y258304D01*
X164514Y258258D01*
X164503Y258213D01*
X164509Y258136D01*
X164506Y258058D01*
X164519Y258014D01*
X164522Y257968D01*
X164553Y257896D01*
X164574Y257822D01*
X164600Y257784D01*
X164618Y257742D01*
X164704Y257635D01*
X164715Y257620D01*
X164719Y257617D01*
X164723Y257611D01*
X191224Y231110D01*
X192787Y229547D01*
X192787Y128263D01*
X192801Y128172D01*
X192809Y128082D01*
X192821Y128052D01*
X192826Y128020D01*
X192869Y127939D01*
X192905Y127855D01*
X192931Y127823D01*
X192942Y127802D01*
X192965Y127780D01*
X193010Y127724D01*
X229324Y91410D01*
X229398Y91357D01*
X229468Y91297D01*
X229498Y91285D01*
X229524Y91266D01*
X229611Y91239D01*
X229696Y91205D01*
X229737Y91201D01*
X229759Y91194D01*
X229791Y91195D01*
X229863Y91187D01*
X252737Y91187D01*
X252828Y91201D01*
X252918Y91209D01*
X252948Y91221D01*
X252980Y91226D01*
X253061Y91269D01*
X253145Y91305D01*
X253177Y91331D01*
X253198Y91342D01*
X253220Y91365D01*
X253276Y91410D01*
X327690Y165824D01*
X327743Y165898D01*
X327803Y165968D01*
X327815Y165998D01*
X327834Y166024D01*
X327861Y166111D01*
X327895Y166196D01*
X327899Y166237D01*
X327906Y166259D01*
X327905Y166291D01*
X327913Y166363D01*
X327913Y173344D01*
X327899Y173434D01*
X327891Y173525D01*
X327879Y173555D01*
X327874Y173587D01*
X327831Y173668D01*
X327795Y173751D01*
X327769Y173784D01*
X327758Y173804D01*
X327735Y173826D01*
X327690Y173882D01*
X325655Y175917D01*
X325655Y179683D01*
X327690Y181718D01*
X327738Y181784D01*
X327743Y181789D01*
X327745Y181793D01*
X327803Y181861D01*
X327815Y181891D01*
X327834Y181917D01*
X327861Y182004D01*
X327895Y182089D01*
X327899Y182130D01*
X327906Y182152D01*
X327905Y182185D01*
X327913Y182256D01*
X327913Y274944D01*
X327899Y275034D01*
X327891Y275125D01*
X327879Y275155D01*
X327874Y275187D01*
X327831Y275268D01*
X327795Y275351D01*
X327769Y275384D01*
X327758Y275404D01*
X327735Y275426D01*
X327690Y275482D01*
X325655Y277517D01*
X325655Y281283D01*
X327690Y283318D01*
X327743Y283391D01*
X327803Y283461D01*
X327815Y283491D01*
X327834Y283517D01*
X327861Y283604D01*
X327895Y283689D01*
X327899Y283730D01*
X327906Y283752D01*
X327905Y283785D01*
X327913Y283856D01*
X327913Y376544D01*
X327899Y376634D01*
X327891Y376725D01*
X327879Y376755D01*
X327874Y376787D01*
X327831Y376868D01*
X327795Y376951D01*
X327769Y376984D01*
X327758Y377004D01*
X327735Y377026D01*
X327690Y377082D01*
X325655Y379117D01*
X325655Y382883D01*
X327690Y384918D01*
X327743Y384991D01*
X327803Y385061D01*
X327815Y385091D01*
X327834Y385117D01*
X327861Y385204D01*
X327895Y385289D01*
X327899Y385330D01*
X327906Y385352D01*
X327905Y385385D01*
X327913Y385456D01*
X327913Y478144D01*
X327899Y478234D01*
X327891Y478325D01*
X327879Y478355D01*
X327874Y478387D01*
X327831Y478468D01*
X327795Y478551D01*
X327769Y478584D01*
X327758Y478604D01*
X327735Y478626D01*
X327690Y478682D01*
X325655Y480717D01*
X325655Y484483D01*
X328317Y487145D01*
X332083Y487145D01*
X334745Y484483D01*
X334745Y480717D01*
X332710Y478682D01*
X332657Y478609D01*
X332597Y478539D01*
X332585Y478509D01*
X332566Y478483D01*
X332539Y478396D01*
X332505Y478311D01*
X332501Y478270D01*
X332494Y478248D01*
X332495Y478215D01*
X332487Y478144D01*
X332487Y385456D01*
X332489Y385442D01*
X332488Y385432D01*
X332500Y385378D01*
X332501Y385366D01*
X332509Y385275D01*
X332521Y385245D01*
X332526Y385213D01*
X332569Y385132D01*
X332605Y385049D01*
X332631Y385016D01*
X332642Y384996D01*
X332665Y384974D01*
X332710Y384918D01*
X334745Y382883D01*
X334745Y379117D01*
X332710Y377082D01*
X332657Y377009D01*
X332597Y376939D01*
X332585Y376909D01*
X332566Y376883D01*
X332539Y376796D01*
X332505Y376711D01*
X332501Y376670D01*
X332494Y376648D01*
X332495Y376615D01*
X332487Y376544D01*
X332487Y283856D01*
X332501Y283766D01*
X332509Y283675D01*
X332521Y283645D01*
X332526Y283613D01*
X332569Y283532D01*
X332605Y283449D01*
X332631Y283416D01*
X332642Y283396D01*
X332665Y283374D01*
X332710Y283318D01*
X334745Y281283D01*
X334745Y277517D01*
X332710Y275482D01*
X332657Y275409D01*
X332597Y275339D01*
X332585Y275309D01*
X332566Y275283D01*
X332539Y275196D01*
X332505Y275111D01*
X332501Y275070D01*
X332494Y275048D01*
X332495Y275015D01*
X332487Y274944D01*
X332487Y182256D01*
X332501Y182166D01*
X332509Y182075D01*
X332521Y182045D01*
X332526Y182013D01*
X332569Y181932D01*
X332605Y181849D01*
X332631Y181816D01*
X332642Y181796D01*
X332665Y181774D01*
X332710Y181718D01*
X334745Y179683D01*
X334745Y175917D01*
X332710Y173882D01*
X332657Y173809D01*
X332597Y173739D01*
X332585Y173709D01*
X332566Y173683D01*
X332539Y173596D01*
X332505Y173511D01*
X332501Y173470D01*
X332494Y173448D01*
X332495Y173415D01*
X332487Y173344D01*
X332487Y164153D01*
X254947Y86613D01*
X227653Y86613D01*
G37*
%LPD*%
%LPC*%
G36*
X226717Y122455D02*
X226717Y122455D01*
X224055Y125117D01*
X224055Y128883D01*
X226090Y130918D01*
X226143Y130991D01*
X226203Y131061D01*
X226215Y131091D01*
X226234Y131117D01*
X226261Y131204D01*
X226295Y131289D01*
X226299Y131330D01*
X226306Y131352D01*
X226305Y131385D01*
X226313Y131456D01*
X226313Y224144D01*
X226299Y224234D01*
X226291Y224325D01*
X226279Y224355D01*
X226274Y224387D01*
X226231Y224468D01*
X226195Y224551D01*
X226169Y224584D01*
X226158Y224604D01*
X226135Y224626D01*
X226090Y224682D01*
X224055Y226717D01*
X224055Y230483D01*
X226090Y232518D01*
X226143Y232591D01*
X226203Y232661D01*
X226215Y232691D01*
X226234Y232717D01*
X226261Y232804D01*
X226295Y232889D01*
X226299Y232930D01*
X226306Y232952D01*
X226305Y232985D01*
X226313Y233056D01*
X226313Y325744D01*
X226299Y325834D01*
X226291Y325925D01*
X226279Y325955D01*
X226274Y325987D01*
X226231Y326068D01*
X226195Y326151D01*
X226169Y326184D01*
X226158Y326204D01*
X226135Y326226D01*
X226090Y326282D01*
X224055Y328317D01*
X224055Y332083D01*
X226090Y334118D01*
X226143Y334191D01*
X226203Y334261D01*
X226215Y334291D01*
X226234Y334317D01*
X226261Y334404D01*
X226295Y334489D01*
X226299Y334530D01*
X226306Y334552D01*
X226305Y334585D01*
X226313Y334656D01*
X226313Y411742D01*
X226302Y411812D01*
X226300Y411884D01*
X226282Y411933D01*
X226274Y411984D01*
X226240Y412048D01*
X226215Y412115D01*
X226183Y412156D01*
X226158Y412202D01*
X226107Y412251D01*
X226062Y412307D01*
X226018Y412335D01*
X225980Y412371D01*
X225915Y412401D01*
X225855Y412440D01*
X225804Y412453D01*
X225757Y412475D01*
X225686Y412483D01*
X225616Y412500D01*
X225564Y412496D01*
X225513Y412502D01*
X225442Y412487D01*
X225371Y412481D01*
X225323Y412461D01*
X225272Y412450D01*
X225211Y412413D01*
X225145Y412385D01*
X225089Y412340D01*
X225061Y412323D01*
X225046Y412306D01*
X225014Y412280D01*
X164723Y351989D01*
X164696Y351952D01*
X164663Y351921D01*
X164625Y351853D01*
X164580Y351790D01*
X164566Y351746D01*
X164544Y351705D01*
X164530Y351629D01*
X164507Y351555D01*
X164509Y351509D01*
X164500Y351463D01*
X164512Y351386D01*
X164514Y351309D01*
X164529Y351265D01*
X164536Y351220D01*
X164571Y351151D01*
X164598Y351078D01*
X164627Y351042D01*
X164648Y351001D01*
X164703Y350946D01*
X164752Y350886D01*
X164791Y350861D01*
X164823Y350829D01*
X164943Y350763D01*
X164959Y350753D01*
X164964Y350751D01*
X164970Y350748D01*
X165200Y350653D01*
X167773Y348080D01*
X169165Y344719D01*
X169165Y341081D01*
X167773Y337720D01*
X165200Y335147D01*
X161839Y333755D01*
X142961Y333755D01*
X139600Y335147D01*
X137027Y337720D01*
X135635Y341081D01*
X135635Y344719D01*
X137027Y348080D01*
X139600Y350653D01*
X142961Y352045D01*
X157995Y352045D01*
X158086Y352059D01*
X158176Y352067D01*
X158206Y352079D01*
X158238Y352084D01*
X158319Y352127D01*
X158403Y352163D01*
X158435Y352189D01*
X158456Y352200D01*
X158478Y352223D01*
X158534Y352268D01*
X165248Y358982D01*
X165305Y359061D01*
X165367Y359136D01*
X165377Y359161D01*
X165392Y359182D01*
X165420Y359275D01*
X165455Y359366D01*
X165457Y359392D01*
X165464Y359417D01*
X165462Y359514D01*
X165466Y359612D01*
X165459Y359637D01*
X165458Y359663D01*
X165424Y359755D01*
X165397Y359848D01*
X165382Y359869D01*
X165373Y359894D01*
X165312Y359970D01*
X165257Y360050D01*
X165236Y360066D01*
X165220Y360086D01*
X165138Y360139D01*
X165060Y360197D01*
X165035Y360205D01*
X165013Y360219D01*
X164918Y360243D01*
X164826Y360273D01*
X164800Y360273D01*
X164774Y360279D01*
X164677Y360272D01*
X164580Y360271D01*
X164548Y360261D01*
X164529Y360260D01*
X164499Y360247D01*
X164419Y360224D01*
X161839Y359155D01*
X142961Y359155D01*
X139600Y360547D01*
X137027Y363120D01*
X135635Y366481D01*
X135635Y370119D01*
X137027Y373480D01*
X139600Y376053D01*
X142961Y377445D01*
X161839Y377445D01*
X165200Y376053D01*
X167773Y373480D01*
X169165Y370119D01*
X169165Y366481D01*
X168096Y363901D01*
X168074Y363806D01*
X168045Y363713D01*
X168046Y363687D01*
X168040Y363662D01*
X168049Y363565D01*
X168052Y363468D01*
X168061Y363443D01*
X168063Y363417D01*
X168103Y363328D01*
X168136Y363237D01*
X168152Y363216D01*
X168163Y363192D01*
X168229Y363121D01*
X168290Y363044D01*
X168312Y363030D01*
X168329Y363011D01*
X168415Y362964D01*
X168497Y362911D01*
X168522Y362905D01*
X168545Y362892D01*
X168641Y362875D01*
X168735Y362851D01*
X168761Y362853D01*
X168787Y362849D01*
X168884Y362863D01*
X168980Y362871D01*
X169004Y362881D01*
X169030Y362885D01*
X169117Y362929D01*
X169207Y362967D01*
X169232Y362987D01*
X169250Y362996D01*
X169273Y363020D01*
X169338Y363072D01*
X226090Y419824D01*
X226143Y419898D01*
X226203Y419968D01*
X226215Y419998D01*
X226234Y420024D01*
X226261Y420111D01*
X226295Y420196D01*
X226299Y420237D01*
X226306Y420259D01*
X226305Y420291D01*
X226313Y420363D01*
X226313Y427344D01*
X226310Y427362D01*
X226312Y427379D01*
X226297Y427447D01*
X226291Y427525D01*
X226279Y427555D01*
X226274Y427587D01*
X226263Y427607D01*
X226260Y427620D01*
X226229Y427671D01*
X226195Y427751D01*
X226169Y427784D01*
X226158Y427804D01*
X226138Y427823D01*
X226134Y427831D01*
X226127Y427837D01*
X226090Y427882D01*
X224055Y429917D01*
X224055Y433683D01*
X226090Y435718D01*
X226143Y435791D01*
X226203Y435861D01*
X226215Y435891D01*
X226234Y435917D01*
X226261Y436004D01*
X226295Y436089D01*
X226299Y436130D01*
X226306Y436152D01*
X226305Y436185D01*
X226313Y436256D01*
X226313Y528944D01*
X226299Y529034D01*
X226291Y529125D01*
X226279Y529155D01*
X226274Y529187D01*
X226231Y529268D01*
X226195Y529351D01*
X226169Y529384D01*
X226158Y529404D01*
X226135Y529426D01*
X226090Y529482D01*
X224055Y531517D01*
X224055Y535283D01*
X226717Y537945D01*
X230483Y537945D01*
X233145Y535283D01*
X233145Y531517D01*
X231110Y529482D01*
X231057Y529409D01*
X230997Y529339D01*
X230985Y529309D01*
X230966Y529283D01*
X230939Y529196D01*
X230905Y529111D01*
X230901Y529070D01*
X230894Y529048D01*
X230895Y529015D01*
X230887Y528944D01*
X230887Y436256D01*
X230901Y436166D01*
X230909Y436075D01*
X230921Y436045D01*
X230926Y436013D01*
X230969Y435932D01*
X231005Y435849D01*
X231031Y435816D01*
X231042Y435796D01*
X231065Y435774D01*
X231110Y435718D01*
X233145Y433683D01*
X233145Y429917D01*
X231110Y427882D01*
X231057Y427809D01*
X231054Y427805D01*
X231018Y427768D01*
X231014Y427759D01*
X230997Y427739D01*
X230985Y427709D01*
X230966Y427683D01*
X230941Y427602D01*
X230915Y427545D01*
X230913Y427531D01*
X230905Y427511D01*
X230901Y427470D01*
X230894Y427448D01*
X230895Y427415D01*
X230887Y427344D01*
X230887Y334656D01*
X230901Y334566D01*
X230909Y334475D01*
X230921Y334445D01*
X230926Y334413D01*
X230969Y334332D01*
X231005Y334249D01*
X231031Y334216D01*
X231042Y334196D01*
X231065Y334174D01*
X231110Y334118D01*
X233145Y332083D01*
X233145Y328317D01*
X231110Y326282D01*
X231057Y326209D01*
X230997Y326139D01*
X230985Y326109D01*
X230966Y326083D01*
X230939Y325996D01*
X230905Y325911D01*
X230901Y325870D01*
X230894Y325848D01*
X230895Y325815D01*
X230887Y325744D01*
X230887Y233056D01*
X230901Y232966D01*
X230909Y232875D01*
X230921Y232845D01*
X230926Y232813D01*
X230969Y232732D01*
X231005Y232649D01*
X231031Y232616D01*
X231042Y232596D01*
X231065Y232574D01*
X231110Y232518D01*
X233145Y230483D01*
X233145Y226717D01*
X231110Y224682D01*
X231057Y224609D01*
X230997Y224539D01*
X230985Y224509D01*
X230966Y224483D01*
X230939Y224396D01*
X230905Y224311D01*
X230901Y224270D01*
X230894Y224248D01*
X230895Y224215D01*
X230887Y224144D01*
X230887Y131456D01*
X230901Y131366D01*
X230909Y131275D01*
X230921Y131245D01*
X230926Y131213D01*
X230969Y131132D01*
X231005Y131049D01*
X231031Y131016D01*
X231042Y130996D01*
X231065Y130974D01*
X231110Y130918D01*
X233145Y128883D01*
X233145Y125117D01*
X230483Y122455D01*
X226717Y122455D01*
G37*
%LPD*%
%LPC*%
G36*
X351608Y640333D02*
X351608Y640333D01*
X344233Y643388D01*
X338588Y649033D01*
X335533Y656408D01*
X335533Y664392D01*
X338588Y671767D01*
X344233Y677412D01*
X351608Y680467D01*
X359592Y680467D01*
X366967Y677412D01*
X372612Y671767D01*
X375667Y664392D01*
X375667Y656408D01*
X372612Y649033D01*
X366967Y643388D01*
X359592Y640333D01*
X351608Y640333D01*
G37*
%LPD*%
%LPC*%
G36*
X173808Y640333D02*
X173808Y640333D01*
X166433Y643388D01*
X160788Y649033D01*
X157733Y656408D01*
X157733Y664392D01*
X160788Y671767D01*
X166433Y677412D01*
X173808Y680467D01*
X181792Y680467D01*
X189167Y677412D01*
X194812Y671767D01*
X197867Y664392D01*
X197867Y656408D01*
X194812Y649033D01*
X189167Y643388D01*
X181792Y640333D01*
X173808Y640333D01*
G37*
%LPD*%
%LPC*%
G36*
X173808Y30733D02*
X173808Y30733D01*
X166433Y33788D01*
X160788Y39433D01*
X157733Y46808D01*
X157733Y54792D01*
X160788Y62167D01*
X166433Y67812D01*
X173808Y70867D01*
X181792Y70867D01*
X189167Y67812D01*
X194812Y62167D01*
X197867Y54792D01*
X197867Y46808D01*
X194812Y39433D01*
X189167Y33788D01*
X181792Y30733D01*
X173808Y30733D01*
G37*
%LPD*%
%LPC*%
G36*
X351608Y30733D02*
X351608Y30733D01*
X344233Y33788D01*
X338588Y39433D01*
X335533Y46808D01*
X335533Y54792D01*
X338588Y62167D01*
X344233Y67812D01*
X351608Y70867D01*
X359592Y70867D01*
X366967Y67812D01*
X372612Y62167D01*
X375667Y54792D01*
X375667Y46808D01*
X372612Y39433D01*
X366967Y33788D01*
X359592Y30733D01*
X351608Y30733D01*
G37*
%LPD*%
%LPC*%
G36*
X371561Y206755D02*
X371561Y206755D01*
X368200Y208147D01*
X365627Y210720D01*
X364235Y214081D01*
X364235Y217719D01*
X365627Y221080D01*
X368200Y223653D01*
X371561Y225045D01*
X390439Y225045D01*
X393800Y223653D01*
X396373Y221080D01*
X397765Y217719D01*
X397765Y214081D01*
X396373Y210720D01*
X393800Y208147D01*
X390439Y206755D01*
X371561Y206755D01*
G37*
%LPD*%
%LPC*%
G36*
X142961Y206755D02*
X142961Y206755D01*
X139600Y208147D01*
X137027Y210720D01*
X135635Y214081D01*
X135635Y217719D01*
X137027Y221080D01*
X139600Y223653D01*
X142961Y225045D01*
X161839Y225045D01*
X165200Y223653D01*
X167773Y221080D01*
X169165Y217719D01*
X169165Y214081D01*
X167773Y210720D01*
X165200Y208147D01*
X161839Y206755D01*
X142961Y206755D01*
G37*
%LPD*%
%LPC*%
G36*
X371561Y181355D02*
X371561Y181355D01*
X368200Y182747D01*
X365627Y185320D01*
X364235Y188681D01*
X364235Y192319D01*
X365627Y195680D01*
X368200Y198253D01*
X371561Y199645D01*
X390439Y199645D01*
X393800Y198253D01*
X396373Y195680D01*
X397765Y192319D01*
X397765Y188681D01*
X396373Y185320D01*
X393800Y182747D01*
X390439Y181355D01*
X371561Y181355D01*
G37*
%LPD*%
%LPC*%
G36*
X371561Y308355D02*
X371561Y308355D01*
X368200Y309747D01*
X365627Y312320D01*
X364235Y315681D01*
X364235Y319319D01*
X365627Y322680D01*
X368200Y325253D01*
X371561Y326645D01*
X390439Y326645D01*
X393800Y325253D01*
X396373Y322680D01*
X397765Y319319D01*
X397765Y315681D01*
X396373Y312320D01*
X393800Y309747D01*
X390439Y308355D01*
X371561Y308355D01*
G37*
%LPD*%
%LPC*%
G36*
X371561Y587755D02*
X371561Y587755D01*
X368200Y589147D01*
X365627Y591720D01*
X364235Y595081D01*
X364235Y598719D01*
X365627Y602080D01*
X368200Y604653D01*
X371561Y606045D01*
X390439Y606045D01*
X393800Y604653D01*
X396373Y602080D01*
X397765Y598719D01*
X397765Y595081D01*
X396373Y591720D01*
X393800Y589147D01*
X390439Y587755D01*
X371561Y587755D01*
G37*
%LPD*%
%LPC*%
G36*
X371561Y155955D02*
X371561Y155955D01*
X368200Y157347D01*
X365627Y159920D01*
X364235Y163281D01*
X364235Y166919D01*
X365627Y170280D01*
X368200Y172853D01*
X371561Y174245D01*
X390439Y174245D01*
X393800Y172853D01*
X396373Y170280D01*
X397765Y166919D01*
X397765Y163281D01*
X396373Y159920D01*
X393800Y157347D01*
X390439Y155955D01*
X371561Y155955D01*
G37*
%LPD*%
%LPC*%
G36*
X371561Y562355D02*
X371561Y562355D01*
X368200Y563747D01*
X365627Y566320D01*
X364235Y569681D01*
X364235Y573319D01*
X365627Y576680D01*
X368200Y579253D01*
X371561Y580645D01*
X390439Y580645D01*
X393800Y579253D01*
X396373Y576680D01*
X397765Y573319D01*
X397765Y569681D01*
X396373Y566320D01*
X393800Y563747D01*
X390439Y562355D01*
X371561Y562355D01*
G37*
%LPD*%
%LPC*%
G36*
X142961Y155955D02*
X142961Y155955D01*
X139600Y157347D01*
X137027Y159920D01*
X135635Y163281D01*
X135635Y166919D01*
X137027Y170280D01*
X139600Y172853D01*
X142961Y174245D01*
X161839Y174245D01*
X165200Y172853D01*
X167773Y170280D01*
X169165Y166919D01*
X169165Y163281D01*
X167773Y159920D01*
X165200Y157347D01*
X161839Y155955D01*
X142961Y155955D01*
G37*
%LPD*%
%LPC*%
G36*
X371561Y130555D02*
X371561Y130555D01*
X368200Y131947D01*
X365627Y134520D01*
X364235Y137881D01*
X364235Y141519D01*
X365627Y144880D01*
X368200Y147453D01*
X371561Y148845D01*
X390439Y148845D01*
X393800Y147453D01*
X396373Y144880D01*
X397765Y141519D01*
X397765Y137881D01*
X396373Y134520D01*
X393800Y131947D01*
X390439Y130555D01*
X371561Y130555D01*
G37*
%LPD*%
%LPC*%
G36*
X142961Y130555D02*
X142961Y130555D01*
X139600Y131947D01*
X137027Y134520D01*
X135635Y137881D01*
X135635Y141519D01*
X137027Y144880D01*
X139600Y147453D01*
X142961Y148845D01*
X161839Y148845D01*
X165200Y147453D01*
X167773Y144880D01*
X169165Y141519D01*
X169165Y137881D01*
X167773Y134520D01*
X165200Y131947D01*
X161839Y130555D01*
X142961Y130555D01*
G37*
%LPD*%
%LPC*%
G36*
X371561Y105155D02*
X371561Y105155D01*
X368200Y106547D01*
X365627Y109120D01*
X364235Y112481D01*
X364235Y116119D01*
X365627Y119480D01*
X368200Y122053D01*
X371561Y123445D01*
X390439Y123445D01*
X393800Y122053D01*
X396373Y119480D01*
X397765Y116119D01*
X397765Y112481D01*
X396373Y109120D01*
X393800Y106547D01*
X390439Y105155D01*
X371561Y105155D01*
G37*
%LPD*%
%LPC*%
G36*
X371561Y511555D02*
X371561Y511555D01*
X368200Y512947D01*
X365627Y515520D01*
X364235Y518881D01*
X364235Y522519D01*
X365627Y525880D01*
X368200Y528453D01*
X371561Y529845D01*
X390439Y529845D01*
X393800Y528453D01*
X396373Y525880D01*
X397765Y522519D01*
X397765Y518881D01*
X396373Y515520D01*
X393800Y512947D01*
X390439Y511555D01*
X371561Y511555D01*
G37*
%LPD*%
%LPC*%
G36*
X142961Y105155D02*
X142961Y105155D01*
X139600Y106547D01*
X137027Y109120D01*
X135635Y112481D01*
X135635Y116119D01*
X137027Y119480D01*
X139600Y122053D01*
X142961Y123445D01*
X161839Y123445D01*
X165200Y122053D01*
X167773Y119480D01*
X169165Y116119D01*
X169165Y112481D01*
X167773Y109120D01*
X165200Y106547D01*
X161839Y105155D01*
X142961Y105155D01*
G37*
%LPD*%
%LPC*%
G36*
X142961Y409955D02*
X142961Y409955D01*
X139600Y411347D01*
X137027Y413920D01*
X135635Y417281D01*
X135635Y420919D01*
X137027Y424280D01*
X139600Y426853D01*
X142961Y428245D01*
X161839Y428245D01*
X165200Y426853D01*
X167773Y424280D01*
X169165Y420919D01*
X169165Y417281D01*
X167773Y413920D01*
X165200Y411347D01*
X161839Y409955D01*
X142961Y409955D01*
G37*
%LPD*%
%LPC*%
G36*
X371561Y486155D02*
X371561Y486155D01*
X368200Y487547D01*
X365627Y490120D01*
X364235Y493481D01*
X364235Y497119D01*
X365627Y500480D01*
X368200Y503053D01*
X371561Y504445D01*
X390439Y504445D01*
X393800Y503053D01*
X396373Y500480D01*
X397765Y497119D01*
X397765Y493481D01*
X396373Y490120D01*
X393800Y487547D01*
X390439Y486155D01*
X371561Y486155D01*
G37*
%LPD*%
%LPC*%
G36*
X142961Y486155D02*
X142961Y486155D01*
X139600Y487547D01*
X137027Y490120D01*
X135635Y493481D01*
X135635Y497119D01*
X137027Y500480D01*
X139600Y503053D01*
X142961Y504445D01*
X161839Y504445D01*
X165200Y503053D01*
X167773Y500480D01*
X169165Y497119D01*
X169165Y493481D01*
X167773Y490120D01*
X165200Y487547D01*
X161839Y486155D01*
X142961Y486155D01*
G37*
%LPD*%
%LPC*%
G36*
X371561Y460755D02*
X371561Y460755D01*
X368200Y462147D01*
X365627Y464720D01*
X364235Y468081D01*
X364235Y471719D01*
X365627Y475080D01*
X368200Y477653D01*
X371561Y479045D01*
X390439Y479045D01*
X393800Y477653D01*
X396373Y475080D01*
X397765Y471719D01*
X397765Y468081D01*
X396373Y464720D01*
X393800Y462147D01*
X390439Y460755D01*
X371561Y460755D01*
G37*
%LPD*%
%LPC*%
G36*
X142961Y460755D02*
X142961Y460755D01*
X139600Y462147D01*
X137027Y464720D01*
X135635Y468081D01*
X135635Y471719D01*
X137027Y475080D01*
X139600Y477653D01*
X142961Y479045D01*
X161839Y479045D01*
X165200Y477653D01*
X167773Y475080D01*
X169165Y471719D01*
X169165Y468081D01*
X167773Y464720D01*
X165200Y462147D01*
X161839Y460755D01*
X142961Y460755D01*
G37*
%LPD*%
%LPC*%
G36*
X142961Y435355D02*
X142961Y435355D01*
X139600Y436747D01*
X137027Y439320D01*
X135635Y442681D01*
X135635Y446319D01*
X137027Y449680D01*
X139600Y452253D01*
X142961Y453645D01*
X161839Y453645D01*
X165200Y452253D01*
X167773Y449680D01*
X169165Y446319D01*
X169165Y442681D01*
X167773Y439320D01*
X165200Y436747D01*
X161839Y435355D01*
X142961Y435355D01*
G37*
%LPD*%
%LPC*%
G36*
X371561Y435355D02*
X371561Y435355D01*
X368200Y436747D01*
X365627Y439320D01*
X364235Y442681D01*
X364235Y446319D01*
X365627Y449680D01*
X368200Y452253D01*
X371561Y453645D01*
X390439Y453645D01*
X393800Y452253D01*
X396373Y449680D01*
X397765Y446319D01*
X397765Y442681D01*
X396373Y439320D01*
X393800Y436747D01*
X390439Y435355D01*
X371561Y435355D01*
G37*
%LPD*%
%LPC*%
G36*
X142961Y181355D02*
X142961Y181355D01*
X139600Y182747D01*
X137027Y185320D01*
X135635Y188681D01*
X135635Y192319D01*
X137027Y195680D01*
X139600Y198253D01*
X142961Y199645D01*
X161839Y199645D01*
X165200Y198253D01*
X167773Y195680D01*
X169165Y192319D01*
X169165Y188681D01*
X167773Y185320D01*
X165200Y182747D01*
X161839Y181355D01*
X142961Y181355D01*
G37*
%LPD*%
%LPC*%
G36*
X371561Y409955D02*
X371561Y409955D01*
X368200Y411347D01*
X365627Y413920D01*
X364235Y417281D01*
X364235Y420919D01*
X365627Y424280D01*
X368200Y426853D01*
X371561Y428245D01*
X390439Y428245D01*
X393800Y426853D01*
X396373Y424280D01*
X397765Y420919D01*
X397765Y417281D01*
X396373Y413920D01*
X393800Y411347D01*
X390439Y409955D01*
X371561Y409955D01*
G37*
%LPD*%
%LPC*%
G36*
X371561Y384555D02*
X371561Y384555D01*
X368200Y385947D01*
X365627Y388520D01*
X364235Y391881D01*
X364235Y395519D01*
X365627Y398880D01*
X368200Y401453D01*
X371561Y402845D01*
X390439Y402845D01*
X393800Y401453D01*
X396373Y398880D01*
X397765Y395519D01*
X397765Y391881D01*
X396373Y388520D01*
X393800Y385947D01*
X390439Y384555D01*
X371561Y384555D01*
G37*
%LPD*%
%LPC*%
G36*
X142961Y384555D02*
X142961Y384555D01*
X139600Y385947D01*
X137027Y388520D01*
X135635Y391881D01*
X135635Y395519D01*
X137027Y398880D01*
X139600Y401453D01*
X142961Y402845D01*
X161839Y402845D01*
X165200Y401453D01*
X167773Y398880D01*
X169165Y395519D01*
X169165Y391881D01*
X167773Y388520D01*
X165200Y385947D01*
X161839Y384555D01*
X142961Y384555D01*
G37*
%LPD*%
%LPC*%
G36*
X371561Y359155D02*
X371561Y359155D01*
X368200Y360547D01*
X365627Y363120D01*
X364235Y366481D01*
X364235Y370119D01*
X365627Y373480D01*
X368200Y376053D01*
X371561Y377445D01*
X390439Y377445D01*
X393800Y376053D01*
X396373Y373480D01*
X397765Y370119D01*
X397765Y366481D01*
X396373Y363120D01*
X393800Y360547D01*
X390439Y359155D01*
X371561Y359155D01*
G37*
%LPD*%
%LPC*%
G36*
X371561Y333755D02*
X371561Y333755D01*
X368200Y335147D01*
X365627Y337720D01*
X364235Y341081D01*
X364235Y344719D01*
X365627Y348080D01*
X368200Y350653D01*
X371561Y352045D01*
X390439Y352045D01*
X393800Y350653D01*
X396373Y348080D01*
X397765Y344719D01*
X397765Y341081D01*
X396373Y337720D01*
X393800Y335147D01*
X390439Y333755D01*
X371561Y333755D01*
G37*
%LPD*%
%LPC*%
G36*
X371561Y282955D02*
X371561Y282955D01*
X368200Y284347D01*
X365627Y286920D01*
X364235Y290281D01*
X364235Y293919D01*
X365627Y297280D01*
X368200Y299853D01*
X371561Y301245D01*
X390439Y301245D01*
X393800Y299853D01*
X396373Y297280D01*
X397765Y293919D01*
X397765Y290281D01*
X396373Y286920D01*
X393800Y284347D01*
X390439Y282955D01*
X371561Y282955D01*
G37*
%LPD*%
%LPC*%
G36*
X371561Y257555D02*
X371561Y257555D01*
X368200Y258947D01*
X365627Y261520D01*
X364235Y264881D01*
X364235Y268519D01*
X365627Y271880D01*
X368200Y274453D01*
X371561Y275845D01*
X390439Y275845D01*
X393800Y274453D01*
X396373Y271880D01*
X397765Y268519D01*
X397765Y264881D01*
X396373Y261520D01*
X393800Y258947D01*
X390439Y257555D01*
X371561Y257555D01*
G37*
%LPD*%
%LPC*%
G36*
X371561Y232155D02*
X371561Y232155D01*
X368200Y233547D01*
X365627Y236120D01*
X364235Y239481D01*
X364235Y243119D01*
X365627Y246480D01*
X368200Y249053D01*
X371561Y250445D01*
X390439Y250445D01*
X393800Y249053D01*
X396373Y246480D01*
X397765Y243119D01*
X397765Y239481D01*
X396373Y236120D01*
X393800Y233547D01*
X390439Y232155D01*
X371561Y232155D01*
G37*
%LPD*%
%LPC*%
G36*
X447905Y689475D02*
X447905Y689475D01*
X444588Y690849D01*
X442049Y693388D01*
X440675Y696705D01*
X440675Y700295D01*
X442049Y703612D01*
X444588Y706151D01*
X447905Y707525D01*
X466495Y707525D01*
X469812Y706151D01*
X472351Y703612D01*
X473725Y700295D01*
X473725Y696705D01*
X472351Y693388D01*
X469812Y690849D01*
X466495Y689475D01*
X447905Y689475D01*
G37*
%LPD*%
%LPC*%
G36*
X447905Y664075D02*
X447905Y664075D01*
X444588Y665449D01*
X442049Y667988D01*
X440675Y671305D01*
X440675Y674895D01*
X442049Y678212D01*
X444588Y680751D01*
X447905Y682125D01*
X466495Y682125D01*
X469812Y680751D01*
X472351Y678212D01*
X473725Y674895D01*
X473725Y671305D01*
X472351Y667988D01*
X469812Y665449D01*
X466495Y664075D01*
X447905Y664075D01*
G37*
%LPD*%
%LPC*%
G36*
X447905Y638675D02*
X447905Y638675D01*
X444588Y640049D01*
X442049Y642588D01*
X440675Y645905D01*
X440675Y649495D01*
X442049Y652812D01*
X444588Y655351D01*
X447905Y656725D01*
X466495Y656725D01*
X469812Y655351D01*
X472351Y652812D01*
X473725Y649495D01*
X473725Y645905D01*
X472351Y642588D01*
X469812Y640049D01*
X466495Y638675D01*
X447905Y638675D01*
G37*
%LPD*%
%LPC*%
G36*
X447905Y587875D02*
X447905Y587875D01*
X444588Y589249D01*
X442049Y591788D01*
X440675Y595105D01*
X440675Y598695D01*
X442049Y602012D01*
X444588Y604551D01*
X447905Y605925D01*
X466495Y605925D01*
X469812Y604551D01*
X472351Y602012D01*
X473725Y598695D01*
X473725Y595105D01*
X472351Y591788D01*
X469812Y589249D01*
X466495Y587875D01*
X447905Y587875D01*
G37*
%LPD*%
%LPC*%
G36*
X447905Y562475D02*
X447905Y562475D01*
X444588Y563849D01*
X442049Y566388D01*
X440675Y569705D01*
X440675Y573295D01*
X442049Y576612D01*
X444588Y579151D01*
X447905Y580525D01*
X466495Y580525D01*
X469812Y579151D01*
X472351Y576612D01*
X473725Y573295D01*
X473725Y569705D01*
X472351Y566388D01*
X469812Y563849D01*
X466495Y562475D01*
X447905Y562475D01*
G37*
%LPD*%
%LPC*%
G36*
X447905Y613275D02*
X447905Y613275D01*
X444588Y614649D01*
X442049Y617188D01*
X440675Y620505D01*
X440675Y624095D01*
X442049Y627412D01*
X444588Y629951D01*
X447905Y631325D01*
X466495Y631325D01*
X469812Y629951D01*
X472351Y627412D01*
X473725Y624095D01*
X473725Y620505D01*
X472351Y617188D01*
X469812Y614649D01*
X466495Y613275D01*
X447905Y613275D01*
G37*
%LPD*%
%LPC*%
G36*
X153923Y522223D02*
X153923Y522223D01*
X153923Y530861D01*
X160820Y530861D01*
X162399Y530611D01*
X163920Y530116D01*
X165345Y529390D01*
X166639Y528450D01*
X167770Y527319D01*
X168710Y526025D01*
X169436Y524600D01*
X169931Y523079D01*
X170066Y522223D01*
X153923Y522223D01*
G37*
%LPD*%
%LPC*%
G36*
X134734Y522223D02*
X134734Y522223D01*
X134869Y523079D01*
X135364Y524600D01*
X136090Y526025D01*
X137030Y527319D01*
X138161Y528450D01*
X139455Y529390D01*
X140880Y530116D01*
X142401Y530611D01*
X143980Y530861D01*
X150877Y530861D01*
X150877Y522223D01*
X134734Y522223D01*
G37*
%LPD*%
%LPC*%
G36*
X153923Y510539D02*
X153923Y510539D01*
X153923Y519177D01*
X170066Y519177D01*
X169931Y518321D01*
X169436Y516800D01*
X168710Y515375D01*
X167770Y514081D01*
X166639Y512950D01*
X165345Y512010D01*
X163920Y511284D01*
X162399Y510789D01*
X160820Y510539D01*
X153923Y510539D01*
G37*
%LPD*%
%LPC*%
G36*
X143980Y510539D02*
X143980Y510539D01*
X142401Y510789D01*
X140880Y511284D01*
X139455Y512010D01*
X138161Y512950D01*
X137030Y514081D01*
X136090Y515375D01*
X135364Y516800D01*
X134869Y518321D01*
X134734Y519177D01*
X150877Y519177D01*
X150877Y510539D01*
X143980Y510539D01*
G37*
%LPD*%
%LPC*%
G36*
X458723Y522223D02*
X458723Y522223D01*
X458723Y530741D01*
X465490Y530741D01*
X467051Y530494D01*
X468554Y530005D01*
X469963Y529288D01*
X471241Y528359D01*
X472359Y527241D01*
X473288Y525963D01*
X474005Y524554D01*
X474494Y523051D01*
X474625Y522223D01*
X458723Y522223D01*
G37*
%LPD*%
%LPC*%
G36*
X458723Y115823D02*
X458723Y115823D01*
X458723Y124341D01*
X465490Y124341D01*
X467051Y124094D01*
X468554Y123605D01*
X469963Y122888D01*
X471241Y121959D01*
X472359Y120841D01*
X473288Y119563D01*
X474005Y118154D01*
X474494Y116651D01*
X474625Y115823D01*
X458723Y115823D01*
G37*
%LPD*%
%LPC*%
G36*
X458723Y319023D02*
X458723Y319023D01*
X458723Y327541D01*
X465490Y327541D01*
X467051Y327294D01*
X468554Y326805D01*
X469963Y326088D01*
X471241Y325159D01*
X472359Y324041D01*
X473288Y322763D01*
X474005Y321354D01*
X474494Y319851D01*
X474625Y319023D01*
X458723Y319023D01*
G37*
%LPD*%
%LPC*%
G36*
X439775Y115823D02*
X439775Y115823D01*
X439906Y116651D01*
X440395Y118154D01*
X441112Y119563D01*
X442041Y120841D01*
X443159Y121959D01*
X444437Y122888D01*
X445846Y123605D01*
X447349Y124094D01*
X448910Y124341D01*
X455677Y124341D01*
X455677Y115823D01*
X439775Y115823D01*
G37*
%LPD*%
%LPC*%
G36*
X458723Y307459D02*
X458723Y307459D01*
X458723Y315977D01*
X474625Y315977D01*
X474494Y315149D01*
X474005Y313646D01*
X473288Y312237D01*
X472359Y310959D01*
X471241Y309841D01*
X469963Y308912D01*
X468554Y308195D01*
X467051Y307706D01*
X465490Y307459D01*
X458723Y307459D01*
G37*
%LPD*%
%LPC*%
G36*
X458723Y104259D02*
X458723Y104259D01*
X458723Y112777D01*
X474625Y112777D01*
X474494Y111949D01*
X474005Y110446D01*
X473288Y109037D01*
X472359Y107759D01*
X471241Y106641D01*
X469963Y105712D01*
X468554Y104995D01*
X467051Y104506D01*
X465490Y104259D01*
X458723Y104259D01*
G37*
%LPD*%
%LPC*%
G36*
X458723Y510659D02*
X458723Y510659D01*
X458723Y519177D01*
X474625Y519177D01*
X474494Y518349D01*
X474005Y516846D01*
X473288Y515437D01*
X472359Y514159D01*
X471241Y513041D01*
X469963Y512112D01*
X468554Y511395D01*
X467051Y510906D01*
X465490Y510659D01*
X458723Y510659D01*
G37*
%LPD*%
%LPC*%
G36*
X448910Y104259D02*
X448910Y104259D01*
X447349Y104506D01*
X445846Y104995D01*
X444437Y105712D01*
X443159Y106641D01*
X442041Y107759D01*
X441112Y109037D01*
X440395Y110446D01*
X439906Y111949D01*
X439775Y112777D01*
X455677Y112777D01*
X455677Y104259D01*
X448910Y104259D01*
G37*
%LPD*%
%LPC*%
G36*
X152399Y520699D02*
X152399Y520699D01*
X152399Y520701D01*
X152401Y520701D01*
X152401Y520699D01*
X152399Y520699D01*
G37*
%LPD*%
%LPC*%
G36*
X457199Y114299D02*
X457199Y114299D01*
X457199Y114301D01*
X457201Y114301D01*
X457201Y114299D01*
X457199Y114299D01*
G37*
%LPD*%
D10*
X449700Y292100D02*
X464700Y292100D01*
X464700Y266700D02*
X449700Y266700D01*
X449700Y241300D02*
X464700Y241300D01*
X464700Y215900D02*
X449700Y215900D01*
X449700Y190500D02*
X464700Y190500D01*
X464700Y165100D02*
X449700Y165100D01*
X449700Y139700D02*
X464700Y139700D01*
X464700Y114300D02*
X449700Y114300D01*
X449700Y495300D02*
X464700Y495300D01*
X464700Y469900D02*
X449700Y469900D01*
X449700Y444500D02*
X464700Y444500D01*
X464700Y419100D02*
X449700Y419100D01*
X449700Y393700D02*
X464700Y393700D01*
X464700Y368300D02*
X449700Y368300D01*
X449700Y342900D02*
X464700Y342900D01*
X464700Y317500D02*
X449700Y317500D01*
X449700Y698500D02*
X464700Y698500D01*
X464700Y673100D02*
X449700Y673100D01*
X449700Y647700D02*
X464700Y647700D01*
X464700Y622300D02*
X449700Y622300D01*
X449700Y596900D02*
X464700Y596900D01*
X464700Y571500D02*
X449700Y571500D01*
X449700Y546100D02*
X464700Y546100D01*
X464700Y520700D02*
X449700Y520700D01*
D11*
X160020Y546100D02*
X144780Y546100D01*
X144780Y571500D02*
X160020Y571500D01*
X160020Y596900D02*
X144780Y596900D01*
X144780Y520700D02*
X160020Y520700D01*
X160020Y495300D02*
X144780Y495300D01*
X144780Y469900D02*
X160020Y469900D01*
X160020Y444500D02*
X144780Y444500D01*
X144780Y419100D02*
X160020Y419100D01*
X160020Y393700D02*
X144780Y393700D01*
X144780Y368300D02*
X160020Y368300D01*
X160020Y342900D02*
X144780Y342900D01*
X144780Y317500D02*
X160020Y317500D01*
X160020Y292100D02*
X144780Y292100D01*
X144780Y266700D02*
X160020Y266700D01*
X160020Y241300D02*
X144780Y241300D01*
X144780Y215900D02*
X160020Y215900D01*
X160020Y190500D02*
X144780Y190500D01*
X144780Y165100D02*
X160020Y165100D01*
X160020Y139700D02*
X144780Y139700D01*
X144780Y114300D02*
X160020Y114300D01*
X373380Y165100D02*
X388620Y165100D01*
X388620Y139700D02*
X373380Y139700D01*
X373380Y114300D02*
X388620Y114300D01*
X388620Y190500D02*
X373380Y190500D01*
X373380Y215900D02*
X388620Y215900D01*
X388620Y241300D02*
X373380Y241300D01*
X373380Y266700D02*
X388620Y266700D01*
X388620Y292100D02*
X373380Y292100D01*
X373380Y317500D02*
X388620Y317500D01*
X388620Y342900D02*
X373380Y342900D01*
X373380Y368300D02*
X388620Y368300D01*
X388620Y393700D02*
X373380Y393700D01*
X373380Y419100D02*
X388620Y419100D01*
X388620Y444500D02*
X373380Y444500D01*
X373380Y469900D02*
X388620Y469900D01*
X388620Y495300D02*
X373380Y495300D01*
X373380Y520700D02*
X388620Y520700D01*
X388620Y546100D02*
X373380Y546100D01*
X373380Y571500D02*
X388620Y571500D01*
X388620Y596900D02*
X373380Y596900D01*
X222250Y627380D02*
X222250Y642620D01*
X247650Y642620D02*
X247650Y627380D01*
X273050Y627380D02*
X273050Y642620D01*
D12*
X223774Y617474D02*
X152400Y546100D01*
X223774Y617474D02*
X226353Y617474D01*
X237744Y646723D02*
X243547Y652526D01*
X251753Y652526D01*
X273050Y635000D02*
X272710Y631569D01*
X251753Y652526D01*
X237744Y628865D02*
X226353Y617474D01*
X237744Y628865D02*
X237744Y646723D01*
X214630Y633730D02*
X152400Y571500D01*
X214630Y633730D02*
X222250Y635000D01*
X247650Y558800D02*
X247650Y508000D01*
X247650Y406400D01*
X247650Y304800D01*
X247650Y203200D01*
X457200Y143761D02*
X457200Y139700D01*
X457200Y338840D02*
X457200Y342900D01*
X439914Y161047D02*
X457200Y143761D01*
X439914Y321554D02*
X457200Y338840D01*
X439914Y321554D02*
X439914Y161047D01*
X457200Y342900D02*
X457200Y346961D01*
X457200Y542040D02*
X457200Y546100D01*
X439914Y364247D02*
X457200Y346961D01*
X439914Y524754D02*
X457200Y542040D01*
X439914Y524754D02*
X439914Y364247D01*
X457200Y546100D02*
X402629Y546100D01*
X392723Y536194D01*
X314706Y536194D01*
X292100Y558800D01*
D13*
X247650Y203200D03*
X247650Y304800D03*
X247650Y406400D03*
X247650Y508000D03*
D12*
X247650Y558800D02*
X292100Y558800D01*
X247650Y558800D02*
X247650Y635000D01*
X228600Y419100D02*
X152400Y342900D01*
X228600Y419100D02*
X228600Y431800D01*
X228600Y533400D01*
X228600Y431800D02*
X228600Y330200D01*
X228600Y317500D01*
X228600Y228600D01*
X228600Y215900D01*
D13*
X228600Y127000D03*
X228600Y228600D03*
X228600Y330200D03*
X228600Y431800D03*
X228600Y533400D03*
D12*
X228600Y215900D02*
X228600Y127000D01*
X215900Y254000D02*
X152400Y317500D01*
X215900Y254000D02*
X215900Y127000D01*
X228600Y114300D01*
X254000Y114300D01*
X266700Y127000D01*
X266700Y139700D01*
X266700Y241300D01*
X266700Y342900D01*
X266700Y444500D01*
X266700Y546100D01*
D13*
X266700Y546100D03*
X266700Y444500D03*
X266700Y342900D03*
X266700Y241300D03*
X266700Y139700D03*
D12*
X203200Y241300D02*
X152400Y292100D01*
X203200Y127000D02*
X228600Y101600D01*
X254000Y101600D01*
X292100Y139700D01*
X292100Y165100D01*
X292100Y266700D01*
X292100Y368300D01*
X292100Y469900D01*
X203200Y241300D02*
X203200Y127000D01*
D13*
X292100Y165100D03*
X292100Y266700D03*
X292100Y368300D03*
X292100Y469900D03*
D12*
X152400Y266700D02*
X190500Y228600D01*
X190500Y127000D02*
X228600Y88900D01*
X330200Y177800D02*
X330200Y279400D01*
X330200Y381000D01*
X330200Y482600D01*
X190500Y228600D02*
X190500Y127000D01*
D13*
X330200Y482600D03*
X330200Y381000D03*
X330200Y279400D03*
X330200Y177800D03*
D12*
X254000Y88900D02*
X228600Y88900D01*
X254000Y88900D02*
X330200Y165100D01*
X330200Y177800D01*
M02*
