M48
;GenerationSoftware,Autodesk,EAGLE,9.1.0*%
;CreationDate,2018-12-11T14:46:23Z*%
FMAT,2
ICI,OFF
METRIC,TZ,000.000
T4C0.350
T3C1.000
T2C1.016
T1C3.251
%
G90
M71
T1
X17780Y5080
X35560Y5080
X17780Y66040
X35560Y66040
T2
X15240Y11430
X15240Y13970
X15240Y16510
X15240Y19050
X15240Y21590
X15240Y24130
X15240Y26670
X15240Y29210
X38100Y39370
X15240Y31750
X15240Y34290
X15240Y36830
X15240Y39370
X15240Y44450
X15240Y46990
X15240Y52070
X15240Y59690
X15240Y57150
X15240Y54610
X15240Y49530
X38100Y13970
X38100Y16510
X15240Y41910
X38100Y11430
X38100Y19050
X38100Y21590
X38100Y24130
X38100Y26670
X38100Y29210
X38100Y31750
X38100Y34290
X38100Y36830
X38100Y41910
X38100Y44450
X38100Y46990
X38100Y49530
X38100Y52070
X38100Y54610
X38100Y57150
X38100Y59690
X22225Y63500
X24765Y63500
X27305Y63500
T3
X45720Y57150
X45720Y54610
X45720Y52070
X45720Y59690
X45720Y29210
X45720Y26670
X45720Y24130
X45720Y21590
X45720Y19050
X45720Y16510
X45720Y13970
X45720Y11430
X45720Y49530
X45720Y44450
X45720Y41910
X45720Y39370
X45720Y36830
X45720Y34290
X45720Y31750
X45720Y69850
X45720Y67310
X45720Y64770
X45720Y62230
X45720Y46990
T4
X24765Y30480
X33020Y17780
X33020Y27940
X33020Y38100
X33020Y48260
X29210Y46990
X29210Y36830
X26670Y34290
X29210Y26670
X29210Y16510
X24765Y20320
X26670Y13970
X26670Y24130
X26670Y44450
X26670Y54610
X22860Y53340
X22860Y43180
X22860Y33020
X22860Y22860
X22860Y12700
X24765Y50800
X24765Y40640
M30