G04 EAGLE Gerber X2 export*
%TF.Part,Single*%
%TF.FileFunction,Profile,NP*%
%TF.FilePolarity,Positive*%
%TF.GenerationSoftware,Autodesk,EAGLE,9.1.0*%
%TF.CreationDate,2018-12-11T14:46:23Z*%
G75*
%MOMM*%
%FSLAX34Y34*%
%LPD*%
%AMOC8*
5,1,8,0,0,1.08239X$1,22.5*%
G01*
%ADD10C,0.254000*%


D10*
X114300Y12700D02*
X492000Y12700D01*
X492000Y723800D01*
X114300Y723800D01*
X114300Y12700D01*
X194056Y50268D02*
X193986Y49206D01*
X193847Y48151D01*
X193640Y47107D01*
X193364Y46079D01*
X193022Y45071D01*
X192615Y44087D01*
X192144Y43133D01*
X191612Y42211D01*
X191021Y41326D01*
X190373Y40482D01*
X189671Y39682D01*
X188918Y38929D01*
X188118Y38227D01*
X187274Y37579D01*
X186389Y36988D01*
X185467Y36456D01*
X184513Y35985D01*
X183529Y35578D01*
X182521Y35236D01*
X181493Y34960D01*
X180449Y34753D01*
X179394Y34614D01*
X178332Y34544D01*
X177268Y34544D01*
X176206Y34614D01*
X175151Y34753D01*
X174107Y34960D01*
X173079Y35236D01*
X172071Y35578D01*
X171087Y35985D01*
X170133Y36456D01*
X169211Y36988D01*
X168326Y37579D01*
X167482Y38227D01*
X166682Y38929D01*
X165929Y39682D01*
X165227Y40482D01*
X164579Y41326D01*
X163988Y42211D01*
X163456Y43133D01*
X162985Y44087D01*
X162578Y45071D01*
X162236Y46079D01*
X161960Y47107D01*
X161753Y48151D01*
X161614Y49206D01*
X161544Y50268D01*
X161544Y51332D01*
X161614Y52394D01*
X161753Y53449D01*
X161960Y54493D01*
X162236Y55521D01*
X162578Y56529D01*
X162985Y57513D01*
X163456Y58467D01*
X163988Y59389D01*
X164579Y60274D01*
X165227Y61118D01*
X165929Y61918D01*
X166682Y62671D01*
X167482Y63373D01*
X168326Y64021D01*
X169211Y64612D01*
X170133Y65144D01*
X171087Y65615D01*
X172071Y66022D01*
X173079Y66364D01*
X174107Y66640D01*
X175151Y66847D01*
X176206Y66986D01*
X177268Y67056D01*
X178332Y67056D01*
X179394Y66986D01*
X180449Y66847D01*
X181493Y66640D01*
X182521Y66364D01*
X183529Y66022D01*
X184513Y65615D01*
X185467Y65144D01*
X186389Y64612D01*
X187274Y64021D01*
X188118Y63373D01*
X188918Y62671D01*
X189671Y61918D01*
X190373Y61118D01*
X191021Y60274D01*
X191612Y59389D01*
X192144Y58467D01*
X192615Y57513D01*
X193022Y56529D01*
X193364Y55521D01*
X193640Y54493D01*
X193847Y53449D01*
X193986Y52394D01*
X194056Y51332D01*
X194056Y50268D01*
X371856Y50268D02*
X371786Y49206D01*
X371647Y48151D01*
X371440Y47107D01*
X371164Y46079D01*
X370822Y45071D01*
X370415Y44087D01*
X369944Y43133D01*
X369412Y42211D01*
X368821Y41326D01*
X368173Y40482D01*
X367471Y39682D01*
X366718Y38929D01*
X365918Y38227D01*
X365074Y37579D01*
X364189Y36988D01*
X363267Y36456D01*
X362313Y35985D01*
X361329Y35578D01*
X360321Y35236D01*
X359293Y34960D01*
X358249Y34753D01*
X357194Y34614D01*
X356132Y34544D01*
X355068Y34544D01*
X354006Y34614D01*
X352951Y34753D01*
X351907Y34960D01*
X350879Y35236D01*
X349871Y35578D01*
X348887Y35985D01*
X347933Y36456D01*
X347011Y36988D01*
X346126Y37579D01*
X345282Y38227D01*
X344482Y38929D01*
X343729Y39682D01*
X343027Y40482D01*
X342379Y41326D01*
X341788Y42211D01*
X341256Y43133D01*
X340785Y44087D01*
X340378Y45071D01*
X340036Y46079D01*
X339760Y47107D01*
X339553Y48151D01*
X339414Y49206D01*
X339344Y50268D01*
X339344Y51332D01*
X339414Y52394D01*
X339553Y53449D01*
X339760Y54493D01*
X340036Y55521D01*
X340378Y56529D01*
X340785Y57513D01*
X341256Y58467D01*
X341788Y59389D01*
X342379Y60274D01*
X343027Y61118D01*
X343729Y61918D01*
X344482Y62671D01*
X345282Y63373D01*
X346126Y64021D01*
X347011Y64612D01*
X347933Y65144D01*
X348887Y65615D01*
X349871Y66022D01*
X350879Y66364D01*
X351907Y66640D01*
X352951Y66847D01*
X354006Y66986D01*
X355068Y67056D01*
X356132Y67056D01*
X357194Y66986D01*
X358249Y66847D01*
X359293Y66640D01*
X360321Y66364D01*
X361329Y66022D01*
X362313Y65615D01*
X363267Y65144D01*
X364189Y64612D01*
X365074Y64021D01*
X365918Y63373D01*
X366718Y62671D01*
X367471Y61918D01*
X368173Y61118D01*
X368821Y60274D01*
X369412Y59389D01*
X369944Y58467D01*
X370415Y57513D01*
X370822Y56529D01*
X371164Y55521D01*
X371440Y54493D01*
X371647Y53449D01*
X371786Y52394D01*
X371856Y51332D01*
X371856Y50268D01*
X194056Y659868D02*
X193986Y658806D01*
X193847Y657751D01*
X193640Y656707D01*
X193364Y655679D01*
X193022Y654671D01*
X192615Y653687D01*
X192144Y652733D01*
X191612Y651811D01*
X191021Y650926D01*
X190373Y650082D01*
X189671Y649282D01*
X188918Y648529D01*
X188118Y647827D01*
X187274Y647179D01*
X186389Y646588D01*
X185467Y646056D01*
X184513Y645585D01*
X183529Y645178D01*
X182521Y644836D01*
X181493Y644560D01*
X180449Y644353D01*
X179394Y644214D01*
X178332Y644144D01*
X177268Y644144D01*
X176206Y644214D01*
X175151Y644353D01*
X174107Y644560D01*
X173079Y644836D01*
X172071Y645178D01*
X171087Y645585D01*
X170133Y646056D01*
X169211Y646588D01*
X168326Y647179D01*
X167482Y647827D01*
X166682Y648529D01*
X165929Y649282D01*
X165227Y650082D01*
X164579Y650926D01*
X163988Y651811D01*
X163456Y652733D01*
X162985Y653687D01*
X162578Y654671D01*
X162236Y655679D01*
X161960Y656707D01*
X161753Y657751D01*
X161614Y658806D01*
X161544Y659868D01*
X161544Y660932D01*
X161614Y661994D01*
X161753Y663049D01*
X161960Y664093D01*
X162236Y665121D01*
X162578Y666129D01*
X162985Y667113D01*
X163456Y668067D01*
X163988Y668989D01*
X164579Y669874D01*
X165227Y670718D01*
X165929Y671518D01*
X166682Y672271D01*
X167482Y672973D01*
X168326Y673621D01*
X169211Y674212D01*
X170133Y674744D01*
X171087Y675215D01*
X172071Y675622D01*
X173079Y675964D01*
X174107Y676240D01*
X175151Y676447D01*
X176206Y676586D01*
X177268Y676656D01*
X178332Y676656D01*
X179394Y676586D01*
X180449Y676447D01*
X181493Y676240D01*
X182521Y675964D01*
X183529Y675622D01*
X184513Y675215D01*
X185467Y674744D01*
X186389Y674212D01*
X187274Y673621D01*
X188118Y672973D01*
X188918Y672271D01*
X189671Y671518D01*
X190373Y670718D01*
X191021Y669874D01*
X191612Y668989D01*
X192144Y668067D01*
X192615Y667113D01*
X193022Y666129D01*
X193364Y665121D01*
X193640Y664093D01*
X193847Y663049D01*
X193986Y661994D01*
X194056Y660932D01*
X194056Y659868D01*
X371856Y659868D02*
X371786Y658806D01*
X371647Y657751D01*
X371440Y656707D01*
X371164Y655679D01*
X370822Y654671D01*
X370415Y653687D01*
X369944Y652733D01*
X369412Y651811D01*
X368821Y650926D01*
X368173Y650082D01*
X367471Y649282D01*
X366718Y648529D01*
X365918Y647827D01*
X365074Y647179D01*
X364189Y646588D01*
X363267Y646056D01*
X362313Y645585D01*
X361329Y645178D01*
X360321Y644836D01*
X359293Y644560D01*
X358249Y644353D01*
X357194Y644214D01*
X356132Y644144D01*
X355068Y644144D01*
X354006Y644214D01*
X352951Y644353D01*
X351907Y644560D01*
X350879Y644836D01*
X349871Y645178D01*
X348887Y645585D01*
X347933Y646056D01*
X347011Y646588D01*
X346126Y647179D01*
X345282Y647827D01*
X344482Y648529D01*
X343729Y649282D01*
X343027Y650082D01*
X342379Y650926D01*
X341788Y651811D01*
X341256Y652733D01*
X340785Y653687D01*
X340378Y654671D01*
X340036Y655679D01*
X339760Y656707D01*
X339553Y657751D01*
X339414Y658806D01*
X339344Y659868D01*
X339344Y660932D01*
X339414Y661994D01*
X339553Y663049D01*
X339760Y664093D01*
X340036Y665121D01*
X340378Y666129D01*
X340785Y667113D01*
X341256Y668067D01*
X341788Y668989D01*
X342379Y669874D01*
X343027Y670718D01*
X343729Y671518D01*
X344482Y672271D01*
X345282Y672973D01*
X346126Y673621D01*
X347011Y674212D01*
X347933Y674744D01*
X348887Y675215D01*
X349871Y675622D01*
X350879Y675964D01*
X351907Y676240D01*
X352951Y676447D01*
X354006Y676586D01*
X355068Y676656D01*
X356132Y676656D01*
X357194Y676586D01*
X358249Y676447D01*
X359293Y676240D01*
X360321Y675964D01*
X361329Y675622D01*
X362313Y675215D01*
X363267Y674744D01*
X364189Y674212D01*
X365074Y673621D01*
X365918Y672973D01*
X366718Y672271D01*
X367471Y671518D01*
X368173Y670718D01*
X368821Y669874D01*
X369412Y668989D01*
X369944Y668067D01*
X370415Y667113D01*
X370822Y666129D01*
X371164Y665121D01*
X371440Y664093D01*
X371647Y663049D01*
X371786Y661994D01*
X371856Y660932D01*
X371856Y659868D01*
M02*
