G04 EAGLE Gerber X2 export*
%TF.Part,Single*%
%TF.FileFunction,Legend,Top,1*%
%TF.FilePolarity,Positive*%
%TF.GenerationSoftware,Autodesk,EAGLE,9.1.0*%
%TF.CreationDate,2018-12-11T14:46:23Z*%
G75*
%MOMM*%
%FSLAX34Y34*%
%LPD*%
%AMOC8*
5,1,8,0,0,1.08239X$1,22.5*%
G01*
%ADD10C,0.076200*%
%ADD11C,0.050800*%
%ADD12C,0.254000*%
%ADD13C,0.101600*%
%ADD14C,0.152400*%


D10*
X384090Y38481D02*
X384173Y38483D01*
X384257Y38489D01*
X384340Y38498D01*
X384422Y38512D01*
X384504Y38529D01*
X384584Y38550D01*
X384664Y38575D01*
X384742Y38603D01*
X384820Y38635D01*
X384895Y38670D01*
X384969Y38709D01*
X385041Y38752D01*
X385111Y38797D01*
X385178Y38846D01*
X385244Y38898D01*
X385307Y38952D01*
X385367Y39010D01*
X385425Y39070D01*
X385479Y39133D01*
X385531Y39199D01*
X385580Y39266D01*
X385625Y39336D01*
X385668Y39408D01*
X385707Y39482D01*
X385742Y39558D01*
X385774Y39635D01*
X385802Y39713D01*
X385827Y39793D01*
X385848Y39874D01*
X385865Y39955D01*
X385879Y40037D01*
X385888Y40120D01*
X385894Y40204D01*
X385896Y40287D01*
X384090Y38481D02*
X383970Y38483D01*
X383849Y38489D01*
X383729Y38498D01*
X383609Y38511D01*
X383490Y38528D01*
X383371Y38549D01*
X383253Y38574D01*
X383136Y38602D01*
X383020Y38634D01*
X382905Y38670D01*
X382791Y38709D01*
X382678Y38752D01*
X382567Y38798D01*
X382458Y38848D01*
X382349Y38901D01*
X382243Y38958D01*
X382139Y39018D01*
X382036Y39081D01*
X381936Y39148D01*
X381837Y39217D01*
X381741Y39290D01*
X381647Y39365D01*
X381556Y39444D01*
X381467Y39526D01*
X381381Y39610D01*
X381607Y44803D02*
X381609Y44886D01*
X381615Y44970D01*
X381624Y45053D01*
X381638Y45135D01*
X381655Y45216D01*
X381676Y45297D01*
X381701Y45377D01*
X381729Y45455D01*
X381761Y45532D01*
X381796Y45608D01*
X381835Y45682D01*
X381878Y45754D01*
X381923Y45824D01*
X381972Y45891D01*
X382024Y45957D01*
X382078Y46020D01*
X382136Y46080D01*
X382196Y46138D01*
X382259Y46192D01*
X382325Y46244D01*
X382392Y46293D01*
X382462Y46338D01*
X382534Y46381D01*
X382608Y46420D01*
X382684Y46455D01*
X382761Y46487D01*
X382839Y46515D01*
X382919Y46540D01*
X383000Y46561D01*
X383081Y46578D01*
X383163Y46592D01*
X383246Y46601D01*
X383330Y46607D01*
X383413Y46609D01*
X383528Y46607D01*
X383642Y46601D01*
X383757Y46592D01*
X383870Y46578D01*
X383984Y46561D01*
X384097Y46539D01*
X384208Y46514D01*
X384320Y46485D01*
X384430Y46453D01*
X384538Y46417D01*
X384646Y46377D01*
X384752Y46333D01*
X384857Y46286D01*
X384959Y46235D01*
X385061Y46181D01*
X385160Y46124D01*
X385257Y46063D01*
X385352Y45999D01*
X385445Y45932D01*
X382510Y43223D02*
X382440Y43267D01*
X382371Y43313D01*
X382305Y43363D01*
X382241Y43416D01*
X382180Y43471D01*
X382121Y43530D01*
X382065Y43591D01*
X382012Y43654D01*
X381961Y43720D01*
X381914Y43787D01*
X381870Y43857D01*
X381829Y43929D01*
X381791Y44003D01*
X381756Y44078D01*
X381725Y44155D01*
X381698Y44233D01*
X381674Y44312D01*
X381654Y44393D01*
X381637Y44474D01*
X381624Y44555D01*
X381614Y44638D01*
X381609Y44720D01*
X381607Y44803D01*
X384993Y41867D02*
X385063Y41823D01*
X385132Y41777D01*
X385198Y41727D01*
X385262Y41674D01*
X385323Y41619D01*
X385382Y41560D01*
X385438Y41499D01*
X385491Y41436D01*
X385542Y41370D01*
X385589Y41303D01*
X385633Y41233D01*
X385674Y41161D01*
X385712Y41087D01*
X385747Y41012D01*
X385778Y40935D01*
X385805Y40857D01*
X385829Y40778D01*
X385849Y40697D01*
X385866Y40616D01*
X385879Y40535D01*
X385889Y40452D01*
X385894Y40370D01*
X385896Y40287D01*
X384993Y41868D02*
X382510Y43222D01*
X388767Y43900D02*
X392379Y43900D01*
X388767Y38481D01*
X392379Y38481D01*
X396798Y38481D02*
X398605Y38481D01*
X396798Y38481D02*
X396727Y38483D01*
X396656Y38488D01*
X396586Y38498D01*
X396516Y38511D01*
X396447Y38527D01*
X396379Y38547D01*
X396312Y38571D01*
X396247Y38598D01*
X396183Y38629D01*
X396121Y38663D01*
X396060Y38700D01*
X396002Y38740D01*
X395945Y38783D01*
X395891Y38829D01*
X395840Y38878D01*
X395791Y38929D01*
X395745Y38983D01*
X395702Y39040D01*
X395662Y39098D01*
X395625Y39159D01*
X395591Y39221D01*
X395560Y39285D01*
X395533Y39350D01*
X395509Y39417D01*
X395489Y39485D01*
X395473Y39554D01*
X395460Y39624D01*
X395450Y39694D01*
X395445Y39765D01*
X395443Y39836D01*
X395444Y39836D02*
X395444Y42545D01*
X395443Y42545D02*
X395445Y42616D01*
X395450Y42687D01*
X395460Y42757D01*
X395473Y42827D01*
X395489Y42896D01*
X395509Y42964D01*
X395533Y43031D01*
X395560Y43096D01*
X395591Y43160D01*
X395625Y43223D01*
X395662Y43283D01*
X395702Y43341D01*
X395745Y43398D01*
X395791Y43452D01*
X395840Y43503D01*
X395891Y43552D01*
X395945Y43598D01*
X396002Y43641D01*
X396060Y43681D01*
X396121Y43718D01*
X396183Y43752D01*
X396247Y43783D01*
X396312Y43810D01*
X396379Y43834D01*
X396447Y43854D01*
X396516Y43870D01*
X396586Y43883D01*
X396656Y43893D01*
X396727Y43898D01*
X396798Y43900D01*
X398605Y43900D01*
X401302Y43900D02*
X404914Y43900D01*
X401302Y38481D01*
X404914Y38481D01*
X409324Y38481D02*
X411581Y38481D01*
X409324Y38481D02*
X409253Y38483D01*
X409182Y38488D01*
X409112Y38498D01*
X409042Y38511D01*
X408973Y38527D01*
X408905Y38547D01*
X408838Y38571D01*
X408773Y38598D01*
X408709Y38629D01*
X408647Y38663D01*
X408586Y38700D01*
X408528Y38740D01*
X408471Y38783D01*
X408417Y38829D01*
X408366Y38878D01*
X408317Y38929D01*
X408271Y38983D01*
X408228Y39040D01*
X408188Y39098D01*
X408151Y39159D01*
X408117Y39221D01*
X408086Y39285D01*
X408059Y39350D01*
X408035Y39417D01*
X408015Y39485D01*
X407999Y39554D01*
X407986Y39624D01*
X407976Y39694D01*
X407971Y39765D01*
X407969Y39836D01*
X407969Y42093D01*
X407971Y42176D01*
X407977Y42260D01*
X407986Y42343D01*
X408000Y42425D01*
X408017Y42506D01*
X408038Y42587D01*
X408063Y42667D01*
X408091Y42745D01*
X408123Y42822D01*
X408158Y42898D01*
X408197Y42972D01*
X408240Y43044D01*
X408285Y43114D01*
X408334Y43181D01*
X408386Y43247D01*
X408440Y43310D01*
X408498Y43370D01*
X408558Y43428D01*
X408621Y43482D01*
X408687Y43534D01*
X408754Y43583D01*
X408824Y43628D01*
X408896Y43671D01*
X408970Y43710D01*
X409046Y43745D01*
X409123Y43777D01*
X409201Y43805D01*
X409281Y43830D01*
X409362Y43851D01*
X409443Y43868D01*
X409525Y43882D01*
X409608Y43891D01*
X409692Y43897D01*
X409775Y43899D01*
X409858Y43897D01*
X409942Y43891D01*
X410025Y43882D01*
X410107Y43868D01*
X410188Y43851D01*
X410269Y43830D01*
X410349Y43805D01*
X410427Y43777D01*
X410504Y43745D01*
X410580Y43710D01*
X410654Y43671D01*
X410726Y43628D01*
X410796Y43583D01*
X410863Y43534D01*
X410929Y43482D01*
X410992Y43428D01*
X411052Y43370D01*
X411110Y43310D01*
X411164Y43247D01*
X411216Y43181D01*
X411265Y43114D01*
X411310Y43044D01*
X411353Y42972D01*
X411392Y42898D01*
X411427Y42822D01*
X411459Y42745D01*
X411487Y42667D01*
X411512Y42587D01*
X411533Y42506D01*
X411550Y42425D01*
X411564Y42343D01*
X411573Y42260D01*
X411579Y42176D01*
X411581Y42093D01*
X411581Y41190D01*
X407969Y41190D01*
X416267Y38481D02*
X418074Y38481D01*
X416267Y38481D02*
X416196Y38483D01*
X416125Y38488D01*
X416055Y38498D01*
X415985Y38511D01*
X415916Y38527D01*
X415848Y38547D01*
X415781Y38571D01*
X415716Y38598D01*
X415652Y38629D01*
X415590Y38663D01*
X415529Y38700D01*
X415471Y38740D01*
X415414Y38783D01*
X415360Y38829D01*
X415309Y38878D01*
X415260Y38929D01*
X415214Y38983D01*
X415171Y39040D01*
X415131Y39098D01*
X415094Y39159D01*
X415060Y39221D01*
X415029Y39285D01*
X415002Y39350D01*
X414978Y39417D01*
X414958Y39485D01*
X414942Y39554D01*
X414929Y39624D01*
X414919Y39694D01*
X414914Y39765D01*
X414912Y39836D01*
X414913Y39836D02*
X414913Y42545D01*
X414912Y42545D02*
X414914Y42616D01*
X414919Y42687D01*
X414929Y42757D01*
X414942Y42827D01*
X414958Y42896D01*
X414978Y42964D01*
X415002Y43031D01*
X415029Y43096D01*
X415060Y43160D01*
X415094Y43223D01*
X415131Y43283D01*
X415171Y43341D01*
X415214Y43398D01*
X415260Y43452D01*
X415309Y43503D01*
X415360Y43552D01*
X415414Y43598D01*
X415471Y43641D01*
X415529Y43681D01*
X415590Y43718D01*
X415652Y43752D01*
X415716Y43783D01*
X415781Y43810D01*
X415848Y43834D01*
X415916Y43854D01*
X415985Y43870D01*
X416055Y43883D01*
X416125Y43893D01*
X416196Y43898D01*
X416267Y43900D01*
X418074Y43900D01*
X420977Y43900D02*
X420977Y38481D01*
X420751Y46157D02*
X420751Y46609D01*
X421202Y46609D01*
X421202Y46157D01*
X420751Y46157D01*
X424504Y43900D02*
X424504Y38481D01*
X424504Y43900D02*
X426762Y43900D01*
X426835Y43898D01*
X426908Y43892D01*
X426981Y43882D01*
X427053Y43868D01*
X427124Y43851D01*
X427195Y43829D01*
X427264Y43804D01*
X427331Y43775D01*
X427397Y43742D01*
X427461Y43706D01*
X427522Y43667D01*
X427582Y43624D01*
X427639Y43578D01*
X427694Y43529D01*
X427746Y43477D01*
X427795Y43422D01*
X427841Y43365D01*
X427883Y43305D01*
X427923Y43244D01*
X427959Y43180D01*
X427992Y43114D01*
X428021Y43047D01*
X428046Y42978D01*
X428068Y42908D01*
X428085Y42836D01*
X428099Y42764D01*
X428109Y42692D01*
X428115Y42618D01*
X428117Y42545D01*
X428117Y38481D01*
X432382Y41642D02*
X434640Y40739D01*
X432382Y41642D02*
X432320Y41669D01*
X432260Y41699D01*
X432201Y41733D01*
X432144Y41770D01*
X432090Y41811D01*
X432038Y41854D01*
X431989Y41901D01*
X431943Y41950D01*
X431899Y42002D01*
X431859Y42056D01*
X431821Y42113D01*
X431787Y42171D01*
X431757Y42232D01*
X431730Y42294D01*
X431707Y42357D01*
X431687Y42422D01*
X431671Y42488D01*
X431659Y42555D01*
X431651Y42622D01*
X431647Y42689D01*
X431646Y42757D01*
X431650Y42825D01*
X431657Y42892D01*
X431669Y42959D01*
X431684Y43025D01*
X431703Y43090D01*
X431726Y43153D01*
X431752Y43216D01*
X431782Y43276D01*
X431815Y43335D01*
X431852Y43392D01*
X431892Y43447D01*
X431935Y43499D01*
X431981Y43549D01*
X432030Y43596D01*
X432081Y43640D01*
X432135Y43681D01*
X432191Y43719D01*
X432249Y43753D01*
X432309Y43784D01*
X432371Y43812D01*
X432435Y43836D01*
X432499Y43856D01*
X432565Y43873D01*
X432631Y43885D01*
X432699Y43894D01*
X432766Y43899D01*
X432834Y43900D01*
X432834Y43899D02*
X432974Y43896D01*
X433113Y43888D01*
X433253Y43876D01*
X433392Y43861D01*
X433530Y43842D01*
X433668Y43819D01*
X433805Y43793D01*
X433942Y43762D01*
X434077Y43728D01*
X434212Y43691D01*
X434345Y43649D01*
X434477Y43604D01*
X434608Y43556D01*
X434738Y43504D01*
X434866Y43448D01*
X434640Y40739D02*
X434702Y40712D01*
X434762Y40682D01*
X434821Y40648D01*
X434878Y40611D01*
X434932Y40570D01*
X434984Y40527D01*
X435033Y40480D01*
X435079Y40431D01*
X435123Y40379D01*
X435163Y40325D01*
X435201Y40268D01*
X435235Y40210D01*
X435265Y40149D01*
X435292Y40087D01*
X435315Y40024D01*
X435335Y39959D01*
X435351Y39893D01*
X435363Y39826D01*
X435371Y39759D01*
X435375Y39692D01*
X435376Y39624D01*
X435372Y39556D01*
X435365Y39489D01*
X435353Y39422D01*
X435338Y39356D01*
X435319Y39291D01*
X435296Y39228D01*
X435270Y39165D01*
X435240Y39105D01*
X435207Y39046D01*
X435170Y38989D01*
X435130Y38934D01*
X435087Y38882D01*
X435041Y38832D01*
X434992Y38785D01*
X434941Y38741D01*
X434887Y38700D01*
X434831Y38662D01*
X434773Y38628D01*
X434713Y38597D01*
X434651Y38569D01*
X434587Y38545D01*
X434523Y38525D01*
X434457Y38508D01*
X434391Y38496D01*
X434323Y38487D01*
X434256Y38482D01*
X434188Y38481D01*
X434189Y38481D02*
X434008Y38486D01*
X433827Y38495D01*
X433646Y38508D01*
X433466Y38525D01*
X433286Y38547D01*
X433107Y38573D01*
X432928Y38604D01*
X432750Y38638D01*
X432573Y38677D01*
X432397Y38720D01*
X432223Y38767D01*
X432049Y38818D01*
X431876Y38873D01*
X431705Y38932D01*
X439004Y38481D02*
X439004Y46609D01*
X442617Y43900D02*
X439004Y41190D01*
X440585Y42319D02*
X442617Y38481D01*
X445513Y38481D02*
X445513Y43900D01*
X445287Y46157D02*
X445287Y46609D01*
X445739Y46609D01*
X445739Y46157D01*
X445287Y46157D01*
X455606Y46609D02*
X455695Y46607D01*
X455783Y46601D01*
X455871Y46592D01*
X455959Y46578D01*
X456046Y46561D01*
X456132Y46540D01*
X456217Y46515D01*
X456301Y46486D01*
X456384Y46454D01*
X456465Y46419D01*
X456544Y46379D01*
X456622Y46337D01*
X456698Y46291D01*
X456772Y46242D01*
X456843Y46189D01*
X456912Y46134D01*
X456979Y46075D01*
X457043Y46014D01*
X457104Y45950D01*
X457163Y45883D01*
X457218Y45814D01*
X457271Y45743D01*
X457320Y45669D01*
X457366Y45593D01*
X457408Y45515D01*
X457448Y45436D01*
X457483Y45355D01*
X457515Y45272D01*
X457544Y45188D01*
X457569Y45103D01*
X457590Y45017D01*
X457607Y44930D01*
X457621Y44842D01*
X457630Y44754D01*
X457636Y44666D01*
X457638Y44577D01*
X455606Y46609D02*
X455507Y46607D01*
X455407Y46601D01*
X455308Y46592D01*
X455210Y46579D01*
X455111Y46562D01*
X455014Y46541D01*
X454918Y46517D01*
X454822Y46489D01*
X454728Y46457D01*
X454635Y46422D01*
X454543Y46383D01*
X454453Y46341D01*
X454365Y46295D01*
X454278Y46246D01*
X454193Y46194D01*
X454111Y46138D01*
X454030Y46080D01*
X453952Y46018D01*
X453876Y45954D01*
X453803Y45887D01*
X453732Y45817D01*
X453665Y45744D01*
X453599Y45669D01*
X453537Y45591D01*
X453478Y45511D01*
X453422Y45429D01*
X453369Y45345D01*
X453319Y45258D01*
X453273Y45170D01*
X453230Y45081D01*
X453190Y44989D01*
X453154Y44896D01*
X453122Y44802D01*
X456962Y42996D02*
X457028Y43062D01*
X457091Y43130D01*
X457151Y43201D01*
X457208Y43275D01*
X457262Y43350D01*
X457312Y43428D01*
X457360Y43509D01*
X457403Y43591D01*
X457444Y43675D01*
X457480Y43760D01*
X457513Y43847D01*
X457543Y43935D01*
X457568Y44025D01*
X457590Y44115D01*
X457607Y44207D01*
X457621Y44299D01*
X457631Y44391D01*
X457637Y44484D01*
X457639Y44577D01*
X456961Y42997D02*
X453123Y38481D01*
X457638Y38481D01*
X461124Y42545D02*
X461126Y42705D01*
X461132Y42865D01*
X461141Y43024D01*
X461155Y43184D01*
X461172Y43343D01*
X461193Y43501D01*
X461217Y43659D01*
X461246Y43816D01*
X461278Y43973D01*
X461314Y44129D01*
X461354Y44284D01*
X461397Y44438D01*
X461444Y44591D01*
X461495Y44742D01*
X461549Y44893D01*
X461607Y45042D01*
X461668Y45189D01*
X461733Y45335D01*
X461801Y45480D01*
X461829Y45555D01*
X461860Y45628D01*
X461895Y45700D01*
X461933Y45770D01*
X461974Y45838D01*
X462019Y45904D01*
X462066Y45968D01*
X462117Y46030D01*
X462170Y46089D01*
X462227Y46145D01*
X462286Y46199D01*
X462347Y46250D01*
X462411Y46298D01*
X462477Y46343D01*
X462545Y46384D01*
X462615Y46422D01*
X462686Y46457D01*
X462760Y46489D01*
X462834Y46517D01*
X462910Y46541D01*
X462987Y46562D01*
X463065Y46579D01*
X463144Y46592D01*
X463223Y46601D01*
X463302Y46607D01*
X463382Y46609D01*
X463462Y46607D01*
X463541Y46601D01*
X463620Y46592D01*
X463699Y46579D01*
X463777Y46562D01*
X463854Y46541D01*
X463930Y46517D01*
X464004Y46489D01*
X464078Y46457D01*
X464149Y46422D01*
X464219Y46384D01*
X464287Y46343D01*
X464353Y46298D01*
X464417Y46250D01*
X464478Y46199D01*
X464537Y46145D01*
X464594Y46089D01*
X464647Y46030D01*
X464698Y45968D01*
X464745Y45904D01*
X464790Y45838D01*
X464831Y45770D01*
X464869Y45700D01*
X464904Y45628D01*
X464935Y45555D01*
X464963Y45480D01*
X464962Y45480D02*
X465030Y45335D01*
X465095Y45189D01*
X465156Y45042D01*
X465214Y44893D01*
X465268Y44742D01*
X465319Y44591D01*
X465366Y44438D01*
X465409Y44284D01*
X465449Y44129D01*
X465485Y43973D01*
X465517Y43816D01*
X465546Y43659D01*
X465570Y43501D01*
X465591Y43343D01*
X465608Y43184D01*
X465622Y43024D01*
X465631Y42865D01*
X465637Y42705D01*
X465639Y42545D01*
X461124Y42545D02*
X461126Y42385D01*
X461132Y42225D01*
X461141Y42066D01*
X461155Y41906D01*
X461172Y41747D01*
X461193Y41589D01*
X461217Y41431D01*
X461246Y41274D01*
X461278Y41117D01*
X461314Y40961D01*
X461354Y40806D01*
X461397Y40652D01*
X461444Y40500D01*
X461495Y40348D01*
X461549Y40197D01*
X461607Y40048D01*
X461668Y39901D01*
X461733Y39755D01*
X461801Y39610D01*
X461829Y39535D01*
X461860Y39462D01*
X461895Y39390D01*
X461933Y39320D01*
X461974Y39252D01*
X462019Y39186D01*
X462066Y39122D01*
X462117Y39060D01*
X462170Y39001D01*
X462227Y38945D01*
X462286Y38891D01*
X462347Y38840D01*
X462411Y38792D01*
X462477Y38747D01*
X462545Y38706D01*
X462615Y38668D01*
X462686Y38633D01*
X462760Y38601D01*
X462834Y38573D01*
X462910Y38549D01*
X462987Y38528D01*
X463065Y38511D01*
X463144Y38498D01*
X463223Y38489D01*
X463302Y38483D01*
X463382Y38481D01*
X464962Y39610D02*
X465030Y39755D01*
X465095Y39901D01*
X465156Y40048D01*
X465214Y40197D01*
X465268Y40348D01*
X465319Y40500D01*
X465366Y40652D01*
X465409Y40806D01*
X465449Y40961D01*
X465485Y41117D01*
X465517Y41274D01*
X465546Y41431D01*
X465570Y41589D01*
X465591Y41747D01*
X465608Y41906D01*
X465622Y42066D01*
X465631Y42225D01*
X465637Y42385D01*
X465639Y42545D01*
X464963Y39610D02*
X464935Y39535D01*
X464904Y39462D01*
X464869Y39390D01*
X464831Y39320D01*
X464790Y39252D01*
X464745Y39186D01*
X464698Y39122D01*
X464647Y39060D01*
X464594Y39001D01*
X464537Y38945D01*
X464478Y38891D01*
X464417Y38840D01*
X464353Y38792D01*
X464287Y38747D01*
X464219Y38706D01*
X464149Y38668D01*
X464078Y38633D01*
X464004Y38601D01*
X463930Y38573D01*
X463854Y38549D01*
X463777Y38528D01*
X463699Y38511D01*
X463620Y38498D01*
X463541Y38489D01*
X463462Y38483D01*
X463382Y38481D01*
X461575Y40287D02*
X465188Y44803D01*
X469125Y44803D02*
X471383Y46609D01*
X471383Y38481D01*
X473640Y38481D02*
X469125Y38481D01*
X477126Y40739D02*
X477128Y40832D01*
X477134Y40925D01*
X477143Y41018D01*
X477157Y41111D01*
X477174Y41202D01*
X477195Y41293D01*
X477220Y41383D01*
X477248Y41472D01*
X477280Y41560D01*
X477316Y41646D01*
X477355Y41731D01*
X477398Y41814D01*
X477444Y41895D01*
X477494Y41974D01*
X477546Y42051D01*
X477602Y42126D01*
X477661Y42198D01*
X477723Y42268D01*
X477787Y42336D01*
X477855Y42400D01*
X477925Y42462D01*
X477997Y42521D01*
X478072Y42577D01*
X478149Y42629D01*
X478228Y42679D01*
X478309Y42725D01*
X478392Y42768D01*
X478477Y42807D01*
X478563Y42843D01*
X478651Y42875D01*
X478740Y42903D01*
X478830Y42928D01*
X478921Y42949D01*
X479012Y42966D01*
X479105Y42980D01*
X479198Y42989D01*
X479291Y42995D01*
X479384Y42997D01*
X479477Y42995D01*
X479570Y42989D01*
X479663Y42980D01*
X479756Y42966D01*
X479847Y42949D01*
X479938Y42928D01*
X480028Y42903D01*
X480117Y42875D01*
X480205Y42843D01*
X480291Y42807D01*
X480376Y42768D01*
X480459Y42725D01*
X480540Y42679D01*
X480619Y42629D01*
X480696Y42577D01*
X480771Y42521D01*
X480843Y42462D01*
X480913Y42400D01*
X480981Y42336D01*
X481045Y42268D01*
X481107Y42198D01*
X481166Y42126D01*
X481222Y42051D01*
X481274Y41974D01*
X481324Y41895D01*
X481370Y41814D01*
X481413Y41731D01*
X481452Y41646D01*
X481488Y41560D01*
X481520Y41472D01*
X481548Y41383D01*
X481573Y41293D01*
X481594Y41202D01*
X481611Y41111D01*
X481625Y41018D01*
X481634Y40925D01*
X481640Y40832D01*
X481642Y40739D01*
X481640Y40646D01*
X481634Y40553D01*
X481625Y40460D01*
X481611Y40367D01*
X481594Y40276D01*
X481573Y40185D01*
X481548Y40095D01*
X481520Y40006D01*
X481488Y39918D01*
X481452Y39832D01*
X481413Y39747D01*
X481370Y39664D01*
X481324Y39583D01*
X481274Y39504D01*
X481222Y39427D01*
X481166Y39352D01*
X481107Y39280D01*
X481045Y39210D01*
X480981Y39142D01*
X480913Y39078D01*
X480843Y39016D01*
X480771Y38957D01*
X480696Y38901D01*
X480619Y38849D01*
X480540Y38799D01*
X480459Y38753D01*
X480376Y38710D01*
X480291Y38671D01*
X480205Y38635D01*
X480117Y38603D01*
X480028Y38575D01*
X479938Y38550D01*
X479847Y38529D01*
X479756Y38512D01*
X479663Y38498D01*
X479570Y38489D01*
X479477Y38483D01*
X479384Y38481D01*
X479291Y38483D01*
X479198Y38489D01*
X479105Y38498D01*
X479012Y38512D01*
X478921Y38529D01*
X478830Y38550D01*
X478740Y38575D01*
X478651Y38603D01*
X478563Y38635D01*
X478477Y38671D01*
X478392Y38710D01*
X478309Y38753D01*
X478228Y38799D01*
X478149Y38849D01*
X478072Y38901D01*
X477997Y38957D01*
X477925Y39016D01*
X477855Y39078D01*
X477787Y39142D01*
X477723Y39210D01*
X477661Y39280D01*
X477602Y39352D01*
X477546Y39427D01*
X477494Y39504D01*
X477444Y39583D01*
X477398Y39664D01*
X477355Y39747D01*
X477316Y39832D01*
X477280Y39918D01*
X477248Y40006D01*
X477220Y40095D01*
X477195Y40185D01*
X477174Y40276D01*
X477157Y40367D01*
X477143Y40460D01*
X477134Y40553D01*
X477128Y40646D01*
X477126Y40739D01*
X477578Y44803D02*
X477580Y44886D01*
X477586Y44970D01*
X477595Y45053D01*
X477609Y45135D01*
X477626Y45216D01*
X477647Y45297D01*
X477672Y45377D01*
X477700Y45455D01*
X477732Y45532D01*
X477767Y45608D01*
X477806Y45682D01*
X477849Y45754D01*
X477894Y45824D01*
X477943Y45891D01*
X477995Y45957D01*
X478049Y46020D01*
X478107Y46080D01*
X478167Y46138D01*
X478230Y46192D01*
X478296Y46244D01*
X478363Y46293D01*
X478433Y46338D01*
X478505Y46381D01*
X478579Y46420D01*
X478655Y46455D01*
X478732Y46487D01*
X478810Y46515D01*
X478890Y46540D01*
X478971Y46561D01*
X479052Y46578D01*
X479134Y46592D01*
X479217Y46601D01*
X479301Y46607D01*
X479384Y46609D01*
X479467Y46607D01*
X479551Y46601D01*
X479634Y46592D01*
X479716Y46578D01*
X479797Y46561D01*
X479878Y46540D01*
X479958Y46515D01*
X480036Y46487D01*
X480113Y46455D01*
X480189Y46420D01*
X480263Y46381D01*
X480335Y46338D01*
X480405Y46293D01*
X480472Y46244D01*
X480538Y46192D01*
X480601Y46138D01*
X480661Y46080D01*
X480719Y46020D01*
X480773Y45957D01*
X480825Y45891D01*
X480874Y45824D01*
X480919Y45754D01*
X480962Y45682D01*
X481001Y45608D01*
X481036Y45532D01*
X481068Y45455D01*
X481096Y45377D01*
X481121Y45297D01*
X481142Y45216D01*
X481159Y45135D01*
X481173Y45053D01*
X481182Y44970D01*
X481188Y44886D01*
X481190Y44803D01*
X481188Y44720D01*
X481182Y44636D01*
X481173Y44553D01*
X481159Y44471D01*
X481142Y44390D01*
X481121Y44309D01*
X481096Y44229D01*
X481068Y44151D01*
X481036Y44074D01*
X481001Y43998D01*
X480962Y43924D01*
X480919Y43852D01*
X480874Y43782D01*
X480825Y43715D01*
X480773Y43649D01*
X480719Y43586D01*
X480661Y43526D01*
X480601Y43468D01*
X480538Y43414D01*
X480472Y43362D01*
X480405Y43313D01*
X480335Y43268D01*
X480263Y43225D01*
X480189Y43186D01*
X480113Y43151D01*
X480036Y43119D01*
X479958Y43091D01*
X479878Y43066D01*
X479797Y43045D01*
X479716Y43028D01*
X479634Y43014D01*
X479551Y43005D01*
X479467Y42999D01*
X479384Y42997D01*
X479301Y42999D01*
X479217Y43005D01*
X479134Y43014D01*
X479052Y43028D01*
X478971Y43045D01*
X478890Y43066D01*
X478810Y43091D01*
X478732Y43119D01*
X478655Y43151D01*
X478579Y43186D01*
X478505Y43225D01*
X478433Y43268D01*
X478363Y43313D01*
X478296Y43362D01*
X478230Y43414D01*
X478167Y43468D01*
X478107Y43526D01*
X478049Y43586D01*
X477995Y43649D01*
X477943Y43715D01*
X477894Y43782D01*
X477849Y43852D01*
X477806Y43924D01*
X477767Y43998D01*
X477732Y44074D01*
X477700Y44151D01*
X477672Y44229D01*
X477647Y44309D01*
X477626Y44390D01*
X477609Y44471D01*
X477595Y44553D01*
X477586Y44636D01*
X477580Y44720D01*
X477578Y44803D01*
X197231Y44351D02*
X197231Y40739D01*
X197231Y44351D02*
X197233Y44444D01*
X197239Y44537D01*
X197248Y44630D01*
X197262Y44723D01*
X197279Y44814D01*
X197300Y44905D01*
X197325Y44995D01*
X197353Y45084D01*
X197385Y45172D01*
X197421Y45258D01*
X197460Y45343D01*
X197503Y45426D01*
X197549Y45507D01*
X197599Y45586D01*
X197651Y45663D01*
X197707Y45738D01*
X197766Y45810D01*
X197828Y45880D01*
X197892Y45948D01*
X197960Y46012D01*
X198030Y46074D01*
X198102Y46133D01*
X198177Y46189D01*
X198254Y46241D01*
X198333Y46291D01*
X198414Y46337D01*
X198497Y46380D01*
X198582Y46419D01*
X198668Y46455D01*
X198756Y46487D01*
X198845Y46515D01*
X198935Y46540D01*
X199026Y46561D01*
X199117Y46578D01*
X199210Y46592D01*
X199303Y46601D01*
X199396Y46607D01*
X199489Y46609D01*
X199582Y46607D01*
X199675Y46601D01*
X199768Y46592D01*
X199861Y46578D01*
X199952Y46561D01*
X200043Y46540D01*
X200133Y46515D01*
X200222Y46487D01*
X200310Y46455D01*
X200396Y46419D01*
X200481Y46380D01*
X200564Y46337D01*
X200645Y46291D01*
X200724Y46241D01*
X200801Y46189D01*
X200876Y46133D01*
X200948Y46074D01*
X201018Y46012D01*
X201086Y45948D01*
X201150Y45880D01*
X201212Y45810D01*
X201271Y45738D01*
X201327Y45663D01*
X201379Y45586D01*
X201429Y45507D01*
X201475Y45426D01*
X201518Y45343D01*
X201557Y45258D01*
X201593Y45172D01*
X201625Y45084D01*
X201653Y44995D01*
X201678Y44905D01*
X201699Y44814D01*
X201716Y44723D01*
X201730Y44630D01*
X201739Y44537D01*
X201745Y44444D01*
X201747Y44351D01*
X201747Y40739D01*
X201745Y40646D01*
X201739Y40553D01*
X201730Y40460D01*
X201716Y40367D01*
X201699Y40276D01*
X201678Y40185D01*
X201653Y40095D01*
X201625Y40006D01*
X201593Y39918D01*
X201557Y39832D01*
X201518Y39747D01*
X201475Y39664D01*
X201429Y39583D01*
X201379Y39504D01*
X201327Y39427D01*
X201271Y39352D01*
X201212Y39280D01*
X201150Y39210D01*
X201086Y39142D01*
X201018Y39078D01*
X200948Y39016D01*
X200876Y38957D01*
X200801Y38901D01*
X200724Y38849D01*
X200645Y38799D01*
X200564Y38753D01*
X200481Y38710D01*
X200396Y38671D01*
X200310Y38635D01*
X200222Y38603D01*
X200133Y38575D01*
X200043Y38550D01*
X199952Y38529D01*
X199861Y38512D01*
X199768Y38498D01*
X199675Y38489D01*
X199582Y38483D01*
X199489Y38481D01*
X199396Y38483D01*
X199303Y38489D01*
X199210Y38498D01*
X199117Y38512D01*
X199026Y38529D01*
X198935Y38550D01*
X198845Y38575D01*
X198756Y38603D01*
X198668Y38635D01*
X198582Y38671D01*
X198497Y38710D01*
X198414Y38753D01*
X198333Y38799D01*
X198254Y38849D01*
X198177Y38901D01*
X198102Y38957D01*
X198030Y39016D01*
X197960Y39078D01*
X197892Y39142D01*
X197828Y39210D01*
X197766Y39280D01*
X197707Y39352D01*
X197651Y39427D01*
X197599Y39504D01*
X197549Y39583D01*
X197503Y39664D01*
X197460Y39747D01*
X197421Y39832D01*
X197385Y39918D01*
X197353Y40006D01*
X197325Y40095D01*
X197300Y40185D01*
X197279Y40276D01*
X197262Y40367D01*
X197248Y40460D01*
X197239Y40553D01*
X197233Y40646D01*
X197231Y40739D01*
X205460Y43900D02*
X205460Y35772D01*
X205460Y43900D02*
X207717Y43900D01*
X207790Y43898D01*
X207863Y43892D01*
X207936Y43882D01*
X208008Y43868D01*
X208079Y43851D01*
X208150Y43829D01*
X208219Y43804D01*
X208286Y43775D01*
X208352Y43742D01*
X208416Y43706D01*
X208477Y43667D01*
X208537Y43624D01*
X208594Y43578D01*
X208649Y43529D01*
X208701Y43477D01*
X208750Y43422D01*
X208796Y43365D01*
X208838Y43305D01*
X208878Y43244D01*
X208914Y43180D01*
X208947Y43114D01*
X208976Y43047D01*
X209001Y42978D01*
X209023Y42908D01*
X209040Y42836D01*
X209054Y42764D01*
X209064Y42692D01*
X209070Y42618D01*
X209072Y42545D01*
X209072Y39836D01*
X209070Y39765D01*
X209065Y39694D01*
X209055Y39624D01*
X209042Y39554D01*
X209026Y39485D01*
X209006Y39417D01*
X208982Y39350D01*
X208955Y39285D01*
X208924Y39221D01*
X208890Y39158D01*
X208853Y39098D01*
X208813Y39040D01*
X208770Y38983D01*
X208724Y38929D01*
X208675Y38878D01*
X208624Y38829D01*
X208570Y38783D01*
X208513Y38740D01*
X208455Y38700D01*
X208394Y38663D01*
X208332Y38629D01*
X208268Y38598D01*
X208203Y38571D01*
X208136Y38547D01*
X208068Y38527D01*
X207999Y38511D01*
X207929Y38498D01*
X207859Y38488D01*
X207788Y38483D01*
X207717Y38481D01*
X205460Y38481D01*
X213706Y38481D02*
X215963Y38481D01*
X213706Y38481D02*
X213635Y38483D01*
X213564Y38488D01*
X213494Y38498D01*
X213424Y38511D01*
X213355Y38527D01*
X213287Y38547D01*
X213220Y38571D01*
X213155Y38598D01*
X213091Y38629D01*
X213029Y38663D01*
X212968Y38700D01*
X212910Y38740D01*
X212853Y38783D01*
X212799Y38829D01*
X212748Y38878D01*
X212699Y38929D01*
X212653Y38983D01*
X212610Y39040D01*
X212570Y39098D01*
X212533Y39159D01*
X212499Y39221D01*
X212468Y39285D01*
X212441Y39350D01*
X212417Y39417D01*
X212397Y39485D01*
X212381Y39554D01*
X212368Y39624D01*
X212358Y39694D01*
X212353Y39765D01*
X212351Y39836D01*
X212351Y42093D01*
X212353Y42176D01*
X212359Y42260D01*
X212368Y42343D01*
X212382Y42425D01*
X212399Y42506D01*
X212420Y42587D01*
X212445Y42667D01*
X212473Y42745D01*
X212505Y42822D01*
X212540Y42898D01*
X212579Y42972D01*
X212622Y43044D01*
X212667Y43114D01*
X212716Y43181D01*
X212768Y43247D01*
X212822Y43310D01*
X212880Y43370D01*
X212940Y43428D01*
X213003Y43482D01*
X213069Y43534D01*
X213136Y43583D01*
X213206Y43628D01*
X213278Y43671D01*
X213352Y43710D01*
X213428Y43745D01*
X213505Y43777D01*
X213583Y43805D01*
X213663Y43830D01*
X213744Y43851D01*
X213825Y43868D01*
X213907Y43882D01*
X213990Y43891D01*
X214074Y43897D01*
X214157Y43899D01*
X214240Y43897D01*
X214324Y43891D01*
X214407Y43882D01*
X214489Y43868D01*
X214570Y43851D01*
X214651Y43830D01*
X214731Y43805D01*
X214809Y43777D01*
X214886Y43745D01*
X214962Y43710D01*
X215036Y43671D01*
X215108Y43628D01*
X215178Y43583D01*
X215245Y43534D01*
X215311Y43482D01*
X215374Y43428D01*
X215434Y43370D01*
X215492Y43310D01*
X215546Y43247D01*
X215598Y43181D01*
X215647Y43114D01*
X215692Y43044D01*
X215735Y42972D01*
X215774Y42898D01*
X215809Y42822D01*
X215841Y42745D01*
X215869Y42667D01*
X215894Y42587D01*
X215915Y42506D01*
X215932Y42425D01*
X215946Y42343D01*
X215955Y42260D01*
X215961Y42176D01*
X215963Y42093D01*
X215963Y41190D01*
X212351Y41190D01*
X219552Y38481D02*
X219552Y43900D01*
X221810Y43900D01*
X221883Y43898D01*
X221956Y43892D01*
X222029Y43882D01*
X222101Y43868D01*
X222172Y43851D01*
X222243Y43829D01*
X222312Y43804D01*
X222379Y43775D01*
X222445Y43742D01*
X222509Y43706D01*
X222570Y43667D01*
X222630Y43624D01*
X222687Y43578D01*
X222742Y43529D01*
X222794Y43477D01*
X222843Y43422D01*
X222889Y43365D01*
X222931Y43305D01*
X222971Y43244D01*
X223007Y43180D01*
X223040Y43114D01*
X223069Y43047D01*
X223094Y42978D01*
X223116Y42908D01*
X223133Y42836D01*
X223147Y42764D01*
X223157Y42692D01*
X223163Y42618D01*
X223165Y42545D01*
X223164Y42545D02*
X223164Y38481D01*
X228617Y38481D02*
X230423Y38481D01*
X228617Y38481D02*
X228534Y38483D01*
X228450Y38489D01*
X228367Y38498D01*
X228285Y38512D01*
X228204Y38529D01*
X228123Y38550D01*
X228043Y38575D01*
X227965Y38603D01*
X227888Y38635D01*
X227812Y38670D01*
X227738Y38709D01*
X227666Y38752D01*
X227596Y38797D01*
X227529Y38846D01*
X227463Y38898D01*
X227400Y38952D01*
X227340Y39010D01*
X227282Y39070D01*
X227228Y39133D01*
X227176Y39199D01*
X227127Y39266D01*
X227082Y39336D01*
X227039Y39408D01*
X227000Y39482D01*
X226965Y39558D01*
X226933Y39635D01*
X226905Y39713D01*
X226880Y39793D01*
X226859Y39874D01*
X226842Y39955D01*
X226828Y40037D01*
X226819Y40120D01*
X226813Y40204D01*
X226811Y40287D01*
X226810Y40287D02*
X226810Y44803D01*
X226811Y44803D02*
X226813Y44886D01*
X226819Y44970D01*
X226828Y45053D01*
X226842Y45135D01*
X226859Y45216D01*
X226880Y45297D01*
X226905Y45377D01*
X226933Y45455D01*
X226965Y45532D01*
X227000Y45608D01*
X227039Y45682D01*
X227082Y45754D01*
X227127Y45824D01*
X227176Y45891D01*
X227228Y45957D01*
X227282Y46020D01*
X227340Y46080D01*
X227400Y46138D01*
X227463Y46192D01*
X227529Y46244D01*
X227596Y46293D01*
X227666Y46338D01*
X227738Y46381D01*
X227812Y46420D01*
X227887Y46455D01*
X227965Y46487D01*
X228043Y46515D01*
X228123Y46540D01*
X228203Y46561D01*
X228285Y46578D01*
X228367Y46592D01*
X228450Y46601D01*
X228534Y46607D01*
X228617Y46609D01*
X230423Y46609D01*
X233851Y46609D02*
X233851Y38481D01*
X236560Y42093D02*
X233851Y46609D01*
X236560Y42093D02*
X239269Y46609D01*
X239269Y38481D01*
X247719Y38481D02*
X247719Y46609D01*
X250428Y42093D01*
X253138Y46609D01*
X253138Y38481D01*
X257238Y40739D02*
X257238Y46609D01*
X257238Y40739D02*
X257240Y40646D01*
X257246Y40553D01*
X257255Y40460D01*
X257269Y40367D01*
X257286Y40276D01*
X257307Y40185D01*
X257332Y40095D01*
X257360Y40006D01*
X257392Y39918D01*
X257428Y39832D01*
X257467Y39747D01*
X257510Y39664D01*
X257556Y39583D01*
X257606Y39504D01*
X257658Y39427D01*
X257714Y39352D01*
X257773Y39280D01*
X257835Y39210D01*
X257899Y39142D01*
X257967Y39078D01*
X258037Y39016D01*
X258109Y38957D01*
X258184Y38901D01*
X258261Y38849D01*
X258340Y38799D01*
X258421Y38753D01*
X258504Y38710D01*
X258589Y38671D01*
X258675Y38635D01*
X258763Y38603D01*
X258852Y38575D01*
X258942Y38550D01*
X259033Y38529D01*
X259124Y38512D01*
X259217Y38498D01*
X259310Y38489D01*
X259403Y38483D01*
X259496Y38481D01*
X259589Y38483D01*
X259682Y38489D01*
X259775Y38498D01*
X259868Y38512D01*
X259959Y38529D01*
X260050Y38550D01*
X260140Y38575D01*
X260229Y38603D01*
X260317Y38635D01*
X260403Y38671D01*
X260488Y38710D01*
X260571Y38753D01*
X260652Y38799D01*
X260731Y38849D01*
X260808Y38901D01*
X260883Y38957D01*
X260955Y39016D01*
X261025Y39078D01*
X261093Y39142D01*
X261157Y39210D01*
X261219Y39280D01*
X261278Y39352D01*
X261334Y39427D01*
X261386Y39504D01*
X261436Y39583D01*
X261482Y39664D01*
X261525Y39747D01*
X261564Y39832D01*
X261600Y39918D01*
X261632Y40006D01*
X261660Y40095D01*
X261685Y40185D01*
X261706Y40276D01*
X261723Y40367D01*
X261737Y40460D01*
X261746Y40553D01*
X261752Y40646D01*
X261754Y40739D01*
X261754Y46609D01*
X270473Y46609D02*
X265054Y38481D01*
X270473Y38481D02*
X265054Y46609D01*
X278369Y41642D02*
X280627Y40739D01*
X278369Y41642D02*
X278307Y41669D01*
X278247Y41699D01*
X278188Y41733D01*
X278131Y41770D01*
X278077Y41811D01*
X278025Y41854D01*
X277976Y41901D01*
X277930Y41950D01*
X277886Y42002D01*
X277846Y42056D01*
X277808Y42113D01*
X277774Y42171D01*
X277744Y42232D01*
X277717Y42294D01*
X277694Y42357D01*
X277674Y42422D01*
X277658Y42488D01*
X277646Y42555D01*
X277638Y42622D01*
X277634Y42689D01*
X277633Y42757D01*
X277637Y42825D01*
X277644Y42892D01*
X277656Y42959D01*
X277671Y43025D01*
X277690Y43090D01*
X277713Y43153D01*
X277739Y43216D01*
X277769Y43276D01*
X277802Y43335D01*
X277839Y43392D01*
X277879Y43447D01*
X277922Y43499D01*
X277968Y43549D01*
X278017Y43596D01*
X278068Y43640D01*
X278122Y43681D01*
X278178Y43719D01*
X278236Y43753D01*
X278296Y43784D01*
X278358Y43812D01*
X278422Y43836D01*
X278486Y43856D01*
X278552Y43873D01*
X278618Y43885D01*
X278686Y43894D01*
X278753Y43899D01*
X278821Y43900D01*
X278821Y43899D02*
X278961Y43896D01*
X279100Y43888D01*
X279240Y43876D01*
X279379Y43861D01*
X279517Y43842D01*
X279655Y43819D01*
X279792Y43793D01*
X279929Y43762D01*
X280064Y43728D01*
X280199Y43691D01*
X280332Y43649D01*
X280464Y43604D01*
X280595Y43556D01*
X280725Y43504D01*
X280853Y43448D01*
X280627Y40739D02*
X280689Y40712D01*
X280749Y40682D01*
X280808Y40648D01*
X280865Y40611D01*
X280919Y40570D01*
X280971Y40527D01*
X281020Y40480D01*
X281066Y40431D01*
X281110Y40379D01*
X281150Y40325D01*
X281188Y40268D01*
X281222Y40210D01*
X281252Y40149D01*
X281279Y40087D01*
X281302Y40024D01*
X281322Y39959D01*
X281338Y39893D01*
X281350Y39826D01*
X281358Y39759D01*
X281362Y39692D01*
X281363Y39624D01*
X281359Y39556D01*
X281352Y39489D01*
X281340Y39422D01*
X281325Y39356D01*
X281306Y39291D01*
X281283Y39228D01*
X281257Y39165D01*
X281227Y39105D01*
X281194Y39046D01*
X281157Y38989D01*
X281117Y38934D01*
X281074Y38882D01*
X281028Y38832D01*
X280979Y38785D01*
X280928Y38741D01*
X280874Y38700D01*
X280818Y38662D01*
X280760Y38628D01*
X280700Y38597D01*
X280638Y38569D01*
X280574Y38545D01*
X280510Y38525D01*
X280444Y38508D01*
X280378Y38496D01*
X280310Y38487D01*
X280243Y38482D01*
X280175Y38481D01*
X280176Y38481D02*
X279995Y38486D01*
X279814Y38495D01*
X279633Y38508D01*
X279453Y38525D01*
X279273Y38547D01*
X279094Y38573D01*
X278915Y38604D01*
X278737Y38638D01*
X278560Y38677D01*
X278384Y38720D01*
X278210Y38767D01*
X278036Y38818D01*
X277863Y38873D01*
X277692Y38932D01*
X284893Y38481D02*
X284893Y46609D01*
X284893Y43900D02*
X287151Y43900D01*
X287224Y43898D01*
X287297Y43892D01*
X287370Y43882D01*
X287442Y43868D01*
X287513Y43851D01*
X287584Y43829D01*
X287653Y43804D01*
X287720Y43775D01*
X287786Y43742D01*
X287850Y43706D01*
X287911Y43667D01*
X287971Y43624D01*
X288028Y43578D01*
X288083Y43529D01*
X288135Y43477D01*
X288184Y43422D01*
X288230Y43365D01*
X288272Y43305D01*
X288312Y43244D01*
X288348Y43180D01*
X288381Y43114D01*
X288410Y43047D01*
X288435Y42978D01*
X288457Y42908D01*
X288474Y42836D01*
X288488Y42764D01*
X288498Y42692D01*
X288504Y42618D01*
X288506Y42545D01*
X288505Y42545D02*
X288505Y38481D01*
X292033Y38481D02*
X292033Y43900D01*
X291807Y46157D02*
X291807Y46609D01*
X292259Y46609D01*
X292259Y46157D01*
X291807Y46157D01*
X296649Y38481D02*
X298907Y38481D01*
X296649Y38481D02*
X296578Y38483D01*
X296507Y38488D01*
X296437Y38498D01*
X296367Y38511D01*
X296298Y38527D01*
X296230Y38547D01*
X296163Y38571D01*
X296098Y38598D01*
X296034Y38629D01*
X295972Y38663D01*
X295911Y38700D01*
X295853Y38740D01*
X295796Y38783D01*
X295742Y38829D01*
X295691Y38878D01*
X295642Y38929D01*
X295596Y38983D01*
X295553Y39040D01*
X295513Y39098D01*
X295476Y39159D01*
X295442Y39221D01*
X295411Y39285D01*
X295384Y39350D01*
X295360Y39417D01*
X295340Y39485D01*
X295324Y39554D01*
X295311Y39624D01*
X295301Y39694D01*
X295296Y39765D01*
X295294Y39836D01*
X295294Y42093D01*
X295296Y42176D01*
X295302Y42260D01*
X295311Y42343D01*
X295325Y42425D01*
X295342Y42506D01*
X295363Y42587D01*
X295388Y42667D01*
X295416Y42745D01*
X295448Y42822D01*
X295483Y42898D01*
X295522Y42972D01*
X295565Y43044D01*
X295610Y43114D01*
X295659Y43181D01*
X295711Y43247D01*
X295765Y43310D01*
X295823Y43370D01*
X295883Y43428D01*
X295946Y43482D01*
X296012Y43534D01*
X296079Y43583D01*
X296149Y43628D01*
X296221Y43671D01*
X296295Y43710D01*
X296371Y43745D01*
X296448Y43777D01*
X296526Y43805D01*
X296606Y43830D01*
X296687Y43851D01*
X296768Y43868D01*
X296850Y43882D01*
X296933Y43891D01*
X297017Y43897D01*
X297100Y43899D01*
X297183Y43897D01*
X297267Y43891D01*
X297350Y43882D01*
X297432Y43868D01*
X297513Y43851D01*
X297594Y43830D01*
X297674Y43805D01*
X297752Y43777D01*
X297829Y43745D01*
X297905Y43710D01*
X297979Y43671D01*
X298051Y43628D01*
X298121Y43583D01*
X298188Y43534D01*
X298254Y43482D01*
X298317Y43428D01*
X298377Y43370D01*
X298435Y43310D01*
X298489Y43247D01*
X298541Y43181D01*
X298590Y43114D01*
X298635Y43044D01*
X298678Y42972D01*
X298717Y42898D01*
X298752Y42822D01*
X298784Y42745D01*
X298812Y42667D01*
X298837Y42587D01*
X298858Y42506D01*
X298875Y42425D01*
X298889Y42343D01*
X298898Y42260D01*
X298904Y42176D01*
X298906Y42093D01*
X298907Y42093D02*
X298907Y41190D01*
X295294Y41190D01*
X302327Y39836D02*
X302327Y46609D01*
X302327Y39836D02*
X302329Y39765D01*
X302334Y39694D01*
X302344Y39624D01*
X302357Y39554D01*
X302373Y39485D01*
X302393Y39417D01*
X302417Y39350D01*
X302444Y39285D01*
X302475Y39221D01*
X302509Y39159D01*
X302546Y39098D01*
X302586Y39040D01*
X302629Y38983D01*
X302675Y38929D01*
X302724Y38878D01*
X302775Y38829D01*
X302829Y38783D01*
X302886Y38740D01*
X302944Y38700D01*
X303005Y38663D01*
X303067Y38629D01*
X303131Y38598D01*
X303196Y38571D01*
X303263Y38547D01*
X303331Y38527D01*
X303400Y38511D01*
X303470Y38498D01*
X303540Y38488D01*
X303611Y38483D01*
X303682Y38481D01*
X310065Y38481D02*
X310065Y46609D01*
X310065Y38481D02*
X307808Y38481D01*
X307737Y38483D01*
X307666Y38488D01*
X307596Y38498D01*
X307526Y38511D01*
X307457Y38527D01*
X307389Y38547D01*
X307322Y38571D01*
X307257Y38598D01*
X307193Y38629D01*
X307131Y38663D01*
X307070Y38700D01*
X307012Y38740D01*
X306955Y38783D01*
X306901Y38829D01*
X306850Y38878D01*
X306801Y38929D01*
X306755Y38983D01*
X306712Y39040D01*
X306672Y39098D01*
X306635Y39159D01*
X306601Y39221D01*
X306570Y39285D01*
X306543Y39350D01*
X306519Y39417D01*
X306499Y39485D01*
X306483Y39554D01*
X306470Y39624D01*
X306460Y39694D01*
X306455Y39765D01*
X306453Y39836D01*
X306453Y42545D01*
X306455Y42616D01*
X306460Y42687D01*
X306470Y42757D01*
X306483Y42827D01*
X306499Y42896D01*
X306519Y42964D01*
X306543Y43031D01*
X306570Y43096D01*
X306601Y43160D01*
X306635Y43223D01*
X306672Y43283D01*
X306712Y43341D01*
X306755Y43398D01*
X306801Y43452D01*
X306850Y43503D01*
X306901Y43552D01*
X306955Y43598D01*
X307012Y43641D01*
X307070Y43681D01*
X307131Y43718D01*
X307193Y43752D01*
X307257Y43783D01*
X307322Y43810D01*
X307389Y43834D01*
X307457Y43854D01*
X307526Y43870D01*
X307596Y43883D01*
X307666Y43893D01*
X307737Y43898D01*
X307808Y43900D01*
X310065Y43900D01*
X317697Y43900D02*
X319503Y38481D01*
X321309Y43900D01*
X324446Y44803D02*
X326704Y46609D01*
X326704Y38481D01*
X324446Y38481D02*
X328962Y38481D01*
X332079Y38481D02*
X332079Y38933D01*
X332530Y38933D01*
X332530Y38481D01*
X332079Y38481D01*
X335648Y44803D02*
X337905Y46609D01*
X337905Y38481D01*
X335648Y38481D02*
X340163Y38481D01*
X218990Y660781D02*
X216281Y660781D01*
X218990Y660781D02*
X219073Y660783D01*
X219157Y660789D01*
X219240Y660798D01*
X219322Y660812D01*
X219403Y660829D01*
X219484Y660850D01*
X219564Y660875D01*
X219642Y660903D01*
X219719Y660935D01*
X219795Y660970D01*
X219869Y661009D01*
X219941Y661052D01*
X220011Y661097D01*
X220078Y661146D01*
X220144Y661198D01*
X220207Y661252D01*
X220267Y661310D01*
X220325Y661370D01*
X220379Y661433D01*
X220431Y661499D01*
X220480Y661566D01*
X220526Y661636D01*
X220568Y661708D01*
X220607Y661782D01*
X220642Y661858D01*
X220674Y661935D01*
X220702Y662013D01*
X220727Y662093D01*
X220748Y662174D01*
X220765Y662255D01*
X220779Y662338D01*
X220788Y662420D01*
X220794Y662504D01*
X220796Y662587D01*
X220797Y662587D02*
X220797Y663490D01*
X220796Y663490D02*
X220794Y663573D01*
X220788Y663657D01*
X220779Y663740D01*
X220765Y663822D01*
X220748Y663903D01*
X220727Y663984D01*
X220702Y664064D01*
X220674Y664142D01*
X220642Y664219D01*
X220607Y664295D01*
X220568Y664369D01*
X220525Y664441D01*
X220480Y664511D01*
X220431Y664578D01*
X220379Y664644D01*
X220325Y664707D01*
X220267Y664767D01*
X220207Y664825D01*
X220144Y664879D01*
X220078Y664931D01*
X220011Y664980D01*
X219941Y665025D01*
X219869Y665068D01*
X219795Y665107D01*
X219719Y665142D01*
X219642Y665174D01*
X219564Y665202D01*
X219484Y665227D01*
X219403Y665248D01*
X219322Y665265D01*
X219240Y665279D01*
X219157Y665288D01*
X219073Y665294D01*
X218990Y665296D01*
X218990Y665297D02*
X216281Y665297D01*
X216281Y668909D01*
X220797Y668909D01*
X223830Y668909D02*
X226540Y660781D01*
X229249Y668909D01*
X260731Y660781D02*
X262989Y660781D01*
X263082Y660783D01*
X263175Y660789D01*
X263268Y660798D01*
X263361Y660812D01*
X263452Y660829D01*
X263543Y660850D01*
X263633Y660875D01*
X263722Y660903D01*
X263810Y660935D01*
X263896Y660971D01*
X263981Y661010D01*
X264064Y661053D01*
X264145Y661099D01*
X264224Y661149D01*
X264301Y661201D01*
X264376Y661257D01*
X264448Y661316D01*
X264518Y661378D01*
X264586Y661442D01*
X264650Y661510D01*
X264712Y661580D01*
X264771Y661652D01*
X264827Y661727D01*
X264879Y661804D01*
X264929Y661883D01*
X264975Y661964D01*
X265018Y662047D01*
X265057Y662132D01*
X265093Y662218D01*
X265125Y662306D01*
X265153Y662395D01*
X265178Y662485D01*
X265199Y662576D01*
X265216Y662667D01*
X265230Y662760D01*
X265239Y662853D01*
X265245Y662946D01*
X265247Y663039D01*
X265245Y663132D01*
X265239Y663225D01*
X265230Y663318D01*
X265216Y663411D01*
X265199Y663502D01*
X265178Y663593D01*
X265153Y663683D01*
X265125Y663772D01*
X265093Y663860D01*
X265057Y663946D01*
X265018Y664031D01*
X264975Y664114D01*
X264929Y664195D01*
X264879Y664274D01*
X264827Y664351D01*
X264771Y664426D01*
X264712Y664498D01*
X264650Y664568D01*
X264586Y664636D01*
X264518Y664700D01*
X264448Y664762D01*
X264376Y664821D01*
X264301Y664877D01*
X264224Y664929D01*
X264145Y664979D01*
X264064Y665025D01*
X263981Y665068D01*
X263896Y665107D01*
X263810Y665143D01*
X263722Y665175D01*
X263633Y665203D01*
X263543Y665228D01*
X263452Y665249D01*
X263361Y665266D01*
X263268Y665280D01*
X263175Y665289D01*
X263082Y665295D01*
X262989Y665297D01*
X263440Y668909D02*
X260731Y668909D01*
X263440Y668909D02*
X263523Y668907D01*
X263607Y668901D01*
X263690Y668892D01*
X263772Y668878D01*
X263853Y668861D01*
X263934Y668840D01*
X264014Y668815D01*
X264092Y668787D01*
X264169Y668755D01*
X264245Y668720D01*
X264319Y668681D01*
X264391Y668638D01*
X264461Y668593D01*
X264528Y668544D01*
X264594Y668492D01*
X264657Y668438D01*
X264717Y668380D01*
X264775Y668320D01*
X264829Y668257D01*
X264881Y668191D01*
X264930Y668124D01*
X264975Y668054D01*
X265018Y667982D01*
X265057Y667908D01*
X265092Y667832D01*
X265124Y667755D01*
X265152Y667677D01*
X265177Y667597D01*
X265198Y667516D01*
X265215Y667435D01*
X265229Y667353D01*
X265238Y667270D01*
X265244Y667186D01*
X265246Y667103D01*
X265244Y667020D01*
X265238Y666936D01*
X265229Y666853D01*
X265215Y666771D01*
X265198Y666690D01*
X265177Y666609D01*
X265152Y666529D01*
X265124Y666451D01*
X265092Y666374D01*
X265057Y666298D01*
X265018Y666224D01*
X264975Y666152D01*
X264930Y666082D01*
X264881Y666015D01*
X264829Y665949D01*
X264775Y665886D01*
X264717Y665826D01*
X264657Y665768D01*
X264594Y665714D01*
X264528Y665662D01*
X264461Y665613D01*
X264391Y665568D01*
X264319Y665525D01*
X264245Y665486D01*
X264169Y665451D01*
X264092Y665419D01*
X264014Y665391D01*
X263934Y665366D01*
X263853Y665345D01*
X263772Y665328D01*
X263690Y665314D01*
X263607Y665305D01*
X263523Y665299D01*
X263440Y665297D01*
X261634Y665297D01*
X268364Y661233D02*
X268364Y660781D01*
X268364Y661233D02*
X268815Y661233D01*
X268815Y660781D01*
X268364Y660781D01*
X271932Y660781D02*
X274190Y660781D01*
X274283Y660783D01*
X274376Y660789D01*
X274469Y660798D01*
X274562Y660812D01*
X274653Y660829D01*
X274744Y660850D01*
X274834Y660875D01*
X274923Y660903D01*
X275011Y660935D01*
X275097Y660971D01*
X275182Y661010D01*
X275265Y661053D01*
X275346Y661099D01*
X275425Y661149D01*
X275502Y661201D01*
X275577Y661257D01*
X275649Y661316D01*
X275719Y661378D01*
X275787Y661442D01*
X275851Y661510D01*
X275913Y661580D01*
X275972Y661652D01*
X276028Y661727D01*
X276080Y661804D01*
X276130Y661883D01*
X276176Y661964D01*
X276219Y662047D01*
X276258Y662132D01*
X276294Y662218D01*
X276326Y662306D01*
X276354Y662395D01*
X276379Y662485D01*
X276400Y662576D01*
X276417Y662667D01*
X276431Y662760D01*
X276440Y662853D01*
X276446Y662946D01*
X276448Y663039D01*
X276446Y663132D01*
X276440Y663225D01*
X276431Y663318D01*
X276417Y663411D01*
X276400Y663502D01*
X276379Y663593D01*
X276354Y663683D01*
X276326Y663772D01*
X276294Y663860D01*
X276258Y663946D01*
X276219Y664031D01*
X276176Y664114D01*
X276130Y664195D01*
X276080Y664274D01*
X276028Y664351D01*
X275972Y664426D01*
X275913Y664498D01*
X275851Y664568D01*
X275787Y664636D01*
X275719Y664700D01*
X275649Y664762D01*
X275577Y664821D01*
X275502Y664877D01*
X275425Y664929D01*
X275346Y664979D01*
X275265Y665025D01*
X275182Y665068D01*
X275097Y665107D01*
X275011Y665143D01*
X274923Y665175D01*
X274834Y665203D01*
X274744Y665228D01*
X274653Y665249D01*
X274562Y665266D01*
X274469Y665280D01*
X274376Y665289D01*
X274283Y665295D01*
X274190Y665297D01*
X274642Y668909D02*
X271932Y668909D01*
X274642Y668909D02*
X274725Y668907D01*
X274809Y668901D01*
X274892Y668892D01*
X274974Y668878D01*
X275055Y668861D01*
X275136Y668840D01*
X275216Y668815D01*
X275294Y668787D01*
X275371Y668755D01*
X275447Y668720D01*
X275521Y668681D01*
X275593Y668638D01*
X275663Y668593D01*
X275730Y668544D01*
X275796Y668492D01*
X275859Y668438D01*
X275919Y668380D01*
X275977Y668320D01*
X276031Y668257D01*
X276083Y668191D01*
X276132Y668124D01*
X276177Y668054D01*
X276220Y667982D01*
X276259Y667908D01*
X276294Y667832D01*
X276326Y667755D01*
X276354Y667677D01*
X276379Y667597D01*
X276400Y667516D01*
X276417Y667435D01*
X276431Y667353D01*
X276440Y667270D01*
X276446Y667186D01*
X276448Y667103D01*
X276446Y667020D01*
X276440Y666936D01*
X276431Y666853D01*
X276417Y666771D01*
X276400Y666690D01*
X276379Y666609D01*
X276354Y666529D01*
X276326Y666451D01*
X276294Y666374D01*
X276259Y666298D01*
X276220Y666224D01*
X276177Y666152D01*
X276132Y666082D01*
X276083Y666015D01*
X276031Y665949D01*
X275977Y665886D01*
X275919Y665826D01*
X275859Y665768D01*
X275796Y665714D01*
X275730Y665662D01*
X275663Y665613D01*
X275593Y665568D01*
X275521Y665525D01*
X275447Y665486D01*
X275371Y665451D01*
X275294Y665419D01*
X275216Y665391D01*
X275136Y665366D01*
X275055Y665345D01*
X274974Y665328D01*
X274892Y665314D01*
X274809Y665305D01*
X274725Y665299D01*
X274642Y665297D01*
X272835Y665297D01*
X279482Y668909D02*
X282191Y660781D01*
X284900Y668909D01*
X430770Y566208D02*
X430915Y566140D01*
X431061Y566075D01*
X431208Y566014D01*
X431357Y565956D01*
X431508Y565902D01*
X431660Y565851D01*
X431812Y565804D01*
X431966Y565761D01*
X432121Y565721D01*
X432277Y565685D01*
X432434Y565653D01*
X432591Y565624D01*
X432749Y565600D01*
X432907Y565579D01*
X433066Y565562D01*
X433226Y565548D01*
X433385Y565539D01*
X433545Y565533D01*
X433705Y565531D01*
X430770Y566208D02*
X430695Y566236D01*
X430622Y566267D01*
X430550Y566302D01*
X430480Y566340D01*
X430412Y566381D01*
X430346Y566426D01*
X430282Y566473D01*
X430220Y566524D01*
X430161Y566577D01*
X430105Y566634D01*
X430051Y566693D01*
X430000Y566754D01*
X429952Y566818D01*
X429907Y566884D01*
X429866Y566952D01*
X429828Y567022D01*
X429793Y567093D01*
X429761Y567167D01*
X429733Y567241D01*
X429709Y567317D01*
X429688Y567394D01*
X429671Y567472D01*
X429658Y567551D01*
X429649Y567630D01*
X429643Y567709D01*
X429641Y567789D01*
X429643Y567869D01*
X429649Y567948D01*
X429658Y568027D01*
X429671Y568106D01*
X429688Y568184D01*
X429709Y568261D01*
X429733Y568337D01*
X429761Y568411D01*
X429793Y568485D01*
X429828Y568556D01*
X429866Y568626D01*
X429907Y568694D01*
X429952Y568760D01*
X430000Y568824D01*
X430051Y568885D01*
X430105Y568944D01*
X430161Y569001D01*
X430220Y569054D01*
X430282Y569105D01*
X430346Y569152D01*
X430412Y569197D01*
X430480Y569238D01*
X430550Y569276D01*
X430622Y569311D01*
X430695Y569342D01*
X430770Y569370D01*
X430770Y569369D02*
X430915Y569437D01*
X431061Y569502D01*
X431208Y569563D01*
X431357Y569621D01*
X431508Y569675D01*
X431660Y569726D01*
X431812Y569773D01*
X431966Y569816D01*
X432121Y569856D01*
X432277Y569892D01*
X432434Y569924D01*
X432591Y569953D01*
X432749Y569977D01*
X432907Y569998D01*
X433066Y570015D01*
X433226Y570029D01*
X433385Y570038D01*
X433545Y570044D01*
X433705Y570046D01*
X433705Y565531D02*
X433865Y565533D01*
X434025Y565539D01*
X434184Y565548D01*
X434344Y565562D01*
X434503Y565579D01*
X434661Y565600D01*
X434819Y565624D01*
X434976Y565653D01*
X435133Y565685D01*
X435289Y565721D01*
X435444Y565761D01*
X435598Y565804D01*
X435750Y565851D01*
X435902Y565902D01*
X436053Y565956D01*
X436202Y566014D01*
X436349Y566075D01*
X436495Y566140D01*
X436640Y566208D01*
X436715Y566236D01*
X436788Y566267D01*
X436860Y566302D01*
X436930Y566340D01*
X436998Y566381D01*
X437064Y566426D01*
X437128Y566473D01*
X437190Y566524D01*
X437249Y566577D01*
X437305Y566634D01*
X437359Y566693D01*
X437410Y566754D01*
X437458Y566818D01*
X437503Y566884D01*
X437544Y566952D01*
X437582Y567022D01*
X437617Y567093D01*
X437649Y567167D01*
X437677Y567241D01*
X437701Y567317D01*
X437722Y567394D01*
X437739Y567472D01*
X437752Y567551D01*
X437761Y567630D01*
X437767Y567709D01*
X437769Y567789D01*
X436640Y569369D02*
X436495Y569437D01*
X436349Y569502D01*
X436202Y569563D01*
X436053Y569621D01*
X435902Y569675D01*
X435750Y569726D01*
X435598Y569773D01*
X435444Y569816D01*
X435289Y569856D01*
X435133Y569892D01*
X434976Y569924D01*
X434819Y569953D01*
X434661Y569977D01*
X434503Y569998D01*
X434344Y570015D01*
X434184Y570029D01*
X434025Y570038D01*
X433865Y570044D01*
X433705Y570046D01*
X436640Y569370D02*
X436715Y569342D01*
X436788Y569311D01*
X436860Y569276D01*
X436930Y569238D01*
X436998Y569197D01*
X437064Y569152D01*
X437128Y569105D01*
X437190Y569054D01*
X437249Y569001D01*
X437305Y568944D01*
X437359Y568885D01*
X437410Y568824D01*
X437458Y568760D01*
X437503Y568694D01*
X437544Y568626D01*
X437582Y568556D01*
X437617Y568485D01*
X437649Y568411D01*
X437677Y568337D01*
X437701Y568261D01*
X437722Y568184D01*
X437739Y568106D01*
X437752Y568027D01*
X437761Y567948D01*
X437767Y567869D01*
X437769Y567789D01*
X435963Y565983D02*
X431447Y569595D01*
X430770Y363008D02*
X430915Y362940D01*
X431061Y362875D01*
X431208Y362814D01*
X431357Y362756D01*
X431508Y362702D01*
X431660Y362651D01*
X431812Y362604D01*
X431966Y362561D01*
X432121Y362521D01*
X432277Y362485D01*
X432434Y362453D01*
X432591Y362424D01*
X432749Y362400D01*
X432907Y362379D01*
X433066Y362362D01*
X433226Y362348D01*
X433385Y362339D01*
X433545Y362333D01*
X433705Y362331D01*
X430770Y363008D02*
X430695Y363036D01*
X430622Y363067D01*
X430550Y363102D01*
X430480Y363140D01*
X430412Y363181D01*
X430346Y363226D01*
X430282Y363273D01*
X430220Y363324D01*
X430161Y363377D01*
X430105Y363434D01*
X430051Y363493D01*
X430000Y363554D01*
X429952Y363618D01*
X429907Y363684D01*
X429866Y363752D01*
X429828Y363822D01*
X429793Y363893D01*
X429761Y363967D01*
X429733Y364041D01*
X429709Y364117D01*
X429688Y364194D01*
X429671Y364272D01*
X429658Y364351D01*
X429649Y364430D01*
X429643Y364509D01*
X429641Y364589D01*
X429643Y364669D01*
X429649Y364748D01*
X429658Y364827D01*
X429671Y364906D01*
X429688Y364984D01*
X429709Y365061D01*
X429733Y365137D01*
X429761Y365211D01*
X429793Y365285D01*
X429828Y365356D01*
X429866Y365426D01*
X429907Y365494D01*
X429952Y365560D01*
X430000Y365624D01*
X430051Y365685D01*
X430105Y365744D01*
X430161Y365801D01*
X430220Y365854D01*
X430282Y365905D01*
X430346Y365952D01*
X430412Y365997D01*
X430480Y366038D01*
X430550Y366076D01*
X430622Y366111D01*
X430695Y366142D01*
X430770Y366170D01*
X430770Y366169D02*
X430915Y366237D01*
X431061Y366302D01*
X431208Y366363D01*
X431357Y366421D01*
X431508Y366475D01*
X431660Y366526D01*
X431812Y366573D01*
X431966Y366616D01*
X432121Y366656D01*
X432277Y366692D01*
X432434Y366724D01*
X432591Y366753D01*
X432749Y366777D01*
X432907Y366798D01*
X433066Y366815D01*
X433226Y366829D01*
X433385Y366838D01*
X433545Y366844D01*
X433705Y366846D01*
X433705Y362331D02*
X433865Y362333D01*
X434025Y362339D01*
X434184Y362348D01*
X434344Y362362D01*
X434503Y362379D01*
X434661Y362400D01*
X434819Y362424D01*
X434976Y362453D01*
X435133Y362485D01*
X435289Y362521D01*
X435444Y362561D01*
X435598Y362604D01*
X435750Y362651D01*
X435902Y362702D01*
X436053Y362756D01*
X436202Y362814D01*
X436349Y362875D01*
X436495Y362940D01*
X436640Y363008D01*
X436715Y363036D01*
X436788Y363067D01*
X436860Y363102D01*
X436930Y363140D01*
X436998Y363181D01*
X437064Y363226D01*
X437128Y363273D01*
X437190Y363324D01*
X437249Y363377D01*
X437305Y363434D01*
X437359Y363493D01*
X437410Y363554D01*
X437458Y363618D01*
X437503Y363684D01*
X437544Y363752D01*
X437582Y363822D01*
X437617Y363893D01*
X437649Y363967D01*
X437677Y364041D01*
X437701Y364117D01*
X437722Y364194D01*
X437739Y364272D01*
X437752Y364351D01*
X437761Y364430D01*
X437767Y364509D01*
X437769Y364589D01*
X436640Y366169D02*
X436495Y366237D01*
X436349Y366302D01*
X436202Y366363D01*
X436053Y366421D01*
X435902Y366475D01*
X435750Y366526D01*
X435598Y366573D01*
X435444Y366616D01*
X435289Y366656D01*
X435133Y366692D01*
X434976Y366724D01*
X434819Y366753D01*
X434661Y366777D01*
X434503Y366798D01*
X434344Y366815D01*
X434184Y366829D01*
X434025Y366838D01*
X433865Y366844D01*
X433705Y366846D01*
X436640Y366170D02*
X436715Y366142D01*
X436788Y366111D01*
X436860Y366076D01*
X436930Y366038D01*
X436998Y365997D01*
X437064Y365952D01*
X437128Y365905D01*
X437190Y365854D01*
X437249Y365801D01*
X437305Y365744D01*
X437359Y365685D01*
X437410Y365624D01*
X437458Y365560D01*
X437503Y365494D01*
X437544Y365426D01*
X437582Y365356D01*
X437617Y365285D01*
X437649Y365211D01*
X437677Y365137D01*
X437701Y365061D01*
X437722Y364984D01*
X437739Y364906D01*
X437752Y364827D01*
X437761Y364748D01*
X437767Y364669D01*
X437769Y364589D01*
X435963Y362783D02*
X431447Y366395D01*
X430770Y159808D02*
X430915Y159740D01*
X431061Y159675D01*
X431208Y159614D01*
X431357Y159556D01*
X431508Y159502D01*
X431660Y159451D01*
X431812Y159404D01*
X431966Y159361D01*
X432121Y159321D01*
X432277Y159285D01*
X432434Y159253D01*
X432591Y159224D01*
X432749Y159200D01*
X432907Y159179D01*
X433066Y159162D01*
X433226Y159148D01*
X433385Y159139D01*
X433545Y159133D01*
X433705Y159131D01*
X430770Y159808D02*
X430695Y159836D01*
X430622Y159867D01*
X430550Y159902D01*
X430480Y159940D01*
X430412Y159981D01*
X430346Y160026D01*
X430282Y160073D01*
X430220Y160124D01*
X430161Y160177D01*
X430105Y160234D01*
X430051Y160293D01*
X430000Y160354D01*
X429952Y160418D01*
X429907Y160484D01*
X429866Y160552D01*
X429828Y160622D01*
X429793Y160693D01*
X429761Y160767D01*
X429733Y160841D01*
X429709Y160917D01*
X429688Y160994D01*
X429671Y161072D01*
X429658Y161151D01*
X429649Y161230D01*
X429643Y161309D01*
X429641Y161389D01*
X429643Y161469D01*
X429649Y161548D01*
X429658Y161627D01*
X429671Y161706D01*
X429688Y161784D01*
X429709Y161861D01*
X429733Y161937D01*
X429761Y162011D01*
X429793Y162085D01*
X429828Y162156D01*
X429866Y162226D01*
X429907Y162294D01*
X429952Y162360D01*
X430000Y162424D01*
X430051Y162485D01*
X430105Y162544D01*
X430161Y162601D01*
X430220Y162654D01*
X430282Y162705D01*
X430346Y162752D01*
X430412Y162797D01*
X430480Y162838D01*
X430550Y162876D01*
X430622Y162911D01*
X430695Y162942D01*
X430770Y162970D01*
X430770Y162969D02*
X430915Y163037D01*
X431061Y163102D01*
X431208Y163163D01*
X431357Y163221D01*
X431508Y163275D01*
X431660Y163326D01*
X431812Y163373D01*
X431966Y163416D01*
X432121Y163456D01*
X432277Y163492D01*
X432434Y163524D01*
X432591Y163553D01*
X432749Y163577D01*
X432907Y163598D01*
X433066Y163615D01*
X433226Y163629D01*
X433385Y163638D01*
X433545Y163644D01*
X433705Y163646D01*
X433705Y159131D02*
X433865Y159133D01*
X434025Y159139D01*
X434184Y159148D01*
X434344Y159162D01*
X434503Y159179D01*
X434661Y159200D01*
X434819Y159224D01*
X434976Y159253D01*
X435133Y159285D01*
X435289Y159321D01*
X435444Y159361D01*
X435598Y159404D01*
X435750Y159451D01*
X435902Y159502D01*
X436053Y159556D01*
X436202Y159614D01*
X436349Y159675D01*
X436495Y159740D01*
X436640Y159808D01*
X436715Y159836D01*
X436788Y159867D01*
X436860Y159902D01*
X436930Y159940D01*
X436998Y159981D01*
X437064Y160026D01*
X437128Y160073D01*
X437190Y160124D01*
X437249Y160177D01*
X437305Y160234D01*
X437359Y160293D01*
X437410Y160354D01*
X437458Y160418D01*
X437503Y160484D01*
X437544Y160552D01*
X437582Y160622D01*
X437617Y160693D01*
X437649Y160767D01*
X437677Y160841D01*
X437701Y160917D01*
X437722Y160994D01*
X437739Y161072D01*
X437752Y161151D01*
X437761Y161230D01*
X437767Y161309D01*
X437769Y161389D01*
X436640Y162969D02*
X436495Y163037D01*
X436349Y163102D01*
X436202Y163163D01*
X436053Y163221D01*
X435902Y163275D01*
X435750Y163326D01*
X435598Y163373D01*
X435444Y163416D01*
X435289Y163456D01*
X435133Y163492D01*
X434976Y163524D01*
X434819Y163553D01*
X434661Y163577D01*
X434503Y163598D01*
X434344Y163615D01*
X434184Y163629D01*
X434025Y163638D01*
X433865Y163644D01*
X433705Y163646D01*
X436640Y162970D02*
X436715Y162942D01*
X436788Y162911D01*
X436860Y162876D01*
X436930Y162838D01*
X436998Y162797D01*
X437064Y162752D01*
X437128Y162705D01*
X437190Y162654D01*
X437249Y162601D01*
X437305Y162544D01*
X437359Y162485D01*
X437410Y162424D01*
X437458Y162360D01*
X437503Y162294D01*
X437544Y162226D01*
X437582Y162156D01*
X437617Y162085D01*
X437649Y162011D01*
X437677Y161937D01*
X437701Y161861D01*
X437722Y161784D01*
X437739Y161706D01*
X437752Y161627D01*
X437761Y161548D01*
X437767Y161469D01*
X437769Y161389D01*
X435963Y159583D02*
X431447Y163195D01*
X437769Y286131D02*
X437769Y288840D01*
X437767Y288923D01*
X437761Y289007D01*
X437752Y289090D01*
X437738Y289172D01*
X437721Y289253D01*
X437700Y289334D01*
X437675Y289414D01*
X437647Y289492D01*
X437615Y289569D01*
X437580Y289645D01*
X437541Y289719D01*
X437498Y289791D01*
X437453Y289861D01*
X437404Y289928D01*
X437352Y289994D01*
X437298Y290057D01*
X437240Y290117D01*
X437180Y290175D01*
X437117Y290229D01*
X437051Y290281D01*
X436984Y290330D01*
X436914Y290375D01*
X436842Y290418D01*
X436768Y290457D01*
X436692Y290492D01*
X436615Y290524D01*
X436537Y290552D01*
X436457Y290577D01*
X436376Y290598D01*
X436295Y290615D01*
X436213Y290629D01*
X436130Y290638D01*
X436046Y290644D01*
X435963Y290646D01*
X435963Y290647D02*
X435060Y290647D01*
X435060Y290646D02*
X434977Y290644D01*
X434893Y290638D01*
X434810Y290629D01*
X434728Y290615D01*
X434647Y290598D01*
X434566Y290577D01*
X434486Y290552D01*
X434408Y290524D01*
X434331Y290492D01*
X434255Y290457D01*
X434181Y290418D01*
X434109Y290375D01*
X434039Y290330D01*
X433972Y290281D01*
X433906Y290229D01*
X433843Y290175D01*
X433783Y290117D01*
X433725Y290057D01*
X433671Y289994D01*
X433619Y289928D01*
X433570Y289861D01*
X433525Y289791D01*
X433482Y289719D01*
X433443Y289645D01*
X433408Y289570D01*
X433376Y289492D01*
X433348Y289414D01*
X433323Y289334D01*
X433302Y289254D01*
X433285Y289172D01*
X433271Y289090D01*
X433262Y289007D01*
X433256Y288923D01*
X433254Y288840D01*
X433253Y288840D02*
X433253Y286131D01*
X429641Y286131D01*
X429641Y290647D01*
X437769Y489331D02*
X437769Y492040D01*
X437767Y492123D01*
X437761Y492207D01*
X437752Y492290D01*
X437738Y492372D01*
X437721Y492453D01*
X437700Y492534D01*
X437675Y492614D01*
X437647Y492692D01*
X437615Y492769D01*
X437580Y492845D01*
X437541Y492919D01*
X437498Y492991D01*
X437453Y493061D01*
X437404Y493128D01*
X437352Y493194D01*
X437298Y493257D01*
X437240Y493317D01*
X437180Y493375D01*
X437117Y493429D01*
X437051Y493481D01*
X436984Y493530D01*
X436914Y493575D01*
X436842Y493618D01*
X436768Y493657D01*
X436692Y493692D01*
X436615Y493724D01*
X436537Y493752D01*
X436457Y493777D01*
X436376Y493798D01*
X436295Y493815D01*
X436213Y493829D01*
X436130Y493838D01*
X436046Y493844D01*
X435963Y493846D01*
X435963Y493847D02*
X435060Y493847D01*
X435060Y493846D02*
X434977Y493844D01*
X434893Y493838D01*
X434810Y493829D01*
X434728Y493815D01*
X434647Y493798D01*
X434566Y493777D01*
X434486Y493752D01*
X434408Y493724D01*
X434331Y493692D01*
X434255Y493657D01*
X434181Y493618D01*
X434109Y493575D01*
X434039Y493530D01*
X433972Y493481D01*
X433906Y493429D01*
X433843Y493375D01*
X433783Y493317D01*
X433725Y493257D01*
X433671Y493194D01*
X433619Y493128D01*
X433570Y493061D01*
X433525Y492991D01*
X433482Y492919D01*
X433443Y492845D01*
X433408Y492770D01*
X433376Y492692D01*
X433348Y492614D01*
X433323Y492534D01*
X433302Y492454D01*
X433285Y492372D01*
X433271Y492290D01*
X433262Y492207D01*
X433256Y492123D01*
X433254Y492040D01*
X433253Y492040D02*
X433253Y489331D01*
X429641Y489331D01*
X429641Y493847D01*
X437769Y692531D02*
X437769Y695240D01*
X437767Y695323D01*
X437761Y695407D01*
X437752Y695490D01*
X437738Y695572D01*
X437721Y695653D01*
X437700Y695734D01*
X437675Y695814D01*
X437647Y695892D01*
X437615Y695969D01*
X437580Y696045D01*
X437541Y696119D01*
X437498Y696191D01*
X437453Y696261D01*
X437404Y696328D01*
X437352Y696394D01*
X437298Y696457D01*
X437240Y696517D01*
X437180Y696575D01*
X437117Y696629D01*
X437051Y696681D01*
X436984Y696730D01*
X436914Y696775D01*
X436842Y696818D01*
X436768Y696857D01*
X436692Y696892D01*
X436615Y696924D01*
X436537Y696952D01*
X436457Y696977D01*
X436376Y696998D01*
X436295Y697015D01*
X436213Y697029D01*
X436130Y697038D01*
X436046Y697044D01*
X435963Y697046D01*
X435963Y697047D02*
X435060Y697047D01*
X435060Y697046D02*
X434977Y697044D01*
X434893Y697038D01*
X434810Y697029D01*
X434728Y697015D01*
X434647Y696998D01*
X434566Y696977D01*
X434486Y696952D01*
X434408Y696924D01*
X434331Y696892D01*
X434255Y696857D01*
X434181Y696818D01*
X434109Y696775D01*
X434039Y696730D01*
X433972Y696681D01*
X433906Y696629D01*
X433843Y696575D01*
X433783Y696517D01*
X433725Y696457D01*
X433671Y696394D01*
X433619Y696328D01*
X433570Y696261D01*
X433525Y696191D01*
X433482Y696119D01*
X433443Y696045D01*
X433408Y695970D01*
X433376Y695892D01*
X433348Y695814D01*
X433323Y695734D01*
X433302Y695654D01*
X433285Y695572D01*
X433271Y695490D01*
X433262Y695407D01*
X433256Y695323D01*
X433254Y695240D01*
X433253Y695240D02*
X433253Y692531D01*
X429641Y692531D01*
X429641Y697047D01*
D11*
X437896Y129625D02*
X430784Y127254D01*
X430784Y131995D02*
X437896Y129625D01*
X437896Y136069D02*
X437896Y137650D01*
X437896Y136069D02*
X437894Y135991D01*
X437888Y135914D01*
X437879Y135837D01*
X437866Y135761D01*
X437849Y135685D01*
X437828Y135610D01*
X437804Y135537D01*
X437776Y135464D01*
X437744Y135393D01*
X437709Y135324D01*
X437671Y135257D01*
X437630Y135191D01*
X437585Y135128D01*
X437537Y135067D01*
X437487Y135008D01*
X437433Y134952D01*
X437377Y134898D01*
X437318Y134848D01*
X437257Y134800D01*
X437194Y134755D01*
X437128Y134714D01*
X437061Y134676D01*
X436992Y134641D01*
X436921Y134609D01*
X436848Y134581D01*
X436775Y134557D01*
X436700Y134536D01*
X436624Y134519D01*
X436548Y134506D01*
X436471Y134497D01*
X436394Y134491D01*
X436316Y134489D01*
X432364Y134489D01*
X432364Y134488D02*
X432286Y134490D01*
X432209Y134496D01*
X432132Y134505D01*
X432056Y134518D01*
X431980Y134535D01*
X431905Y134556D01*
X431831Y134580D01*
X431759Y134608D01*
X431688Y134640D01*
X431619Y134675D01*
X431551Y134713D01*
X431486Y134754D01*
X431422Y134799D01*
X431361Y134847D01*
X431302Y134898D01*
X431246Y134951D01*
X431193Y135007D01*
X431142Y135066D01*
X431094Y135127D01*
X431049Y135191D01*
X431008Y135256D01*
X430970Y135324D01*
X430935Y135393D01*
X430903Y135464D01*
X430875Y135536D01*
X430851Y135610D01*
X430830Y135685D01*
X430813Y135761D01*
X430800Y135837D01*
X430791Y135914D01*
X430785Y135991D01*
X430783Y136069D01*
X430784Y136069D02*
X430784Y137650D01*
X437896Y141784D02*
X437896Y143365D01*
X437896Y141784D02*
X437894Y141706D01*
X437888Y141629D01*
X437879Y141552D01*
X437866Y141476D01*
X437849Y141400D01*
X437828Y141325D01*
X437804Y141252D01*
X437776Y141179D01*
X437744Y141108D01*
X437709Y141039D01*
X437671Y140972D01*
X437630Y140906D01*
X437585Y140843D01*
X437537Y140782D01*
X437487Y140723D01*
X437433Y140667D01*
X437377Y140613D01*
X437318Y140563D01*
X437257Y140515D01*
X437194Y140470D01*
X437128Y140429D01*
X437061Y140391D01*
X436992Y140356D01*
X436921Y140324D01*
X436848Y140296D01*
X436775Y140272D01*
X436700Y140251D01*
X436624Y140234D01*
X436548Y140221D01*
X436471Y140212D01*
X436394Y140206D01*
X436316Y140204D01*
X432364Y140204D01*
X432364Y140203D02*
X432286Y140205D01*
X432209Y140211D01*
X432132Y140220D01*
X432056Y140233D01*
X431980Y140250D01*
X431905Y140271D01*
X431831Y140295D01*
X431759Y140323D01*
X431688Y140355D01*
X431619Y140390D01*
X431551Y140428D01*
X431486Y140469D01*
X431422Y140514D01*
X431361Y140562D01*
X431302Y140613D01*
X431246Y140666D01*
X431193Y140722D01*
X431142Y140781D01*
X431094Y140842D01*
X431049Y140906D01*
X431008Y140971D01*
X430970Y141039D01*
X430935Y141108D01*
X430903Y141179D01*
X430875Y141251D01*
X430851Y141325D01*
X430830Y141400D01*
X430813Y141476D01*
X430800Y141552D01*
X430791Y141629D01*
X430785Y141706D01*
X430783Y141784D01*
X430784Y141784D02*
X430784Y143365D01*
X430784Y330454D02*
X437896Y332825D01*
X430784Y335195D01*
X437896Y339269D02*
X437896Y340850D01*
X437896Y339269D02*
X437894Y339191D01*
X437888Y339114D01*
X437879Y339037D01*
X437866Y338961D01*
X437849Y338885D01*
X437828Y338810D01*
X437804Y338737D01*
X437776Y338664D01*
X437744Y338593D01*
X437709Y338524D01*
X437671Y338457D01*
X437630Y338391D01*
X437585Y338328D01*
X437537Y338267D01*
X437487Y338208D01*
X437433Y338152D01*
X437377Y338098D01*
X437318Y338048D01*
X437257Y338000D01*
X437194Y337955D01*
X437128Y337914D01*
X437061Y337876D01*
X436992Y337841D01*
X436921Y337809D01*
X436848Y337781D01*
X436775Y337757D01*
X436700Y337736D01*
X436624Y337719D01*
X436548Y337706D01*
X436471Y337697D01*
X436394Y337691D01*
X436316Y337689D01*
X432364Y337689D01*
X432364Y337688D02*
X432286Y337690D01*
X432209Y337696D01*
X432132Y337705D01*
X432056Y337718D01*
X431980Y337735D01*
X431905Y337756D01*
X431831Y337780D01*
X431759Y337808D01*
X431688Y337840D01*
X431619Y337875D01*
X431551Y337913D01*
X431486Y337954D01*
X431422Y337999D01*
X431361Y338047D01*
X431302Y338098D01*
X431246Y338151D01*
X431193Y338207D01*
X431142Y338266D01*
X431094Y338327D01*
X431049Y338391D01*
X431008Y338456D01*
X430970Y338524D01*
X430935Y338593D01*
X430903Y338664D01*
X430875Y338736D01*
X430851Y338810D01*
X430830Y338885D01*
X430813Y338961D01*
X430800Y339037D01*
X430791Y339114D01*
X430785Y339191D01*
X430783Y339269D01*
X430784Y339269D02*
X430784Y340850D01*
X437896Y344984D02*
X437896Y346565D01*
X437896Y344984D02*
X437894Y344906D01*
X437888Y344829D01*
X437879Y344752D01*
X437866Y344676D01*
X437849Y344600D01*
X437828Y344525D01*
X437804Y344452D01*
X437776Y344379D01*
X437744Y344308D01*
X437709Y344239D01*
X437671Y344172D01*
X437630Y344106D01*
X437585Y344043D01*
X437537Y343982D01*
X437487Y343923D01*
X437433Y343867D01*
X437377Y343813D01*
X437318Y343763D01*
X437257Y343715D01*
X437194Y343670D01*
X437128Y343629D01*
X437061Y343591D01*
X436992Y343556D01*
X436921Y343524D01*
X436848Y343496D01*
X436775Y343472D01*
X436700Y343451D01*
X436624Y343434D01*
X436548Y343421D01*
X436471Y343412D01*
X436394Y343406D01*
X436316Y343404D01*
X432364Y343404D01*
X432364Y343403D02*
X432286Y343405D01*
X432209Y343411D01*
X432132Y343420D01*
X432056Y343433D01*
X431980Y343450D01*
X431905Y343471D01*
X431831Y343495D01*
X431759Y343523D01*
X431688Y343555D01*
X431619Y343590D01*
X431551Y343628D01*
X431486Y343669D01*
X431422Y343714D01*
X431361Y343762D01*
X431302Y343813D01*
X431246Y343866D01*
X431193Y343922D01*
X431142Y343981D01*
X431094Y344042D01*
X431049Y344106D01*
X431008Y344171D01*
X430970Y344239D01*
X430935Y344308D01*
X430903Y344379D01*
X430875Y344451D01*
X430851Y344525D01*
X430830Y344600D01*
X430813Y344676D01*
X430800Y344752D01*
X430791Y344829D01*
X430785Y344906D01*
X430783Y344984D01*
X430784Y344984D02*
X430784Y346565D01*
X430784Y533654D02*
X437896Y536025D01*
X430784Y538395D01*
X437896Y542469D02*
X437896Y544050D01*
X437896Y542469D02*
X437894Y542391D01*
X437888Y542314D01*
X437879Y542237D01*
X437866Y542161D01*
X437849Y542085D01*
X437828Y542010D01*
X437804Y541937D01*
X437776Y541864D01*
X437744Y541793D01*
X437709Y541724D01*
X437671Y541657D01*
X437630Y541591D01*
X437585Y541528D01*
X437537Y541467D01*
X437487Y541408D01*
X437433Y541352D01*
X437377Y541298D01*
X437318Y541248D01*
X437257Y541200D01*
X437194Y541155D01*
X437128Y541114D01*
X437061Y541076D01*
X436992Y541041D01*
X436921Y541009D01*
X436848Y540981D01*
X436775Y540957D01*
X436700Y540936D01*
X436624Y540919D01*
X436548Y540906D01*
X436471Y540897D01*
X436394Y540891D01*
X436316Y540889D01*
X432364Y540889D01*
X432364Y540888D02*
X432286Y540890D01*
X432209Y540896D01*
X432132Y540905D01*
X432056Y540918D01*
X431980Y540935D01*
X431905Y540956D01*
X431831Y540980D01*
X431759Y541008D01*
X431688Y541040D01*
X431619Y541075D01*
X431551Y541113D01*
X431486Y541154D01*
X431422Y541199D01*
X431361Y541247D01*
X431302Y541298D01*
X431246Y541351D01*
X431193Y541407D01*
X431142Y541466D01*
X431094Y541527D01*
X431049Y541591D01*
X431008Y541656D01*
X430970Y541724D01*
X430935Y541793D01*
X430903Y541864D01*
X430875Y541936D01*
X430851Y542010D01*
X430830Y542085D01*
X430813Y542161D01*
X430800Y542237D01*
X430791Y542314D01*
X430785Y542391D01*
X430783Y542469D01*
X430784Y542469D02*
X430784Y544050D01*
X437896Y548184D02*
X437896Y549765D01*
X437896Y548184D02*
X437894Y548106D01*
X437888Y548029D01*
X437879Y547952D01*
X437866Y547876D01*
X437849Y547800D01*
X437828Y547725D01*
X437804Y547652D01*
X437776Y547579D01*
X437744Y547508D01*
X437709Y547439D01*
X437671Y547372D01*
X437630Y547306D01*
X437585Y547243D01*
X437537Y547182D01*
X437487Y547123D01*
X437433Y547067D01*
X437377Y547013D01*
X437318Y546963D01*
X437257Y546915D01*
X437194Y546870D01*
X437128Y546829D01*
X437061Y546791D01*
X436992Y546756D01*
X436921Y546724D01*
X436848Y546696D01*
X436775Y546672D01*
X436700Y546651D01*
X436624Y546634D01*
X436548Y546621D01*
X436471Y546612D01*
X436394Y546606D01*
X436316Y546604D01*
X432364Y546604D01*
X432364Y546603D02*
X432286Y546605D01*
X432209Y546611D01*
X432132Y546620D01*
X432056Y546633D01*
X431980Y546650D01*
X431905Y546671D01*
X431831Y546695D01*
X431759Y546723D01*
X431688Y546755D01*
X431619Y546790D01*
X431551Y546828D01*
X431486Y546869D01*
X431422Y546914D01*
X431361Y546962D01*
X431302Y547013D01*
X431246Y547066D01*
X431193Y547122D01*
X431142Y547181D01*
X431094Y547242D01*
X431049Y547306D01*
X431008Y547371D01*
X430970Y547439D01*
X430935Y547508D01*
X430903Y547579D01*
X430875Y547651D01*
X430851Y547725D01*
X430830Y547800D01*
X430813Y547876D01*
X430800Y547952D01*
X430791Y548029D01*
X430785Y548106D01*
X430783Y548184D01*
X430784Y548184D02*
X430784Y549765D01*
X433945Y105805D02*
X433945Y104620D01*
X433945Y105805D02*
X437896Y105805D01*
X437896Y103434D01*
X437894Y103356D01*
X437888Y103279D01*
X437879Y103202D01*
X437866Y103126D01*
X437849Y103050D01*
X437828Y102975D01*
X437804Y102902D01*
X437776Y102829D01*
X437744Y102758D01*
X437709Y102689D01*
X437671Y102622D01*
X437630Y102556D01*
X437585Y102493D01*
X437537Y102432D01*
X437487Y102373D01*
X437433Y102317D01*
X437377Y102263D01*
X437318Y102213D01*
X437257Y102165D01*
X437194Y102120D01*
X437128Y102079D01*
X437061Y102041D01*
X436992Y102006D01*
X436921Y101974D01*
X436848Y101946D01*
X436775Y101922D01*
X436700Y101901D01*
X436624Y101884D01*
X436548Y101871D01*
X436471Y101862D01*
X436394Y101856D01*
X436316Y101854D01*
X432364Y101854D01*
X432286Y101856D01*
X432209Y101862D01*
X432132Y101871D01*
X432056Y101884D01*
X431980Y101901D01*
X431905Y101922D01*
X431831Y101946D01*
X431759Y101974D01*
X431688Y102006D01*
X431619Y102041D01*
X431551Y102079D01*
X431486Y102120D01*
X431422Y102165D01*
X431361Y102213D01*
X431302Y102264D01*
X431246Y102317D01*
X431193Y102373D01*
X431142Y102432D01*
X431094Y102493D01*
X431049Y102557D01*
X431008Y102622D01*
X430970Y102690D01*
X430935Y102759D01*
X430903Y102830D01*
X430875Y102902D01*
X430851Y102976D01*
X430830Y103051D01*
X430813Y103127D01*
X430800Y103203D01*
X430791Y103280D01*
X430785Y103357D01*
X430783Y103435D01*
X430784Y103434D02*
X430784Y105805D01*
X430784Y109169D02*
X437896Y109169D01*
X437896Y113120D02*
X430784Y109169D01*
X430784Y113120D02*
X437896Y113120D01*
X437896Y116484D02*
X430784Y116484D01*
X430784Y118460D01*
X430786Y118546D01*
X430792Y118632D01*
X430801Y118718D01*
X430814Y118803D01*
X430831Y118888D01*
X430851Y118971D01*
X430875Y119054D01*
X430903Y119136D01*
X430934Y119216D01*
X430969Y119295D01*
X431007Y119372D01*
X431049Y119448D01*
X431093Y119522D01*
X431141Y119593D01*
X431192Y119663D01*
X431246Y119730D01*
X431303Y119795D01*
X431363Y119857D01*
X431425Y119917D01*
X431490Y119974D01*
X431557Y120028D01*
X431627Y120079D01*
X431698Y120127D01*
X431772Y120171D01*
X431848Y120213D01*
X431925Y120251D01*
X432004Y120286D01*
X432084Y120317D01*
X432166Y120345D01*
X432249Y120369D01*
X432332Y120389D01*
X432417Y120406D01*
X432502Y120419D01*
X432588Y120428D01*
X432674Y120434D01*
X432760Y120436D01*
X432760Y120435D02*
X435920Y120435D01*
X435920Y120436D02*
X436006Y120434D01*
X436092Y120428D01*
X436178Y120419D01*
X436263Y120406D01*
X436348Y120389D01*
X436431Y120369D01*
X436514Y120345D01*
X436596Y120317D01*
X436676Y120286D01*
X436755Y120251D01*
X436832Y120213D01*
X436908Y120171D01*
X436982Y120127D01*
X437053Y120079D01*
X437123Y120028D01*
X437190Y119974D01*
X437255Y119917D01*
X437317Y119857D01*
X437377Y119795D01*
X437434Y119730D01*
X437488Y119663D01*
X437539Y119593D01*
X437587Y119522D01*
X437631Y119448D01*
X437673Y119372D01*
X437711Y119295D01*
X437746Y119216D01*
X437777Y119136D01*
X437805Y119054D01*
X437829Y118971D01*
X437849Y118888D01*
X437866Y118803D01*
X437879Y118718D01*
X437888Y118632D01*
X437894Y118546D01*
X437896Y118460D01*
X437896Y116484D01*
X433945Y307820D02*
X433945Y309005D01*
X437896Y309005D01*
X437896Y306634D01*
X437894Y306556D01*
X437888Y306479D01*
X437879Y306402D01*
X437866Y306326D01*
X437849Y306250D01*
X437828Y306175D01*
X437804Y306102D01*
X437776Y306029D01*
X437744Y305958D01*
X437709Y305889D01*
X437671Y305822D01*
X437630Y305756D01*
X437585Y305693D01*
X437537Y305632D01*
X437487Y305573D01*
X437433Y305517D01*
X437377Y305463D01*
X437318Y305413D01*
X437257Y305365D01*
X437194Y305320D01*
X437128Y305279D01*
X437061Y305241D01*
X436992Y305206D01*
X436921Y305174D01*
X436848Y305146D01*
X436775Y305122D01*
X436700Y305101D01*
X436624Y305084D01*
X436548Y305071D01*
X436471Y305062D01*
X436394Y305056D01*
X436316Y305054D01*
X432364Y305054D01*
X432286Y305056D01*
X432209Y305062D01*
X432132Y305071D01*
X432056Y305084D01*
X431980Y305101D01*
X431905Y305122D01*
X431831Y305146D01*
X431759Y305174D01*
X431688Y305206D01*
X431619Y305241D01*
X431551Y305279D01*
X431486Y305320D01*
X431422Y305365D01*
X431361Y305413D01*
X431302Y305464D01*
X431246Y305517D01*
X431193Y305573D01*
X431142Y305632D01*
X431094Y305693D01*
X431049Y305757D01*
X431008Y305822D01*
X430970Y305890D01*
X430935Y305959D01*
X430903Y306030D01*
X430875Y306102D01*
X430851Y306176D01*
X430830Y306251D01*
X430813Y306327D01*
X430800Y306403D01*
X430791Y306480D01*
X430785Y306557D01*
X430783Y306635D01*
X430784Y306634D02*
X430784Y309005D01*
X430784Y312369D02*
X437896Y312369D01*
X437896Y316320D02*
X430784Y312369D01*
X430784Y316320D02*
X437896Y316320D01*
X437896Y319684D02*
X430784Y319684D01*
X430784Y321660D01*
X430786Y321746D01*
X430792Y321832D01*
X430801Y321918D01*
X430814Y322003D01*
X430831Y322088D01*
X430851Y322171D01*
X430875Y322254D01*
X430903Y322336D01*
X430934Y322416D01*
X430969Y322495D01*
X431007Y322572D01*
X431049Y322648D01*
X431093Y322722D01*
X431141Y322793D01*
X431192Y322863D01*
X431246Y322930D01*
X431303Y322995D01*
X431363Y323057D01*
X431425Y323117D01*
X431490Y323174D01*
X431557Y323228D01*
X431627Y323279D01*
X431698Y323327D01*
X431772Y323371D01*
X431848Y323413D01*
X431925Y323451D01*
X432004Y323486D01*
X432084Y323517D01*
X432166Y323545D01*
X432249Y323569D01*
X432332Y323589D01*
X432417Y323606D01*
X432502Y323619D01*
X432588Y323628D01*
X432674Y323634D01*
X432760Y323636D01*
X432760Y323635D02*
X435920Y323635D01*
X435920Y323636D02*
X436006Y323634D01*
X436092Y323628D01*
X436178Y323619D01*
X436263Y323606D01*
X436348Y323589D01*
X436431Y323569D01*
X436514Y323545D01*
X436596Y323517D01*
X436676Y323486D01*
X436755Y323451D01*
X436832Y323413D01*
X436908Y323371D01*
X436982Y323327D01*
X437053Y323279D01*
X437123Y323228D01*
X437190Y323174D01*
X437255Y323117D01*
X437317Y323057D01*
X437377Y322995D01*
X437434Y322930D01*
X437488Y322863D01*
X437539Y322793D01*
X437587Y322722D01*
X437631Y322648D01*
X437673Y322572D01*
X437711Y322495D01*
X437746Y322416D01*
X437777Y322336D01*
X437805Y322254D01*
X437829Y322171D01*
X437849Y322088D01*
X437866Y322003D01*
X437879Y321918D01*
X437888Y321832D01*
X437894Y321746D01*
X437896Y321660D01*
X437896Y319684D01*
X433945Y511020D02*
X433945Y512205D01*
X437896Y512205D01*
X437896Y509834D01*
X437894Y509756D01*
X437888Y509679D01*
X437879Y509602D01*
X437866Y509526D01*
X437849Y509450D01*
X437828Y509375D01*
X437804Y509302D01*
X437776Y509229D01*
X437744Y509158D01*
X437709Y509089D01*
X437671Y509022D01*
X437630Y508956D01*
X437585Y508893D01*
X437537Y508832D01*
X437487Y508773D01*
X437433Y508717D01*
X437377Y508663D01*
X437318Y508613D01*
X437257Y508565D01*
X437194Y508520D01*
X437128Y508479D01*
X437061Y508441D01*
X436992Y508406D01*
X436921Y508374D01*
X436848Y508346D01*
X436775Y508322D01*
X436700Y508301D01*
X436624Y508284D01*
X436548Y508271D01*
X436471Y508262D01*
X436394Y508256D01*
X436316Y508254D01*
X432364Y508254D01*
X432286Y508256D01*
X432209Y508262D01*
X432132Y508271D01*
X432056Y508284D01*
X431980Y508301D01*
X431905Y508322D01*
X431831Y508346D01*
X431759Y508374D01*
X431688Y508406D01*
X431619Y508441D01*
X431551Y508479D01*
X431486Y508520D01*
X431422Y508565D01*
X431361Y508613D01*
X431302Y508664D01*
X431246Y508717D01*
X431193Y508773D01*
X431142Y508832D01*
X431094Y508893D01*
X431049Y508957D01*
X431008Y509022D01*
X430970Y509090D01*
X430935Y509159D01*
X430903Y509230D01*
X430875Y509302D01*
X430851Y509376D01*
X430830Y509451D01*
X430813Y509527D01*
X430800Y509603D01*
X430791Y509680D01*
X430785Y509757D01*
X430783Y509835D01*
X430784Y509834D02*
X430784Y512205D01*
X430784Y515569D02*
X437896Y515569D01*
X437896Y519520D02*
X430784Y515569D01*
X430784Y519520D02*
X437896Y519520D01*
X437896Y522884D02*
X430784Y522884D01*
X430784Y524860D01*
X430786Y524946D01*
X430792Y525032D01*
X430801Y525118D01*
X430814Y525203D01*
X430831Y525288D01*
X430851Y525371D01*
X430875Y525454D01*
X430903Y525536D01*
X430934Y525616D01*
X430969Y525695D01*
X431007Y525772D01*
X431049Y525848D01*
X431093Y525922D01*
X431141Y525993D01*
X431192Y526063D01*
X431246Y526130D01*
X431303Y526195D01*
X431363Y526257D01*
X431425Y526317D01*
X431490Y526374D01*
X431557Y526428D01*
X431627Y526479D01*
X431698Y526527D01*
X431772Y526571D01*
X431848Y526613D01*
X431925Y526651D01*
X432004Y526686D01*
X432084Y526717D01*
X432166Y526745D01*
X432249Y526769D01*
X432332Y526789D01*
X432417Y526806D01*
X432502Y526819D01*
X432588Y526828D01*
X432674Y526834D01*
X432760Y526836D01*
X432760Y526835D02*
X435920Y526835D01*
X435920Y526836D02*
X436006Y526834D01*
X436092Y526828D01*
X436178Y526819D01*
X436263Y526806D01*
X436348Y526789D01*
X436431Y526769D01*
X436514Y526745D01*
X436596Y526717D01*
X436676Y526686D01*
X436755Y526651D01*
X436832Y526613D01*
X436908Y526571D01*
X436982Y526527D01*
X437053Y526479D01*
X437123Y526428D01*
X437190Y526374D01*
X437255Y526317D01*
X437317Y526257D01*
X437377Y526195D01*
X437434Y526130D01*
X437488Y526063D01*
X437539Y525993D01*
X437587Y525922D01*
X437631Y525848D01*
X437673Y525772D01*
X437711Y525695D01*
X437746Y525616D01*
X437777Y525536D01*
X437805Y525454D01*
X437829Y525371D01*
X437849Y525288D01*
X437866Y525203D01*
X437879Y525118D01*
X437888Y525032D01*
X437894Y524946D01*
X437896Y524860D01*
X437896Y522884D01*
D12*
X488950Y304800D02*
X488950Y101600D01*
X469900Y101600D01*
X425450Y101600D01*
X425450Y304800D01*
X469900Y304800D01*
X488950Y304800D01*
X469900Y304800D02*
X469900Y101600D01*
D13*
X417322Y271323D02*
X417322Y273863D01*
X417324Y273963D01*
X417330Y274062D01*
X417340Y274162D01*
X417353Y274260D01*
X417371Y274359D01*
X417392Y274456D01*
X417417Y274552D01*
X417446Y274648D01*
X417479Y274742D01*
X417515Y274835D01*
X417555Y274926D01*
X417599Y275016D01*
X417646Y275104D01*
X417696Y275190D01*
X417750Y275274D01*
X417807Y275356D01*
X417867Y275435D01*
X417931Y275513D01*
X417997Y275587D01*
X418066Y275659D01*
X418138Y275728D01*
X418212Y275794D01*
X418290Y275858D01*
X418369Y275918D01*
X418451Y275975D01*
X418535Y276029D01*
X418621Y276079D01*
X418709Y276126D01*
X418799Y276170D01*
X418890Y276210D01*
X418983Y276246D01*
X419077Y276279D01*
X419173Y276308D01*
X419269Y276333D01*
X419366Y276354D01*
X419465Y276372D01*
X419563Y276385D01*
X419663Y276395D01*
X419762Y276401D01*
X419862Y276403D01*
X419962Y276401D01*
X420061Y276395D01*
X420161Y276385D01*
X420259Y276372D01*
X420358Y276354D01*
X420455Y276333D01*
X420551Y276308D01*
X420647Y276279D01*
X420741Y276246D01*
X420834Y276210D01*
X420925Y276170D01*
X421015Y276126D01*
X421103Y276079D01*
X421189Y276029D01*
X421273Y275975D01*
X421355Y275918D01*
X421434Y275858D01*
X421512Y275794D01*
X421586Y275728D01*
X421658Y275659D01*
X421727Y275587D01*
X421793Y275513D01*
X421857Y275435D01*
X421917Y275356D01*
X421974Y275274D01*
X422028Y275190D01*
X422078Y275104D01*
X422125Y275016D01*
X422169Y274926D01*
X422209Y274835D01*
X422245Y274742D01*
X422278Y274648D01*
X422307Y274552D01*
X422332Y274456D01*
X422353Y274359D01*
X422371Y274260D01*
X422384Y274162D01*
X422394Y274062D01*
X422400Y273963D01*
X422402Y273863D01*
X422402Y271323D01*
X413258Y271323D01*
X413258Y273863D01*
X413260Y273952D01*
X413266Y274040D01*
X413275Y274128D01*
X413289Y274216D01*
X413306Y274303D01*
X413327Y274389D01*
X413352Y274474D01*
X413381Y274558D01*
X413413Y274641D01*
X413448Y274722D01*
X413488Y274801D01*
X413530Y274879D01*
X413576Y274955D01*
X413625Y275029D01*
X413678Y275100D01*
X413733Y275169D01*
X413792Y275236D01*
X413853Y275300D01*
X413917Y275361D01*
X413984Y275420D01*
X414053Y275475D01*
X414124Y275528D01*
X414198Y275577D01*
X414274Y275623D01*
X414352Y275665D01*
X414431Y275705D01*
X414512Y275740D01*
X414595Y275772D01*
X414679Y275801D01*
X414764Y275826D01*
X414850Y275847D01*
X414937Y275864D01*
X415025Y275878D01*
X415113Y275887D01*
X415201Y275893D01*
X415290Y275895D01*
X415379Y275893D01*
X415467Y275887D01*
X415555Y275878D01*
X415643Y275864D01*
X415730Y275847D01*
X415816Y275826D01*
X415901Y275801D01*
X415985Y275772D01*
X416068Y275740D01*
X416149Y275705D01*
X416228Y275665D01*
X416306Y275623D01*
X416382Y275577D01*
X416456Y275528D01*
X416527Y275475D01*
X416596Y275420D01*
X416663Y275361D01*
X416727Y275300D01*
X416788Y275236D01*
X416847Y275169D01*
X416902Y275100D01*
X416955Y275029D01*
X417004Y274955D01*
X417050Y274879D01*
X417092Y274801D01*
X417132Y274722D01*
X417167Y274641D01*
X417199Y274558D01*
X417228Y274474D01*
X417253Y274389D01*
X417274Y274303D01*
X417291Y274216D01*
X417305Y274128D01*
X417314Y274040D01*
X417320Y273952D01*
X417322Y273863D01*
X413258Y280381D02*
X422402Y280381D01*
X413258Y280381D02*
X413258Y282921D01*
X413260Y283021D01*
X413266Y283120D01*
X413276Y283220D01*
X413289Y283318D01*
X413307Y283417D01*
X413328Y283514D01*
X413353Y283610D01*
X413382Y283706D01*
X413415Y283800D01*
X413451Y283893D01*
X413491Y283984D01*
X413535Y284074D01*
X413582Y284162D01*
X413632Y284248D01*
X413686Y284332D01*
X413743Y284414D01*
X413803Y284493D01*
X413867Y284571D01*
X413933Y284645D01*
X414002Y284717D01*
X414074Y284786D01*
X414148Y284852D01*
X414226Y284916D01*
X414305Y284976D01*
X414387Y285033D01*
X414471Y285087D01*
X414557Y285137D01*
X414645Y285184D01*
X414735Y285228D01*
X414826Y285268D01*
X414919Y285304D01*
X415013Y285337D01*
X415109Y285366D01*
X415205Y285391D01*
X415302Y285412D01*
X415401Y285430D01*
X415499Y285443D01*
X415599Y285453D01*
X415698Y285459D01*
X415798Y285461D01*
X415898Y285459D01*
X415997Y285453D01*
X416097Y285443D01*
X416195Y285430D01*
X416294Y285412D01*
X416391Y285391D01*
X416487Y285366D01*
X416583Y285337D01*
X416677Y285304D01*
X416770Y285268D01*
X416861Y285228D01*
X416951Y285184D01*
X417039Y285137D01*
X417125Y285087D01*
X417209Y285033D01*
X417291Y284976D01*
X417370Y284916D01*
X417448Y284852D01*
X417522Y284786D01*
X417594Y284717D01*
X417663Y284645D01*
X417729Y284571D01*
X417793Y284493D01*
X417853Y284414D01*
X417910Y284332D01*
X417964Y284248D01*
X418014Y284162D01*
X418061Y284074D01*
X418105Y283984D01*
X418145Y283893D01*
X418181Y283800D01*
X418214Y283706D01*
X418243Y283610D01*
X418268Y283514D01*
X418289Y283417D01*
X418307Y283318D01*
X418320Y283220D01*
X418330Y283120D01*
X418336Y283021D01*
X418338Y282921D01*
X418338Y280381D01*
X418338Y283429D02*
X422402Y285461D01*
X422402Y289763D02*
X413258Y289763D01*
X413258Y292303D01*
X413260Y292403D01*
X413266Y292502D01*
X413276Y292602D01*
X413289Y292700D01*
X413307Y292799D01*
X413328Y292896D01*
X413353Y292992D01*
X413382Y293088D01*
X413415Y293182D01*
X413451Y293275D01*
X413491Y293366D01*
X413535Y293456D01*
X413582Y293544D01*
X413632Y293630D01*
X413686Y293714D01*
X413743Y293796D01*
X413803Y293875D01*
X413867Y293953D01*
X413933Y294027D01*
X414002Y294099D01*
X414074Y294168D01*
X414148Y294234D01*
X414226Y294298D01*
X414305Y294358D01*
X414387Y294415D01*
X414471Y294469D01*
X414557Y294519D01*
X414645Y294566D01*
X414735Y294610D01*
X414826Y294650D01*
X414919Y294686D01*
X415013Y294719D01*
X415109Y294748D01*
X415205Y294773D01*
X415302Y294794D01*
X415401Y294812D01*
X415499Y294825D01*
X415599Y294835D01*
X415698Y294841D01*
X415798Y294843D01*
X419862Y294843D01*
X419962Y294841D01*
X420061Y294835D01*
X420161Y294825D01*
X420259Y294812D01*
X420358Y294794D01*
X420455Y294773D01*
X420551Y294748D01*
X420647Y294719D01*
X420741Y294686D01*
X420834Y294650D01*
X420925Y294610D01*
X421015Y294566D01*
X421103Y294519D01*
X421189Y294469D01*
X421273Y294415D01*
X421355Y294358D01*
X421434Y294298D01*
X421512Y294234D01*
X421586Y294168D01*
X421658Y294099D01*
X421727Y294027D01*
X421793Y293953D01*
X421857Y293875D01*
X421917Y293796D01*
X421974Y293714D01*
X422028Y293630D01*
X422078Y293544D01*
X422125Y293456D01*
X422169Y293366D01*
X422209Y293275D01*
X422245Y293182D01*
X422278Y293088D01*
X422307Y292992D01*
X422332Y292896D01*
X422353Y292799D01*
X422371Y292700D01*
X422384Y292602D01*
X422394Y292502D01*
X422400Y292403D01*
X422402Y292303D01*
X422402Y289763D01*
X417830Y299212D02*
X417650Y299214D01*
X417470Y299221D01*
X417291Y299231D01*
X417112Y299246D01*
X416933Y299266D01*
X416754Y299289D01*
X416577Y299317D01*
X416400Y299349D01*
X416223Y299385D01*
X416048Y299426D01*
X415874Y299470D01*
X415701Y299519D01*
X415529Y299572D01*
X415358Y299629D01*
X415189Y299690D01*
X415021Y299755D01*
X414855Y299824D01*
X414691Y299897D01*
X414528Y299974D01*
X414450Y300002D01*
X414373Y300035D01*
X414298Y300070D01*
X414224Y300109D01*
X414152Y300151D01*
X414083Y300196D01*
X414015Y300245D01*
X413949Y300296D01*
X413886Y300350D01*
X413825Y300407D01*
X413766Y300466D01*
X413711Y300528D01*
X413658Y300593D01*
X413608Y300659D01*
X413561Y300728D01*
X413517Y300799D01*
X413477Y300872D01*
X413440Y300946D01*
X413405Y301022D01*
X413375Y301100D01*
X413348Y301178D01*
X413324Y301258D01*
X413304Y301339D01*
X413287Y301421D01*
X413275Y301503D01*
X413265Y301586D01*
X413260Y301669D01*
X413258Y301752D01*
X413260Y301835D01*
X413265Y301918D01*
X413275Y302001D01*
X413287Y302083D01*
X413304Y302165D01*
X413324Y302246D01*
X413348Y302326D01*
X413375Y302404D01*
X413405Y302482D01*
X413440Y302558D01*
X413477Y302632D01*
X413517Y302705D01*
X413561Y302776D01*
X413608Y302845D01*
X413658Y302911D01*
X413711Y302976D01*
X413766Y303038D01*
X413825Y303097D01*
X413886Y303154D01*
X413949Y303208D01*
X414015Y303259D01*
X414083Y303308D01*
X414152Y303353D01*
X414224Y303395D01*
X414298Y303434D01*
X414373Y303469D01*
X414450Y303502D01*
X414528Y303530D01*
X414691Y303607D01*
X414855Y303680D01*
X415021Y303749D01*
X415189Y303814D01*
X415358Y303875D01*
X415529Y303932D01*
X415701Y303985D01*
X415874Y304034D01*
X416048Y304078D01*
X416223Y304119D01*
X416400Y304155D01*
X416577Y304187D01*
X416754Y304215D01*
X416933Y304238D01*
X417112Y304258D01*
X417291Y304273D01*
X417470Y304283D01*
X417650Y304290D01*
X417830Y304292D01*
X417830Y299212D02*
X418010Y299214D01*
X418190Y299221D01*
X418369Y299231D01*
X418548Y299246D01*
X418727Y299266D01*
X418906Y299289D01*
X419083Y299317D01*
X419260Y299349D01*
X419437Y299385D01*
X419612Y299426D01*
X419786Y299470D01*
X419959Y299519D01*
X420131Y299572D01*
X420302Y299629D01*
X420471Y299690D01*
X420639Y299755D01*
X420805Y299824D01*
X420969Y299897D01*
X421132Y299974D01*
X421210Y300002D01*
X421287Y300035D01*
X421362Y300070D01*
X421436Y300109D01*
X421508Y300151D01*
X421577Y300196D01*
X421645Y300245D01*
X421711Y300296D01*
X421774Y300350D01*
X421835Y300407D01*
X421894Y300466D01*
X421949Y300528D01*
X422002Y300593D01*
X422052Y300659D01*
X422099Y300728D01*
X422143Y300799D01*
X422183Y300872D01*
X422220Y300946D01*
X422255Y301022D01*
X422285Y301100D01*
X422312Y301178D01*
X422336Y301258D01*
X422356Y301339D01*
X422373Y301421D01*
X422385Y301503D01*
X422395Y301586D01*
X422400Y301669D01*
X422402Y301752D01*
X421132Y303530D02*
X420969Y303607D01*
X420805Y303680D01*
X420639Y303749D01*
X420471Y303814D01*
X420302Y303875D01*
X420131Y303932D01*
X419959Y303985D01*
X419786Y304034D01*
X419612Y304078D01*
X419437Y304119D01*
X419260Y304155D01*
X419083Y304187D01*
X418906Y304215D01*
X418727Y304238D01*
X418548Y304258D01*
X418369Y304273D01*
X418190Y304283D01*
X418010Y304290D01*
X417830Y304292D01*
X421132Y303530D02*
X421210Y303502D01*
X421287Y303469D01*
X421362Y303434D01*
X421436Y303395D01*
X421508Y303353D01*
X421577Y303308D01*
X421645Y303259D01*
X421711Y303208D01*
X421774Y303154D01*
X421835Y303097D01*
X421894Y303038D01*
X421949Y302976D01*
X422002Y302911D01*
X422052Y302845D01*
X422099Y302776D01*
X422143Y302705D01*
X422183Y302632D01*
X422220Y302558D01*
X422255Y302482D01*
X422285Y302404D01*
X422312Y302326D01*
X422336Y302246D01*
X422356Y302165D01*
X422373Y302083D01*
X422385Y302001D01*
X422395Y301918D01*
X422400Y301835D01*
X422402Y301752D01*
X420370Y299720D02*
X415290Y303784D01*
D12*
X488950Y304800D02*
X488950Y508000D01*
X488950Y304800D02*
X469900Y304800D01*
X425450Y304800D01*
X425450Y508000D01*
X469900Y508000D01*
X488950Y508000D01*
X469900Y508000D02*
X469900Y304800D01*
D13*
X417322Y474523D02*
X417322Y477063D01*
X417324Y477163D01*
X417330Y477262D01*
X417340Y477362D01*
X417353Y477460D01*
X417371Y477559D01*
X417392Y477656D01*
X417417Y477752D01*
X417446Y477848D01*
X417479Y477942D01*
X417515Y478035D01*
X417555Y478126D01*
X417599Y478216D01*
X417646Y478304D01*
X417696Y478390D01*
X417750Y478474D01*
X417807Y478556D01*
X417867Y478635D01*
X417931Y478713D01*
X417997Y478787D01*
X418066Y478859D01*
X418138Y478928D01*
X418212Y478994D01*
X418290Y479058D01*
X418369Y479118D01*
X418451Y479175D01*
X418535Y479229D01*
X418621Y479279D01*
X418709Y479326D01*
X418799Y479370D01*
X418890Y479410D01*
X418983Y479446D01*
X419077Y479479D01*
X419173Y479508D01*
X419269Y479533D01*
X419366Y479554D01*
X419465Y479572D01*
X419563Y479585D01*
X419663Y479595D01*
X419762Y479601D01*
X419862Y479603D01*
X419962Y479601D01*
X420061Y479595D01*
X420161Y479585D01*
X420259Y479572D01*
X420358Y479554D01*
X420455Y479533D01*
X420551Y479508D01*
X420647Y479479D01*
X420741Y479446D01*
X420834Y479410D01*
X420925Y479370D01*
X421015Y479326D01*
X421103Y479279D01*
X421189Y479229D01*
X421273Y479175D01*
X421355Y479118D01*
X421434Y479058D01*
X421512Y478994D01*
X421586Y478928D01*
X421658Y478859D01*
X421727Y478787D01*
X421793Y478713D01*
X421857Y478635D01*
X421917Y478556D01*
X421974Y478474D01*
X422028Y478390D01*
X422078Y478304D01*
X422125Y478216D01*
X422169Y478126D01*
X422209Y478035D01*
X422245Y477942D01*
X422278Y477848D01*
X422307Y477752D01*
X422332Y477656D01*
X422353Y477559D01*
X422371Y477460D01*
X422384Y477362D01*
X422394Y477262D01*
X422400Y477163D01*
X422402Y477063D01*
X422402Y474523D01*
X413258Y474523D01*
X413258Y477063D01*
X413260Y477152D01*
X413266Y477240D01*
X413275Y477328D01*
X413289Y477416D01*
X413306Y477503D01*
X413327Y477589D01*
X413352Y477674D01*
X413381Y477758D01*
X413413Y477841D01*
X413448Y477922D01*
X413488Y478001D01*
X413530Y478079D01*
X413576Y478155D01*
X413625Y478229D01*
X413678Y478300D01*
X413733Y478369D01*
X413792Y478436D01*
X413853Y478500D01*
X413917Y478561D01*
X413984Y478620D01*
X414053Y478675D01*
X414124Y478728D01*
X414198Y478777D01*
X414274Y478823D01*
X414352Y478865D01*
X414431Y478905D01*
X414512Y478940D01*
X414595Y478972D01*
X414679Y479001D01*
X414764Y479026D01*
X414850Y479047D01*
X414937Y479064D01*
X415025Y479078D01*
X415113Y479087D01*
X415201Y479093D01*
X415290Y479095D01*
X415379Y479093D01*
X415467Y479087D01*
X415555Y479078D01*
X415643Y479064D01*
X415730Y479047D01*
X415816Y479026D01*
X415901Y479001D01*
X415985Y478972D01*
X416068Y478940D01*
X416149Y478905D01*
X416228Y478865D01*
X416306Y478823D01*
X416382Y478777D01*
X416456Y478728D01*
X416527Y478675D01*
X416596Y478620D01*
X416663Y478561D01*
X416727Y478500D01*
X416788Y478436D01*
X416847Y478369D01*
X416902Y478300D01*
X416955Y478229D01*
X417004Y478155D01*
X417050Y478079D01*
X417092Y478001D01*
X417132Y477922D01*
X417167Y477841D01*
X417199Y477758D01*
X417228Y477674D01*
X417253Y477589D01*
X417274Y477503D01*
X417291Y477416D01*
X417305Y477328D01*
X417314Y477240D01*
X417320Y477152D01*
X417322Y477063D01*
X413258Y483581D02*
X422402Y483581D01*
X413258Y483581D02*
X413258Y486121D01*
X413260Y486221D01*
X413266Y486320D01*
X413276Y486420D01*
X413289Y486518D01*
X413307Y486617D01*
X413328Y486714D01*
X413353Y486810D01*
X413382Y486906D01*
X413415Y487000D01*
X413451Y487093D01*
X413491Y487184D01*
X413535Y487274D01*
X413582Y487362D01*
X413632Y487448D01*
X413686Y487532D01*
X413743Y487614D01*
X413803Y487693D01*
X413867Y487771D01*
X413933Y487845D01*
X414002Y487917D01*
X414074Y487986D01*
X414148Y488052D01*
X414226Y488116D01*
X414305Y488176D01*
X414387Y488233D01*
X414471Y488287D01*
X414557Y488337D01*
X414645Y488384D01*
X414735Y488428D01*
X414826Y488468D01*
X414919Y488504D01*
X415013Y488537D01*
X415109Y488566D01*
X415205Y488591D01*
X415302Y488612D01*
X415401Y488630D01*
X415499Y488643D01*
X415599Y488653D01*
X415698Y488659D01*
X415798Y488661D01*
X415898Y488659D01*
X415997Y488653D01*
X416097Y488643D01*
X416195Y488630D01*
X416294Y488612D01*
X416391Y488591D01*
X416487Y488566D01*
X416583Y488537D01*
X416677Y488504D01*
X416770Y488468D01*
X416861Y488428D01*
X416951Y488384D01*
X417039Y488337D01*
X417125Y488287D01*
X417209Y488233D01*
X417291Y488176D01*
X417370Y488116D01*
X417448Y488052D01*
X417522Y487986D01*
X417594Y487917D01*
X417663Y487845D01*
X417729Y487771D01*
X417793Y487693D01*
X417853Y487614D01*
X417910Y487532D01*
X417964Y487448D01*
X418014Y487362D01*
X418061Y487274D01*
X418105Y487184D01*
X418145Y487093D01*
X418181Y487000D01*
X418214Y486906D01*
X418243Y486810D01*
X418268Y486714D01*
X418289Y486617D01*
X418307Y486518D01*
X418320Y486420D01*
X418330Y486320D01*
X418336Y486221D01*
X418338Y486121D01*
X418338Y483581D01*
X418338Y486629D02*
X422402Y488661D01*
X422402Y492963D02*
X413258Y492963D01*
X413258Y495503D01*
X413260Y495603D01*
X413266Y495702D01*
X413276Y495802D01*
X413289Y495900D01*
X413307Y495999D01*
X413328Y496096D01*
X413353Y496192D01*
X413382Y496288D01*
X413415Y496382D01*
X413451Y496475D01*
X413491Y496566D01*
X413535Y496656D01*
X413582Y496744D01*
X413632Y496830D01*
X413686Y496914D01*
X413743Y496996D01*
X413803Y497075D01*
X413867Y497153D01*
X413933Y497227D01*
X414002Y497299D01*
X414074Y497368D01*
X414148Y497434D01*
X414226Y497498D01*
X414305Y497558D01*
X414387Y497615D01*
X414471Y497669D01*
X414557Y497719D01*
X414645Y497766D01*
X414735Y497810D01*
X414826Y497850D01*
X414919Y497886D01*
X415013Y497919D01*
X415109Y497948D01*
X415205Y497973D01*
X415302Y497994D01*
X415401Y498012D01*
X415499Y498025D01*
X415599Y498035D01*
X415698Y498041D01*
X415798Y498043D01*
X419862Y498043D01*
X419962Y498041D01*
X420061Y498035D01*
X420161Y498025D01*
X420259Y498012D01*
X420358Y497994D01*
X420455Y497973D01*
X420551Y497948D01*
X420647Y497919D01*
X420741Y497886D01*
X420834Y497850D01*
X420925Y497810D01*
X421015Y497766D01*
X421103Y497719D01*
X421189Y497669D01*
X421273Y497615D01*
X421355Y497558D01*
X421434Y497498D01*
X421512Y497434D01*
X421586Y497368D01*
X421658Y497299D01*
X421727Y497227D01*
X421793Y497153D01*
X421857Y497075D01*
X421917Y496996D01*
X421974Y496914D01*
X422028Y496830D01*
X422078Y496744D01*
X422125Y496656D01*
X422169Y496566D01*
X422209Y496475D01*
X422245Y496382D01*
X422278Y496288D01*
X422307Y496192D01*
X422332Y496096D01*
X422353Y495999D01*
X422371Y495900D01*
X422384Y495802D01*
X422394Y495702D01*
X422400Y495603D01*
X422402Y495503D01*
X422402Y492963D01*
X415290Y502412D02*
X413258Y504952D01*
X422402Y504952D01*
X422402Y502412D02*
X422402Y507492D01*
D12*
X488950Y508000D02*
X488950Y711200D01*
X488950Y508000D02*
X469900Y508000D01*
X425450Y508000D01*
X425450Y711200D01*
X469900Y711200D01*
X488950Y711200D01*
X469900Y711200D02*
X469900Y508000D01*
D13*
X417322Y677723D02*
X417322Y680263D01*
X417324Y680363D01*
X417330Y680462D01*
X417340Y680562D01*
X417353Y680660D01*
X417371Y680759D01*
X417392Y680856D01*
X417417Y680952D01*
X417446Y681048D01*
X417479Y681142D01*
X417515Y681235D01*
X417555Y681326D01*
X417599Y681416D01*
X417646Y681504D01*
X417696Y681590D01*
X417750Y681674D01*
X417807Y681756D01*
X417867Y681835D01*
X417931Y681913D01*
X417997Y681987D01*
X418066Y682059D01*
X418138Y682128D01*
X418212Y682194D01*
X418290Y682258D01*
X418369Y682318D01*
X418451Y682375D01*
X418535Y682429D01*
X418621Y682479D01*
X418709Y682526D01*
X418799Y682570D01*
X418890Y682610D01*
X418983Y682646D01*
X419077Y682679D01*
X419173Y682708D01*
X419269Y682733D01*
X419366Y682754D01*
X419465Y682772D01*
X419563Y682785D01*
X419663Y682795D01*
X419762Y682801D01*
X419862Y682803D01*
X419962Y682801D01*
X420061Y682795D01*
X420161Y682785D01*
X420259Y682772D01*
X420358Y682754D01*
X420455Y682733D01*
X420551Y682708D01*
X420647Y682679D01*
X420741Y682646D01*
X420834Y682610D01*
X420925Y682570D01*
X421015Y682526D01*
X421103Y682479D01*
X421189Y682429D01*
X421273Y682375D01*
X421355Y682318D01*
X421434Y682258D01*
X421512Y682194D01*
X421586Y682128D01*
X421658Y682059D01*
X421727Y681987D01*
X421793Y681913D01*
X421857Y681835D01*
X421917Y681756D01*
X421974Y681674D01*
X422028Y681590D01*
X422078Y681504D01*
X422125Y681416D01*
X422169Y681326D01*
X422209Y681235D01*
X422245Y681142D01*
X422278Y681048D01*
X422307Y680952D01*
X422332Y680856D01*
X422353Y680759D01*
X422371Y680660D01*
X422384Y680562D01*
X422394Y680462D01*
X422400Y680363D01*
X422402Y680263D01*
X422402Y677723D01*
X413258Y677723D01*
X413258Y680263D01*
X413260Y680352D01*
X413266Y680440D01*
X413275Y680528D01*
X413289Y680616D01*
X413306Y680703D01*
X413327Y680789D01*
X413352Y680874D01*
X413381Y680958D01*
X413413Y681041D01*
X413448Y681122D01*
X413488Y681201D01*
X413530Y681279D01*
X413576Y681355D01*
X413625Y681429D01*
X413678Y681500D01*
X413733Y681569D01*
X413792Y681636D01*
X413853Y681700D01*
X413917Y681761D01*
X413984Y681820D01*
X414053Y681875D01*
X414124Y681928D01*
X414198Y681977D01*
X414274Y682023D01*
X414352Y682065D01*
X414431Y682105D01*
X414512Y682140D01*
X414595Y682172D01*
X414679Y682201D01*
X414764Y682226D01*
X414850Y682247D01*
X414937Y682264D01*
X415025Y682278D01*
X415113Y682287D01*
X415201Y682293D01*
X415290Y682295D01*
X415379Y682293D01*
X415467Y682287D01*
X415555Y682278D01*
X415643Y682264D01*
X415730Y682247D01*
X415816Y682226D01*
X415901Y682201D01*
X415985Y682172D01*
X416068Y682140D01*
X416149Y682105D01*
X416228Y682065D01*
X416306Y682023D01*
X416382Y681977D01*
X416456Y681928D01*
X416527Y681875D01*
X416596Y681820D01*
X416663Y681761D01*
X416727Y681700D01*
X416788Y681636D01*
X416847Y681569D01*
X416902Y681500D01*
X416955Y681429D01*
X417004Y681355D01*
X417050Y681279D01*
X417092Y681201D01*
X417132Y681122D01*
X417167Y681041D01*
X417199Y680958D01*
X417228Y680874D01*
X417253Y680789D01*
X417274Y680703D01*
X417291Y680616D01*
X417305Y680528D01*
X417314Y680440D01*
X417320Y680352D01*
X417322Y680263D01*
X413258Y686781D02*
X422402Y686781D01*
X413258Y686781D02*
X413258Y689321D01*
X413260Y689421D01*
X413266Y689520D01*
X413276Y689620D01*
X413289Y689718D01*
X413307Y689817D01*
X413328Y689914D01*
X413353Y690010D01*
X413382Y690106D01*
X413415Y690200D01*
X413451Y690293D01*
X413491Y690384D01*
X413535Y690474D01*
X413582Y690562D01*
X413632Y690648D01*
X413686Y690732D01*
X413743Y690814D01*
X413803Y690893D01*
X413867Y690971D01*
X413933Y691045D01*
X414002Y691117D01*
X414074Y691186D01*
X414148Y691252D01*
X414226Y691316D01*
X414305Y691376D01*
X414387Y691433D01*
X414471Y691487D01*
X414557Y691537D01*
X414645Y691584D01*
X414735Y691628D01*
X414826Y691668D01*
X414919Y691704D01*
X415013Y691737D01*
X415109Y691766D01*
X415205Y691791D01*
X415302Y691812D01*
X415401Y691830D01*
X415499Y691843D01*
X415599Y691853D01*
X415698Y691859D01*
X415798Y691861D01*
X415898Y691859D01*
X415997Y691853D01*
X416097Y691843D01*
X416195Y691830D01*
X416294Y691812D01*
X416391Y691791D01*
X416487Y691766D01*
X416583Y691737D01*
X416677Y691704D01*
X416770Y691668D01*
X416861Y691628D01*
X416951Y691584D01*
X417039Y691537D01*
X417125Y691487D01*
X417209Y691433D01*
X417291Y691376D01*
X417370Y691316D01*
X417448Y691252D01*
X417522Y691186D01*
X417594Y691117D01*
X417663Y691045D01*
X417729Y690971D01*
X417793Y690893D01*
X417853Y690814D01*
X417910Y690732D01*
X417964Y690648D01*
X418014Y690562D01*
X418061Y690474D01*
X418105Y690384D01*
X418145Y690293D01*
X418181Y690200D01*
X418214Y690106D01*
X418243Y690010D01*
X418268Y689914D01*
X418289Y689817D01*
X418307Y689718D01*
X418320Y689620D01*
X418330Y689520D01*
X418336Y689421D01*
X418338Y689321D01*
X418338Y686781D01*
X418338Y689829D02*
X422402Y691861D01*
X422402Y696163D02*
X413258Y696163D01*
X413258Y698703D01*
X413260Y698803D01*
X413266Y698902D01*
X413276Y699002D01*
X413289Y699100D01*
X413307Y699199D01*
X413328Y699296D01*
X413353Y699392D01*
X413382Y699488D01*
X413415Y699582D01*
X413451Y699675D01*
X413491Y699766D01*
X413535Y699856D01*
X413582Y699944D01*
X413632Y700030D01*
X413686Y700114D01*
X413743Y700196D01*
X413803Y700275D01*
X413867Y700353D01*
X413933Y700427D01*
X414002Y700499D01*
X414074Y700568D01*
X414148Y700634D01*
X414226Y700698D01*
X414305Y700758D01*
X414387Y700815D01*
X414471Y700869D01*
X414557Y700919D01*
X414645Y700966D01*
X414735Y701010D01*
X414826Y701050D01*
X414919Y701086D01*
X415013Y701119D01*
X415109Y701148D01*
X415205Y701173D01*
X415302Y701194D01*
X415401Y701212D01*
X415499Y701225D01*
X415599Y701235D01*
X415698Y701241D01*
X415798Y701243D01*
X419862Y701243D01*
X419962Y701241D01*
X420061Y701235D01*
X420161Y701225D01*
X420259Y701212D01*
X420358Y701194D01*
X420455Y701173D01*
X420551Y701148D01*
X420647Y701119D01*
X420741Y701086D01*
X420834Y701050D01*
X420925Y701010D01*
X421015Y700966D01*
X421103Y700919D01*
X421189Y700869D01*
X421273Y700815D01*
X421355Y700758D01*
X421434Y700698D01*
X421512Y700634D01*
X421586Y700568D01*
X421658Y700499D01*
X421727Y700427D01*
X421793Y700353D01*
X421857Y700275D01*
X421917Y700196D01*
X421974Y700114D01*
X422028Y700030D01*
X422078Y699944D01*
X422125Y699856D01*
X422169Y699766D01*
X422209Y699675D01*
X422245Y699582D01*
X422278Y699488D01*
X422307Y699392D01*
X422332Y699296D01*
X422353Y699199D01*
X422371Y699100D01*
X422384Y699002D01*
X422394Y698902D01*
X422400Y698803D01*
X422402Y698703D01*
X422402Y696163D01*
X413258Y708406D02*
X413260Y708500D01*
X413266Y708595D01*
X413276Y708689D01*
X413289Y708782D01*
X413307Y708875D01*
X413328Y708967D01*
X413353Y709058D01*
X413382Y709148D01*
X413414Y709237D01*
X413451Y709324D01*
X413490Y709410D01*
X413534Y709494D01*
X413580Y709576D01*
X413630Y709656D01*
X413684Y709734D01*
X413740Y709810D01*
X413800Y709883D01*
X413862Y709954D01*
X413928Y710022D01*
X413996Y710088D01*
X414067Y710150D01*
X414140Y710210D01*
X414216Y710266D01*
X414294Y710320D01*
X414374Y710370D01*
X414456Y710416D01*
X414540Y710460D01*
X414626Y710499D01*
X414713Y710536D01*
X414802Y710568D01*
X414892Y710597D01*
X414983Y710622D01*
X415075Y710643D01*
X415168Y710661D01*
X415261Y710674D01*
X415355Y710684D01*
X415450Y710690D01*
X415544Y710692D01*
X413258Y708406D02*
X413260Y708300D01*
X413266Y708195D01*
X413275Y708090D01*
X413288Y707985D01*
X413305Y707881D01*
X413326Y707778D01*
X413350Y707675D01*
X413379Y707573D01*
X413410Y707473D01*
X413446Y707373D01*
X413484Y707275D01*
X413527Y707179D01*
X413573Y707083D01*
X413622Y706990D01*
X413674Y706899D01*
X413730Y706809D01*
X413789Y706721D01*
X413851Y706636D01*
X413916Y706553D01*
X413984Y706472D01*
X414055Y706394D01*
X414129Y706319D01*
X414205Y706246D01*
X414284Y706176D01*
X414365Y706109D01*
X414449Y706044D01*
X414535Y705983D01*
X414623Y705925D01*
X414713Y705870D01*
X414805Y705819D01*
X414899Y705770D01*
X414995Y705725D01*
X415092Y705684D01*
X415190Y705646D01*
X415290Y705612D01*
X417322Y709930D02*
X417255Y709997D01*
X417186Y710062D01*
X417114Y710124D01*
X417041Y710183D01*
X416964Y710239D01*
X416886Y710293D01*
X416806Y710343D01*
X416724Y710390D01*
X416640Y710434D01*
X416554Y710474D01*
X416467Y710512D01*
X416379Y710546D01*
X416289Y710576D01*
X416199Y710603D01*
X416107Y710627D01*
X416014Y710647D01*
X415921Y710663D01*
X415827Y710676D01*
X415733Y710685D01*
X415639Y710690D01*
X415544Y710692D01*
X417322Y709930D02*
X422402Y705612D01*
X422402Y710692D01*
D12*
X180975Y88900D02*
X123825Y88900D01*
X180975Y88900D02*
X180975Y622300D01*
X123825Y622300D01*
X123825Y390525D01*
X114300Y390525D01*
X114300Y320675D01*
X123825Y320675D01*
X123825Y88900D01*
D13*
X127508Y629158D02*
X127508Y638302D01*
X130048Y638302D01*
X130148Y638300D01*
X130247Y638294D01*
X130347Y638284D01*
X130445Y638271D01*
X130544Y638253D01*
X130641Y638232D01*
X130737Y638207D01*
X130833Y638178D01*
X130927Y638145D01*
X131020Y638109D01*
X131111Y638069D01*
X131201Y638025D01*
X131289Y637978D01*
X131375Y637928D01*
X131459Y637874D01*
X131541Y637817D01*
X131620Y637757D01*
X131698Y637693D01*
X131772Y637627D01*
X131844Y637558D01*
X131913Y637486D01*
X131979Y637412D01*
X132043Y637334D01*
X132103Y637255D01*
X132160Y637173D01*
X132214Y637089D01*
X132264Y637003D01*
X132311Y636915D01*
X132355Y636825D01*
X132395Y636734D01*
X132431Y636641D01*
X132464Y636547D01*
X132493Y636451D01*
X132518Y636355D01*
X132539Y636258D01*
X132557Y636159D01*
X132570Y636061D01*
X132580Y635961D01*
X132586Y635862D01*
X132588Y635762D01*
X132586Y635662D01*
X132580Y635563D01*
X132570Y635463D01*
X132557Y635365D01*
X132539Y635266D01*
X132518Y635169D01*
X132493Y635073D01*
X132464Y634977D01*
X132431Y634883D01*
X132395Y634790D01*
X132355Y634699D01*
X132311Y634609D01*
X132264Y634521D01*
X132214Y634435D01*
X132160Y634351D01*
X132103Y634269D01*
X132043Y634190D01*
X131979Y634112D01*
X131913Y634038D01*
X131844Y633966D01*
X131772Y633897D01*
X131698Y633831D01*
X131620Y633767D01*
X131541Y633707D01*
X131459Y633650D01*
X131375Y633596D01*
X131289Y633546D01*
X131201Y633499D01*
X131111Y633455D01*
X131020Y633415D01*
X130927Y633379D01*
X130833Y633346D01*
X130737Y633317D01*
X130641Y633292D01*
X130544Y633271D01*
X130445Y633253D01*
X130347Y633240D01*
X130247Y633230D01*
X130148Y633224D01*
X130048Y633222D01*
X127508Y633222D01*
X130556Y633222D02*
X132588Y629158D01*
X139329Y629158D02*
X139418Y629160D01*
X139506Y629166D01*
X139594Y629175D01*
X139682Y629189D01*
X139769Y629206D01*
X139855Y629227D01*
X139940Y629252D01*
X140024Y629281D01*
X140107Y629313D01*
X140188Y629348D01*
X140267Y629388D01*
X140345Y629430D01*
X140421Y629476D01*
X140495Y629525D01*
X140566Y629578D01*
X140635Y629633D01*
X140702Y629692D01*
X140766Y629753D01*
X140827Y629817D01*
X140886Y629884D01*
X140941Y629953D01*
X140994Y630024D01*
X141043Y630098D01*
X141089Y630174D01*
X141131Y630252D01*
X141171Y630331D01*
X141206Y630412D01*
X141238Y630495D01*
X141267Y630579D01*
X141292Y630664D01*
X141313Y630750D01*
X141330Y630837D01*
X141344Y630925D01*
X141353Y631013D01*
X141359Y631101D01*
X141361Y631190D01*
X139329Y629158D02*
X139199Y629160D01*
X139068Y629166D01*
X138938Y629176D01*
X138809Y629190D01*
X138680Y629207D01*
X138551Y629229D01*
X138423Y629255D01*
X138296Y629284D01*
X138170Y629317D01*
X138045Y629354D01*
X137921Y629395D01*
X137799Y629440D01*
X137678Y629488D01*
X137558Y629540D01*
X137440Y629596D01*
X137324Y629655D01*
X137210Y629718D01*
X137097Y629784D01*
X136987Y629853D01*
X136879Y629926D01*
X136773Y630002D01*
X136669Y630081D01*
X136568Y630163D01*
X136470Y630249D01*
X136374Y630337D01*
X136281Y630428D01*
X136535Y636270D02*
X136537Y636359D01*
X136543Y636447D01*
X136552Y636535D01*
X136566Y636623D01*
X136583Y636710D01*
X136604Y636796D01*
X136629Y636881D01*
X136658Y636965D01*
X136690Y637048D01*
X136725Y637129D01*
X136765Y637208D01*
X136807Y637286D01*
X136853Y637362D01*
X136902Y637436D01*
X136955Y637507D01*
X137010Y637576D01*
X137069Y637643D01*
X137130Y637707D01*
X137194Y637768D01*
X137261Y637827D01*
X137330Y637882D01*
X137401Y637935D01*
X137475Y637984D01*
X137551Y638030D01*
X137629Y638072D01*
X137708Y638112D01*
X137789Y638147D01*
X137872Y638179D01*
X137956Y638208D01*
X138041Y638233D01*
X138127Y638254D01*
X138214Y638271D01*
X138302Y638285D01*
X138390Y638294D01*
X138478Y638300D01*
X138567Y638302D01*
X138690Y638300D01*
X138812Y638294D01*
X138934Y638284D01*
X139056Y638270D01*
X139177Y638253D01*
X139298Y638231D01*
X139418Y638206D01*
X139537Y638176D01*
X139655Y638143D01*
X139772Y638106D01*
X139887Y638066D01*
X140002Y638022D01*
X140115Y637974D01*
X140226Y637922D01*
X140335Y637867D01*
X140443Y637808D01*
X140549Y637746D01*
X140652Y637681D01*
X140754Y637612D01*
X140853Y637540D01*
X137551Y634492D02*
X137475Y634539D01*
X137401Y634589D01*
X137330Y634642D01*
X137261Y634699D01*
X137194Y634758D01*
X137130Y634820D01*
X137068Y634885D01*
X137010Y634953D01*
X136955Y635023D01*
X136902Y635095D01*
X136853Y635169D01*
X136807Y635246D01*
X136764Y635324D01*
X136725Y635405D01*
X136689Y635487D01*
X136657Y635570D01*
X136629Y635654D01*
X136604Y635740D01*
X136583Y635827D01*
X136566Y635915D01*
X136552Y636003D01*
X136543Y636092D01*
X136537Y636181D01*
X136535Y636270D01*
X140345Y632968D02*
X140421Y632921D01*
X140495Y632871D01*
X140566Y632818D01*
X140635Y632761D01*
X140702Y632702D01*
X140766Y632640D01*
X140828Y632575D01*
X140886Y632507D01*
X140941Y632437D01*
X140994Y632365D01*
X141043Y632291D01*
X141089Y632214D01*
X141132Y632136D01*
X141171Y632055D01*
X141207Y631973D01*
X141239Y631890D01*
X141267Y631806D01*
X141292Y631720D01*
X141313Y631633D01*
X141330Y631545D01*
X141344Y631457D01*
X141353Y631368D01*
X141359Y631279D01*
X141361Y631190D01*
X140345Y632968D02*
X137551Y634492D01*
X147050Y638302D02*
X147050Y629158D01*
X144510Y638302D02*
X149590Y638302D01*
D12*
X352425Y622300D02*
X409575Y622300D01*
X352425Y622300D02*
X352425Y88900D01*
X409575Y88900D01*
X409575Y320675D01*
X419100Y320675D01*
X419100Y390525D01*
X409575Y390525D01*
X409575Y622300D01*
D13*
X383875Y82042D02*
X380827Y72898D01*
X386923Y72898D02*
X383875Y82042D01*
X386161Y75184D02*
X381589Y75184D01*
X390850Y72898D02*
X390850Y82042D01*
X393390Y82042D01*
X393490Y82040D01*
X393589Y82034D01*
X393689Y82024D01*
X393787Y82011D01*
X393886Y81993D01*
X393983Y81972D01*
X394079Y81947D01*
X394175Y81918D01*
X394269Y81885D01*
X394362Y81849D01*
X394453Y81809D01*
X394543Y81765D01*
X394631Y81718D01*
X394717Y81668D01*
X394801Y81614D01*
X394883Y81557D01*
X394962Y81497D01*
X395040Y81433D01*
X395114Y81367D01*
X395186Y81298D01*
X395255Y81226D01*
X395321Y81152D01*
X395385Y81074D01*
X395445Y80995D01*
X395502Y80913D01*
X395556Y80829D01*
X395606Y80743D01*
X395653Y80655D01*
X395697Y80565D01*
X395737Y80474D01*
X395773Y80381D01*
X395806Y80287D01*
X395835Y80191D01*
X395860Y80095D01*
X395881Y79998D01*
X395899Y79899D01*
X395912Y79801D01*
X395922Y79701D01*
X395928Y79602D01*
X395930Y79502D01*
X395928Y79402D01*
X395922Y79303D01*
X395912Y79203D01*
X395899Y79105D01*
X395881Y79006D01*
X395860Y78909D01*
X395835Y78813D01*
X395806Y78717D01*
X395773Y78623D01*
X395737Y78530D01*
X395697Y78439D01*
X395653Y78349D01*
X395606Y78261D01*
X395556Y78175D01*
X395502Y78091D01*
X395445Y78009D01*
X395385Y77930D01*
X395321Y77852D01*
X395255Y77778D01*
X395186Y77706D01*
X395114Y77637D01*
X395040Y77571D01*
X394962Y77507D01*
X394883Y77447D01*
X394801Y77390D01*
X394717Y77336D01*
X394631Y77286D01*
X394543Y77239D01*
X394453Y77195D01*
X394362Y77155D01*
X394269Y77119D01*
X394175Y77086D01*
X394079Y77057D01*
X393983Y77032D01*
X393886Y77011D01*
X393787Y76993D01*
X393689Y76980D01*
X393589Y76970D01*
X393490Y76964D01*
X393390Y76962D01*
X390850Y76962D01*
X393898Y76962D02*
X395930Y72898D01*
X400253Y72898D02*
X404317Y72898D01*
X400253Y72898D02*
X400253Y82042D01*
X404317Y82042D01*
X403301Y77978D02*
X400253Y77978D01*
X408178Y82042D02*
X408178Y72898D01*
X408178Y82042D02*
X412242Y82042D01*
X412242Y77978D02*
X408178Y77978D01*
D14*
X259842Y111760D02*
X259842Y193040D01*
X295148Y196850D02*
X295270Y196848D01*
X295392Y196842D01*
X295514Y196832D01*
X295635Y196819D01*
X295756Y196801D01*
X295876Y196780D01*
X295996Y196754D01*
X296114Y196725D01*
X296232Y196693D01*
X296349Y196656D01*
X296464Y196616D01*
X296578Y196572D01*
X296690Y196524D01*
X296801Y196473D01*
X296910Y196418D01*
X297018Y196360D01*
X297123Y196298D01*
X297226Y196233D01*
X297328Y196165D01*
X297427Y196093D01*
X297523Y196019D01*
X297618Y195941D01*
X297709Y195860D01*
X297799Y195777D01*
X297885Y195691D01*
X297968Y195601D01*
X298049Y195510D01*
X298127Y195415D01*
X298201Y195319D01*
X298273Y195220D01*
X298341Y195118D01*
X298406Y195015D01*
X298468Y194910D01*
X298526Y194802D01*
X298581Y194693D01*
X298632Y194582D01*
X298680Y194470D01*
X298724Y194356D01*
X298764Y194241D01*
X298801Y194124D01*
X298833Y194006D01*
X298862Y193888D01*
X298888Y193768D01*
X298909Y193648D01*
X298927Y193527D01*
X298940Y193406D01*
X298950Y193284D01*
X298956Y193162D01*
X298958Y193040D01*
X259842Y111760D02*
X259844Y111638D01*
X259850Y111516D01*
X259860Y111394D01*
X259873Y111273D01*
X259891Y111152D01*
X259912Y111032D01*
X259938Y110912D01*
X259967Y110794D01*
X259999Y110676D01*
X260036Y110559D01*
X260076Y110444D01*
X260120Y110330D01*
X260168Y110218D01*
X260219Y110107D01*
X260274Y109998D01*
X260332Y109890D01*
X260394Y109785D01*
X260459Y109682D01*
X260527Y109580D01*
X260599Y109481D01*
X260673Y109385D01*
X260751Y109290D01*
X260832Y109199D01*
X260915Y109109D01*
X261001Y109023D01*
X261091Y108940D01*
X261182Y108859D01*
X261277Y108781D01*
X261373Y108707D01*
X261472Y108635D01*
X261574Y108567D01*
X261677Y108502D01*
X261782Y108440D01*
X261890Y108382D01*
X261999Y108327D01*
X262110Y108276D01*
X262222Y108228D01*
X262336Y108184D01*
X262451Y108144D01*
X262568Y108107D01*
X262686Y108075D01*
X262804Y108046D01*
X262924Y108020D01*
X263044Y107999D01*
X263165Y107981D01*
X263286Y107968D01*
X263408Y107958D01*
X263530Y107952D01*
X263652Y107950D01*
X259842Y193040D02*
X259844Y193162D01*
X259850Y193284D01*
X259860Y193406D01*
X259873Y193527D01*
X259891Y193648D01*
X259912Y193768D01*
X259938Y193888D01*
X259967Y194006D01*
X259999Y194124D01*
X260036Y194241D01*
X260076Y194356D01*
X260120Y194470D01*
X260168Y194582D01*
X260219Y194693D01*
X260274Y194802D01*
X260332Y194910D01*
X260394Y195015D01*
X260459Y195118D01*
X260527Y195220D01*
X260599Y195319D01*
X260673Y195415D01*
X260751Y195510D01*
X260832Y195601D01*
X260915Y195691D01*
X261001Y195777D01*
X261091Y195860D01*
X261182Y195941D01*
X261277Y196019D01*
X261373Y196093D01*
X261472Y196165D01*
X261574Y196233D01*
X261677Y196298D01*
X261782Y196360D01*
X261890Y196418D01*
X261999Y196473D01*
X262110Y196524D01*
X262222Y196572D01*
X262336Y196616D01*
X262451Y196656D01*
X262568Y196693D01*
X262686Y196725D01*
X262804Y196754D01*
X262924Y196780D01*
X263044Y196801D01*
X263165Y196819D01*
X263286Y196832D01*
X263408Y196842D01*
X263530Y196848D01*
X263652Y196850D01*
X298958Y111760D02*
X298956Y111638D01*
X298950Y111516D01*
X298940Y111394D01*
X298927Y111273D01*
X298909Y111152D01*
X298888Y111032D01*
X298862Y110912D01*
X298833Y110794D01*
X298801Y110676D01*
X298764Y110559D01*
X298724Y110444D01*
X298680Y110330D01*
X298632Y110218D01*
X298581Y110107D01*
X298526Y109998D01*
X298468Y109890D01*
X298406Y109785D01*
X298341Y109682D01*
X298273Y109580D01*
X298201Y109481D01*
X298127Y109385D01*
X298049Y109290D01*
X297968Y109199D01*
X297885Y109109D01*
X297799Y109023D01*
X297709Y108940D01*
X297618Y108859D01*
X297523Y108781D01*
X297427Y108707D01*
X297328Y108635D01*
X297226Y108567D01*
X297123Y108502D01*
X297018Y108440D01*
X296910Y108382D01*
X296801Y108327D01*
X296690Y108276D01*
X296578Y108228D01*
X296464Y108184D01*
X296349Y108144D01*
X296232Y108107D01*
X296114Y108075D01*
X295996Y108046D01*
X295876Y108020D01*
X295756Y107999D01*
X295635Y107981D01*
X295514Y107968D01*
X295392Y107958D01*
X295270Y107952D01*
X295148Y107950D01*
X298958Y111760D02*
X298958Y193040D01*
X295148Y196850D02*
X263652Y196850D01*
X263652Y107950D02*
X274320Y107950D01*
X284480Y107950D01*
X295148Y107950D01*
X284480Y107950D02*
X284478Y108091D01*
X284472Y108232D01*
X284462Y108373D01*
X284449Y108514D01*
X284431Y108654D01*
X284409Y108793D01*
X284384Y108932D01*
X284355Y109071D01*
X284322Y109208D01*
X284285Y109344D01*
X284244Y109479D01*
X284200Y109614D01*
X284152Y109746D01*
X284100Y109878D01*
X284045Y110008D01*
X283986Y110136D01*
X283923Y110263D01*
X283857Y110387D01*
X283788Y110510D01*
X283715Y110631D01*
X283639Y110750D01*
X283559Y110867D01*
X283476Y110981D01*
X283391Y111094D01*
X283302Y111203D01*
X283210Y111311D01*
X283115Y111415D01*
X283017Y111517D01*
X282916Y111616D01*
X282813Y111713D01*
X282707Y111806D01*
X282599Y111896D01*
X282488Y111984D01*
X282375Y112068D01*
X282259Y112149D01*
X282141Y112227D01*
X282021Y112302D01*
X281899Y112373D01*
X281775Y112441D01*
X281649Y112505D01*
X281522Y112566D01*
X281393Y112623D01*
X281262Y112676D01*
X281130Y112726D01*
X280997Y112773D01*
X280862Y112815D01*
X280726Y112854D01*
X280589Y112889D01*
X280452Y112920D01*
X280313Y112947D01*
X280174Y112971D01*
X280034Y112990D01*
X279894Y113006D01*
X279753Y113018D01*
X279612Y113026D01*
X279471Y113030D01*
X279329Y113030D01*
X279188Y113026D01*
X279047Y113018D01*
X278906Y113006D01*
X278766Y112990D01*
X278626Y112971D01*
X278487Y112947D01*
X278348Y112920D01*
X278211Y112889D01*
X278074Y112854D01*
X277938Y112815D01*
X277803Y112773D01*
X277670Y112726D01*
X277538Y112676D01*
X277407Y112623D01*
X277278Y112566D01*
X277151Y112505D01*
X277025Y112441D01*
X276901Y112373D01*
X276779Y112302D01*
X276659Y112227D01*
X276541Y112149D01*
X276425Y112068D01*
X276312Y111984D01*
X276201Y111896D01*
X276093Y111806D01*
X275987Y111713D01*
X275884Y111616D01*
X275783Y111517D01*
X275685Y111415D01*
X275590Y111311D01*
X275498Y111203D01*
X275409Y111094D01*
X275324Y110981D01*
X275241Y110867D01*
X275161Y110750D01*
X275085Y110631D01*
X275012Y110510D01*
X274943Y110387D01*
X274877Y110263D01*
X274814Y110136D01*
X274755Y110008D01*
X274700Y109878D01*
X274648Y109746D01*
X274600Y109614D01*
X274556Y109479D01*
X274515Y109344D01*
X274478Y109208D01*
X274445Y109071D01*
X274416Y108932D01*
X274391Y108793D01*
X274369Y108654D01*
X274351Y108514D01*
X274338Y108373D01*
X274328Y108232D01*
X274322Y108091D01*
X274320Y107950D01*
X295402Y107950D02*
X295402Y196850D01*
X259842Y213360D02*
X259842Y294640D01*
X295148Y298450D02*
X295270Y298448D01*
X295392Y298442D01*
X295514Y298432D01*
X295635Y298419D01*
X295756Y298401D01*
X295876Y298380D01*
X295996Y298354D01*
X296114Y298325D01*
X296232Y298293D01*
X296349Y298256D01*
X296464Y298216D01*
X296578Y298172D01*
X296690Y298124D01*
X296801Y298073D01*
X296910Y298018D01*
X297018Y297960D01*
X297123Y297898D01*
X297226Y297833D01*
X297328Y297765D01*
X297427Y297693D01*
X297523Y297619D01*
X297618Y297541D01*
X297709Y297460D01*
X297799Y297377D01*
X297885Y297291D01*
X297968Y297201D01*
X298049Y297110D01*
X298127Y297015D01*
X298201Y296919D01*
X298273Y296820D01*
X298341Y296718D01*
X298406Y296615D01*
X298468Y296510D01*
X298526Y296402D01*
X298581Y296293D01*
X298632Y296182D01*
X298680Y296070D01*
X298724Y295956D01*
X298764Y295841D01*
X298801Y295724D01*
X298833Y295606D01*
X298862Y295488D01*
X298888Y295368D01*
X298909Y295248D01*
X298927Y295127D01*
X298940Y295006D01*
X298950Y294884D01*
X298956Y294762D01*
X298958Y294640D01*
X259842Y213360D02*
X259844Y213238D01*
X259850Y213116D01*
X259860Y212994D01*
X259873Y212873D01*
X259891Y212752D01*
X259912Y212632D01*
X259938Y212512D01*
X259967Y212394D01*
X259999Y212276D01*
X260036Y212159D01*
X260076Y212044D01*
X260120Y211930D01*
X260168Y211818D01*
X260219Y211707D01*
X260274Y211598D01*
X260332Y211490D01*
X260394Y211385D01*
X260459Y211282D01*
X260527Y211180D01*
X260599Y211081D01*
X260673Y210985D01*
X260751Y210890D01*
X260832Y210799D01*
X260915Y210709D01*
X261001Y210623D01*
X261091Y210540D01*
X261182Y210459D01*
X261277Y210381D01*
X261373Y210307D01*
X261472Y210235D01*
X261574Y210167D01*
X261677Y210102D01*
X261782Y210040D01*
X261890Y209982D01*
X261999Y209927D01*
X262110Y209876D01*
X262222Y209828D01*
X262336Y209784D01*
X262451Y209744D01*
X262568Y209707D01*
X262686Y209675D01*
X262804Y209646D01*
X262924Y209620D01*
X263044Y209599D01*
X263165Y209581D01*
X263286Y209568D01*
X263408Y209558D01*
X263530Y209552D01*
X263652Y209550D01*
X259842Y294640D02*
X259844Y294762D01*
X259850Y294884D01*
X259860Y295006D01*
X259873Y295127D01*
X259891Y295248D01*
X259912Y295368D01*
X259938Y295488D01*
X259967Y295606D01*
X259999Y295724D01*
X260036Y295841D01*
X260076Y295956D01*
X260120Y296070D01*
X260168Y296182D01*
X260219Y296293D01*
X260274Y296402D01*
X260332Y296510D01*
X260394Y296615D01*
X260459Y296718D01*
X260527Y296820D01*
X260599Y296919D01*
X260673Y297015D01*
X260751Y297110D01*
X260832Y297201D01*
X260915Y297291D01*
X261001Y297377D01*
X261091Y297460D01*
X261182Y297541D01*
X261277Y297619D01*
X261373Y297693D01*
X261472Y297765D01*
X261574Y297833D01*
X261677Y297898D01*
X261782Y297960D01*
X261890Y298018D01*
X261999Y298073D01*
X262110Y298124D01*
X262222Y298172D01*
X262336Y298216D01*
X262451Y298256D01*
X262568Y298293D01*
X262686Y298325D01*
X262804Y298354D01*
X262924Y298380D01*
X263044Y298401D01*
X263165Y298419D01*
X263286Y298432D01*
X263408Y298442D01*
X263530Y298448D01*
X263652Y298450D01*
X298958Y213360D02*
X298956Y213238D01*
X298950Y213116D01*
X298940Y212994D01*
X298927Y212873D01*
X298909Y212752D01*
X298888Y212632D01*
X298862Y212512D01*
X298833Y212394D01*
X298801Y212276D01*
X298764Y212159D01*
X298724Y212044D01*
X298680Y211930D01*
X298632Y211818D01*
X298581Y211707D01*
X298526Y211598D01*
X298468Y211490D01*
X298406Y211385D01*
X298341Y211282D01*
X298273Y211180D01*
X298201Y211081D01*
X298127Y210985D01*
X298049Y210890D01*
X297968Y210799D01*
X297885Y210709D01*
X297799Y210623D01*
X297709Y210540D01*
X297618Y210459D01*
X297523Y210381D01*
X297427Y210307D01*
X297328Y210235D01*
X297226Y210167D01*
X297123Y210102D01*
X297018Y210040D01*
X296910Y209982D01*
X296801Y209927D01*
X296690Y209876D01*
X296578Y209828D01*
X296464Y209784D01*
X296349Y209744D01*
X296232Y209707D01*
X296114Y209675D01*
X295996Y209646D01*
X295876Y209620D01*
X295756Y209599D01*
X295635Y209581D01*
X295514Y209568D01*
X295392Y209558D01*
X295270Y209552D01*
X295148Y209550D01*
X298958Y213360D02*
X298958Y294640D01*
X295148Y298450D02*
X263652Y298450D01*
X263652Y209550D02*
X274320Y209550D01*
X284480Y209550D01*
X295148Y209550D01*
X284480Y209550D02*
X284478Y209691D01*
X284472Y209832D01*
X284462Y209973D01*
X284449Y210114D01*
X284431Y210254D01*
X284409Y210393D01*
X284384Y210532D01*
X284355Y210671D01*
X284322Y210808D01*
X284285Y210944D01*
X284244Y211079D01*
X284200Y211214D01*
X284152Y211346D01*
X284100Y211478D01*
X284045Y211608D01*
X283986Y211736D01*
X283923Y211863D01*
X283857Y211987D01*
X283788Y212110D01*
X283715Y212231D01*
X283639Y212350D01*
X283559Y212467D01*
X283476Y212581D01*
X283391Y212694D01*
X283302Y212803D01*
X283210Y212911D01*
X283115Y213015D01*
X283017Y213117D01*
X282916Y213216D01*
X282813Y213313D01*
X282707Y213406D01*
X282599Y213496D01*
X282488Y213584D01*
X282375Y213668D01*
X282259Y213749D01*
X282141Y213827D01*
X282021Y213902D01*
X281899Y213973D01*
X281775Y214041D01*
X281649Y214105D01*
X281522Y214166D01*
X281393Y214223D01*
X281262Y214276D01*
X281130Y214326D01*
X280997Y214373D01*
X280862Y214415D01*
X280726Y214454D01*
X280589Y214489D01*
X280452Y214520D01*
X280313Y214547D01*
X280174Y214571D01*
X280034Y214590D01*
X279894Y214606D01*
X279753Y214618D01*
X279612Y214626D01*
X279471Y214630D01*
X279329Y214630D01*
X279188Y214626D01*
X279047Y214618D01*
X278906Y214606D01*
X278766Y214590D01*
X278626Y214571D01*
X278487Y214547D01*
X278348Y214520D01*
X278211Y214489D01*
X278074Y214454D01*
X277938Y214415D01*
X277803Y214373D01*
X277670Y214326D01*
X277538Y214276D01*
X277407Y214223D01*
X277278Y214166D01*
X277151Y214105D01*
X277025Y214041D01*
X276901Y213973D01*
X276779Y213902D01*
X276659Y213827D01*
X276541Y213749D01*
X276425Y213668D01*
X276312Y213584D01*
X276201Y213496D01*
X276093Y213406D01*
X275987Y213313D01*
X275884Y213216D01*
X275783Y213117D01*
X275685Y213015D01*
X275590Y212911D01*
X275498Y212803D01*
X275409Y212694D01*
X275324Y212581D01*
X275241Y212467D01*
X275161Y212350D01*
X275085Y212231D01*
X275012Y212110D01*
X274943Y211987D01*
X274877Y211863D01*
X274814Y211736D01*
X274755Y211608D01*
X274700Y211478D01*
X274648Y211346D01*
X274600Y211214D01*
X274556Y211079D01*
X274515Y210944D01*
X274478Y210808D01*
X274445Y210671D01*
X274416Y210532D01*
X274391Y210393D01*
X274369Y210254D01*
X274351Y210114D01*
X274338Y209973D01*
X274328Y209832D01*
X274322Y209691D01*
X274320Y209550D01*
X295402Y209550D02*
X295402Y298450D01*
X259842Y314960D02*
X259842Y396240D01*
X295148Y400050D02*
X295270Y400048D01*
X295392Y400042D01*
X295514Y400032D01*
X295635Y400019D01*
X295756Y400001D01*
X295876Y399980D01*
X295996Y399954D01*
X296114Y399925D01*
X296232Y399893D01*
X296349Y399856D01*
X296464Y399816D01*
X296578Y399772D01*
X296690Y399724D01*
X296801Y399673D01*
X296910Y399618D01*
X297018Y399560D01*
X297123Y399498D01*
X297226Y399433D01*
X297328Y399365D01*
X297427Y399293D01*
X297523Y399219D01*
X297618Y399141D01*
X297709Y399060D01*
X297799Y398977D01*
X297885Y398891D01*
X297968Y398801D01*
X298049Y398710D01*
X298127Y398615D01*
X298201Y398519D01*
X298273Y398420D01*
X298341Y398318D01*
X298406Y398215D01*
X298468Y398110D01*
X298526Y398002D01*
X298581Y397893D01*
X298632Y397782D01*
X298680Y397670D01*
X298724Y397556D01*
X298764Y397441D01*
X298801Y397324D01*
X298833Y397206D01*
X298862Y397088D01*
X298888Y396968D01*
X298909Y396848D01*
X298927Y396727D01*
X298940Y396606D01*
X298950Y396484D01*
X298956Y396362D01*
X298958Y396240D01*
X259842Y314960D02*
X259844Y314838D01*
X259850Y314716D01*
X259860Y314594D01*
X259873Y314473D01*
X259891Y314352D01*
X259912Y314232D01*
X259938Y314112D01*
X259967Y313994D01*
X259999Y313876D01*
X260036Y313759D01*
X260076Y313644D01*
X260120Y313530D01*
X260168Y313418D01*
X260219Y313307D01*
X260274Y313198D01*
X260332Y313090D01*
X260394Y312985D01*
X260459Y312882D01*
X260527Y312780D01*
X260599Y312681D01*
X260673Y312585D01*
X260751Y312490D01*
X260832Y312399D01*
X260915Y312309D01*
X261001Y312223D01*
X261091Y312140D01*
X261182Y312059D01*
X261277Y311981D01*
X261373Y311907D01*
X261472Y311835D01*
X261574Y311767D01*
X261677Y311702D01*
X261782Y311640D01*
X261890Y311582D01*
X261999Y311527D01*
X262110Y311476D01*
X262222Y311428D01*
X262336Y311384D01*
X262451Y311344D01*
X262568Y311307D01*
X262686Y311275D01*
X262804Y311246D01*
X262924Y311220D01*
X263044Y311199D01*
X263165Y311181D01*
X263286Y311168D01*
X263408Y311158D01*
X263530Y311152D01*
X263652Y311150D01*
X259842Y396240D02*
X259844Y396362D01*
X259850Y396484D01*
X259860Y396606D01*
X259873Y396727D01*
X259891Y396848D01*
X259912Y396968D01*
X259938Y397088D01*
X259967Y397206D01*
X259999Y397324D01*
X260036Y397441D01*
X260076Y397556D01*
X260120Y397670D01*
X260168Y397782D01*
X260219Y397893D01*
X260274Y398002D01*
X260332Y398110D01*
X260394Y398215D01*
X260459Y398318D01*
X260527Y398420D01*
X260599Y398519D01*
X260673Y398615D01*
X260751Y398710D01*
X260832Y398801D01*
X260915Y398891D01*
X261001Y398977D01*
X261091Y399060D01*
X261182Y399141D01*
X261277Y399219D01*
X261373Y399293D01*
X261472Y399365D01*
X261574Y399433D01*
X261677Y399498D01*
X261782Y399560D01*
X261890Y399618D01*
X261999Y399673D01*
X262110Y399724D01*
X262222Y399772D01*
X262336Y399816D01*
X262451Y399856D01*
X262568Y399893D01*
X262686Y399925D01*
X262804Y399954D01*
X262924Y399980D01*
X263044Y400001D01*
X263165Y400019D01*
X263286Y400032D01*
X263408Y400042D01*
X263530Y400048D01*
X263652Y400050D01*
X298958Y314960D02*
X298956Y314838D01*
X298950Y314716D01*
X298940Y314594D01*
X298927Y314473D01*
X298909Y314352D01*
X298888Y314232D01*
X298862Y314112D01*
X298833Y313994D01*
X298801Y313876D01*
X298764Y313759D01*
X298724Y313644D01*
X298680Y313530D01*
X298632Y313418D01*
X298581Y313307D01*
X298526Y313198D01*
X298468Y313090D01*
X298406Y312985D01*
X298341Y312882D01*
X298273Y312780D01*
X298201Y312681D01*
X298127Y312585D01*
X298049Y312490D01*
X297968Y312399D01*
X297885Y312309D01*
X297799Y312223D01*
X297709Y312140D01*
X297618Y312059D01*
X297523Y311981D01*
X297427Y311907D01*
X297328Y311835D01*
X297226Y311767D01*
X297123Y311702D01*
X297018Y311640D01*
X296910Y311582D01*
X296801Y311527D01*
X296690Y311476D01*
X296578Y311428D01*
X296464Y311384D01*
X296349Y311344D01*
X296232Y311307D01*
X296114Y311275D01*
X295996Y311246D01*
X295876Y311220D01*
X295756Y311199D01*
X295635Y311181D01*
X295514Y311168D01*
X295392Y311158D01*
X295270Y311152D01*
X295148Y311150D01*
X298958Y314960D02*
X298958Y396240D01*
X295148Y400050D02*
X263652Y400050D01*
X263652Y311150D02*
X274320Y311150D01*
X284480Y311150D01*
X295148Y311150D01*
X284480Y311150D02*
X284478Y311291D01*
X284472Y311432D01*
X284462Y311573D01*
X284449Y311714D01*
X284431Y311854D01*
X284409Y311993D01*
X284384Y312132D01*
X284355Y312271D01*
X284322Y312408D01*
X284285Y312544D01*
X284244Y312679D01*
X284200Y312814D01*
X284152Y312946D01*
X284100Y313078D01*
X284045Y313208D01*
X283986Y313336D01*
X283923Y313463D01*
X283857Y313587D01*
X283788Y313710D01*
X283715Y313831D01*
X283639Y313950D01*
X283559Y314067D01*
X283476Y314181D01*
X283391Y314294D01*
X283302Y314403D01*
X283210Y314511D01*
X283115Y314615D01*
X283017Y314717D01*
X282916Y314816D01*
X282813Y314913D01*
X282707Y315006D01*
X282599Y315096D01*
X282488Y315184D01*
X282375Y315268D01*
X282259Y315349D01*
X282141Y315427D01*
X282021Y315502D01*
X281899Y315573D01*
X281775Y315641D01*
X281649Y315705D01*
X281522Y315766D01*
X281393Y315823D01*
X281262Y315876D01*
X281130Y315926D01*
X280997Y315973D01*
X280862Y316015D01*
X280726Y316054D01*
X280589Y316089D01*
X280452Y316120D01*
X280313Y316147D01*
X280174Y316171D01*
X280034Y316190D01*
X279894Y316206D01*
X279753Y316218D01*
X279612Y316226D01*
X279471Y316230D01*
X279329Y316230D01*
X279188Y316226D01*
X279047Y316218D01*
X278906Y316206D01*
X278766Y316190D01*
X278626Y316171D01*
X278487Y316147D01*
X278348Y316120D01*
X278211Y316089D01*
X278074Y316054D01*
X277938Y316015D01*
X277803Y315973D01*
X277670Y315926D01*
X277538Y315876D01*
X277407Y315823D01*
X277278Y315766D01*
X277151Y315705D01*
X277025Y315641D01*
X276901Y315573D01*
X276779Y315502D01*
X276659Y315427D01*
X276541Y315349D01*
X276425Y315268D01*
X276312Y315184D01*
X276201Y315096D01*
X276093Y315006D01*
X275987Y314913D01*
X275884Y314816D01*
X275783Y314717D01*
X275685Y314615D01*
X275590Y314511D01*
X275498Y314403D01*
X275409Y314294D01*
X275324Y314181D01*
X275241Y314067D01*
X275161Y313950D01*
X275085Y313831D01*
X275012Y313710D01*
X274943Y313587D01*
X274877Y313463D01*
X274814Y313336D01*
X274755Y313208D01*
X274700Y313078D01*
X274648Y312946D01*
X274600Y312814D01*
X274556Y312679D01*
X274515Y312544D01*
X274478Y312408D01*
X274445Y312271D01*
X274416Y312132D01*
X274391Y311993D01*
X274369Y311854D01*
X274351Y311714D01*
X274338Y311573D01*
X274328Y311432D01*
X274322Y311291D01*
X274320Y311150D01*
X295402Y311150D02*
X295402Y400050D01*
X259842Y416560D02*
X259842Y497840D01*
X295148Y501650D02*
X295270Y501648D01*
X295392Y501642D01*
X295514Y501632D01*
X295635Y501619D01*
X295756Y501601D01*
X295876Y501580D01*
X295996Y501554D01*
X296114Y501525D01*
X296232Y501493D01*
X296349Y501456D01*
X296464Y501416D01*
X296578Y501372D01*
X296690Y501324D01*
X296801Y501273D01*
X296910Y501218D01*
X297018Y501160D01*
X297123Y501098D01*
X297226Y501033D01*
X297328Y500965D01*
X297427Y500893D01*
X297523Y500819D01*
X297618Y500741D01*
X297709Y500660D01*
X297799Y500577D01*
X297885Y500491D01*
X297968Y500401D01*
X298049Y500310D01*
X298127Y500215D01*
X298201Y500119D01*
X298273Y500020D01*
X298341Y499918D01*
X298406Y499815D01*
X298468Y499710D01*
X298526Y499602D01*
X298581Y499493D01*
X298632Y499382D01*
X298680Y499270D01*
X298724Y499156D01*
X298764Y499041D01*
X298801Y498924D01*
X298833Y498806D01*
X298862Y498688D01*
X298888Y498568D01*
X298909Y498448D01*
X298927Y498327D01*
X298940Y498206D01*
X298950Y498084D01*
X298956Y497962D01*
X298958Y497840D01*
X259842Y416560D02*
X259844Y416438D01*
X259850Y416316D01*
X259860Y416194D01*
X259873Y416073D01*
X259891Y415952D01*
X259912Y415832D01*
X259938Y415712D01*
X259967Y415594D01*
X259999Y415476D01*
X260036Y415359D01*
X260076Y415244D01*
X260120Y415130D01*
X260168Y415018D01*
X260219Y414907D01*
X260274Y414798D01*
X260332Y414690D01*
X260394Y414585D01*
X260459Y414482D01*
X260527Y414380D01*
X260599Y414281D01*
X260673Y414185D01*
X260751Y414090D01*
X260832Y413999D01*
X260915Y413909D01*
X261001Y413823D01*
X261091Y413740D01*
X261182Y413659D01*
X261277Y413581D01*
X261373Y413507D01*
X261472Y413435D01*
X261574Y413367D01*
X261677Y413302D01*
X261782Y413240D01*
X261890Y413182D01*
X261999Y413127D01*
X262110Y413076D01*
X262222Y413028D01*
X262336Y412984D01*
X262451Y412944D01*
X262568Y412907D01*
X262686Y412875D01*
X262804Y412846D01*
X262924Y412820D01*
X263044Y412799D01*
X263165Y412781D01*
X263286Y412768D01*
X263408Y412758D01*
X263530Y412752D01*
X263652Y412750D01*
X259842Y497840D02*
X259844Y497962D01*
X259850Y498084D01*
X259860Y498206D01*
X259873Y498327D01*
X259891Y498448D01*
X259912Y498568D01*
X259938Y498688D01*
X259967Y498806D01*
X259999Y498924D01*
X260036Y499041D01*
X260076Y499156D01*
X260120Y499270D01*
X260168Y499382D01*
X260219Y499493D01*
X260274Y499602D01*
X260332Y499710D01*
X260394Y499815D01*
X260459Y499918D01*
X260527Y500020D01*
X260599Y500119D01*
X260673Y500215D01*
X260751Y500310D01*
X260832Y500401D01*
X260915Y500491D01*
X261001Y500577D01*
X261091Y500660D01*
X261182Y500741D01*
X261277Y500819D01*
X261373Y500893D01*
X261472Y500965D01*
X261574Y501033D01*
X261677Y501098D01*
X261782Y501160D01*
X261890Y501218D01*
X261999Y501273D01*
X262110Y501324D01*
X262222Y501372D01*
X262336Y501416D01*
X262451Y501456D01*
X262568Y501493D01*
X262686Y501525D01*
X262804Y501554D01*
X262924Y501580D01*
X263044Y501601D01*
X263165Y501619D01*
X263286Y501632D01*
X263408Y501642D01*
X263530Y501648D01*
X263652Y501650D01*
X298958Y416560D02*
X298956Y416438D01*
X298950Y416316D01*
X298940Y416194D01*
X298927Y416073D01*
X298909Y415952D01*
X298888Y415832D01*
X298862Y415712D01*
X298833Y415594D01*
X298801Y415476D01*
X298764Y415359D01*
X298724Y415244D01*
X298680Y415130D01*
X298632Y415018D01*
X298581Y414907D01*
X298526Y414798D01*
X298468Y414690D01*
X298406Y414585D01*
X298341Y414482D01*
X298273Y414380D01*
X298201Y414281D01*
X298127Y414185D01*
X298049Y414090D01*
X297968Y413999D01*
X297885Y413909D01*
X297799Y413823D01*
X297709Y413740D01*
X297618Y413659D01*
X297523Y413581D01*
X297427Y413507D01*
X297328Y413435D01*
X297226Y413367D01*
X297123Y413302D01*
X297018Y413240D01*
X296910Y413182D01*
X296801Y413127D01*
X296690Y413076D01*
X296578Y413028D01*
X296464Y412984D01*
X296349Y412944D01*
X296232Y412907D01*
X296114Y412875D01*
X295996Y412846D01*
X295876Y412820D01*
X295756Y412799D01*
X295635Y412781D01*
X295514Y412768D01*
X295392Y412758D01*
X295270Y412752D01*
X295148Y412750D01*
X298958Y416560D02*
X298958Y497840D01*
X295148Y501650D02*
X263652Y501650D01*
X263652Y412750D02*
X274320Y412750D01*
X284480Y412750D01*
X295148Y412750D01*
X284480Y412750D02*
X284478Y412891D01*
X284472Y413032D01*
X284462Y413173D01*
X284449Y413314D01*
X284431Y413454D01*
X284409Y413593D01*
X284384Y413732D01*
X284355Y413871D01*
X284322Y414008D01*
X284285Y414144D01*
X284244Y414279D01*
X284200Y414414D01*
X284152Y414546D01*
X284100Y414678D01*
X284045Y414808D01*
X283986Y414936D01*
X283923Y415063D01*
X283857Y415187D01*
X283788Y415310D01*
X283715Y415431D01*
X283639Y415550D01*
X283559Y415667D01*
X283476Y415781D01*
X283391Y415894D01*
X283302Y416003D01*
X283210Y416111D01*
X283115Y416215D01*
X283017Y416317D01*
X282916Y416416D01*
X282813Y416513D01*
X282707Y416606D01*
X282599Y416696D01*
X282488Y416784D01*
X282375Y416868D01*
X282259Y416949D01*
X282141Y417027D01*
X282021Y417102D01*
X281899Y417173D01*
X281775Y417241D01*
X281649Y417305D01*
X281522Y417366D01*
X281393Y417423D01*
X281262Y417476D01*
X281130Y417526D01*
X280997Y417573D01*
X280862Y417615D01*
X280726Y417654D01*
X280589Y417689D01*
X280452Y417720D01*
X280313Y417747D01*
X280174Y417771D01*
X280034Y417790D01*
X279894Y417806D01*
X279753Y417818D01*
X279612Y417826D01*
X279471Y417830D01*
X279329Y417830D01*
X279188Y417826D01*
X279047Y417818D01*
X278906Y417806D01*
X278766Y417790D01*
X278626Y417771D01*
X278487Y417747D01*
X278348Y417720D01*
X278211Y417689D01*
X278074Y417654D01*
X277938Y417615D01*
X277803Y417573D01*
X277670Y417526D01*
X277538Y417476D01*
X277407Y417423D01*
X277278Y417366D01*
X277151Y417305D01*
X277025Y417241D01*
X276901Y417173D01*
X276779Y417102D01*
X276659Y417027D01*
X276541Y416949D01*
X276425Y416868D01*
X276312Y416784D01*
X276201Y416696D01*
X276093Y416606D01*
X275987Y416513D01*
X275884Y416416D01*
X275783Y416317D01*
X275685Y416215D01*
X275590Y416111D01*
X275498Y416003D01*
X275409Y415894D01*
X275324Y415781D01*
X275241Y415667D01*
X275161Y415550D01*
X275085Y415431D01*
X275012Y415310D01*
X274943Y415187D01*
X274877Y415063D01*
X274814Y414936D01*
X274755Y414808D01*
X274700Y414678D01*
X274648Y414546D01*
X274600Y414414D01*
X274556Y414279D01*
X274515Y414144D01*
X274478Y414008D01*
X274445Y413871D01*
X274416Y413732D01*
X274391Y413593D01*
X274369Y413454D01*
X274351Y413314D01*
X274338Y413173D01*
X274328Y413032D01*
X274322Y412891D01*
X274320Y412750D01*
X295402Y412750D02*
X295402Y501650D01*
X259842Y518160D02*
X259842Y599440D01*
X295148Y603250D02*
X295270Y603248D01*
X295392Y603242D01*
X295514Y603232D01*
X295635Y603219D01*
X295756Y603201D01*
X295876Y603180D01*
X295996Y603154D01*
X296114Y603125D01*
X296232Y603093D01*
X296349Y603056D01*
X296464Y603016D01*
X296578Y602972D01*
X296690Y602924D01*
X296801Y602873D01*
X296910Y602818D01*
X297018Y602760D01*
X297123Y602698D01*
X297226Y602633D01*
X297328Y602565D01*
X297427Y602493D01*
X297523Y602419D01*
X297618Y602341D01*
X297709Y602260D01*
X297799Y602177D01*
X297885Y602091D01*
X297968Y602001D01*
X298049Y601910D01*
X298127Y601815D01*
X298201Y601719D01*
X298273Y601620D01*
X298341Y601518D01*
X298406Y601415D01*
X298468Y601310D01*
X298526Y601202D01*
X298581Y601093D01*
X298632Y600982D01*
X298680Y600870D01*
X298724Y600756D01*
X298764Y600641D01*
X298801Y600524D01*
X298833Y600406D01*
X298862Y600288D01*
X298888Y600168D01*
X298909Y600048D01*
X298927Y599927D01*
X298940Y599806D01*
X298950Y599684D01*
X298956Y599562D01*
X298958Y599440D01*
X259842Y518160D02*
X259844Y518038D01*
X259850Y517916D01*
X259860Y517794D01*
X259873Y517673D01*
X259891Y517552D01*
X259912Y517432D01*
X259938Y517312D01*
X259967Y517194D01*
X259999Y517076D01*
X260036Y516959D01*
X260076Y516844D01*
X260120Y516730D01*
X260168Y516618D01*
X260219Y516507D01*
X260274Y516398D01*
X260332Y516290D01*
X260394Y516185D01*
X260459Y516082D01*
X260527Y515980D01*
X260599Y515881D01*
X260673Y515785D01*
X260751Y515690D01*
X260832Y515599D01*
X260915Y515509D01*
X261001Y515423D01*
X261091Y515340D01*
X261182Y515259D01*
X261277Y515181D01*
X261373Y515107D01*
X261472Y515035D01*
X261574Y514967D01*
X261677Y514902D01*
X261782Y514840D01*
X261890Y514782D01*
X261999Y514727D01*
X262110Y514676D01*
X262222Y514628D01*
X262336Y514584D01*
X262451Y514544D01*
X262568Y514507D01*
X262686Y514475D01*
X262804Y514446D01*
X262924Y514420D01*
X263044Y514399D01*
X263165Y514381D01*
X263286Y514368D01*
X263408Y514358D01*
X263530Y514352D01*
X263652Y514350D01*
X259842Y599440D02*
X259844Y599562D01*
X259850Y599684D01*
X259860Y599806D01*
X259873Y599927D01*
X259891Y600048D01*
X259912Y600168D01*
X259938Y600288D01*
X259967Y600406D01*
X259999Y600524D01*
X260036Y600641D01*
X260076Y600756D01*
X260120Y600870D01*
X260168Y600982D01*
X260219Y601093D01*
X260274Y601202D01*
X260332Y601310D01*
X260394Y601415D01*
X260459Y601518D01*
X260527Y601620D01*
X260599Y601719D01*
X260673Y601815D01*
X260751Y601910D01*
X260832Y602001D01*
X260915Y602091D01*
X261001Y602177D01*
X261091Y602260D01*
X261182Y602341D01*
X261277Y602419D01*
X261373Y602493D01*
X261472Y602565D01*
X261574Y602633D01*
X261677Y602698D01*
X261782Y602760D01*
X261890Y602818D01*
X261999Y602873D01*
X262110Y602924D01*
X262222Y602972D01*
X262336Y603016D01*
X262451Y603056D01*
X262568Y603093D01*
X262686Y603125D01*
X262804Y603154D01*
X262924Y603180D01*
X263044Y603201D01*
X263165Y603219D01*
X263286Y603232D01*
X263408Y603242D01*
X263530Y603248D01*
X263652Y603250D01*
X298958Y518160D02*
X298956Y518038D01*
X298950Y517916D01*
X298940Y517794D01*
X298927Y517673D01*
X298909Y517552D01*
X298888Y517432D01*
X298862Y517312D01*
X298833Y517194D01*
X298801Y517076D01*
X298764Y516959D01*
X298724Y516844D01*
X298680Y516730D01*
X298632Y516618D01*
X298581Y516507D01*
X298526Y516398D01*
X298468Y516290D01*
X298406Y516185D01*
X298341Y516082D01*
X298273Y515980D01*
X298201Y515881D01*
X298127Y515785D01*
X298049Y515690D01*
X297968Y515599D01*
X297885Y515509D01*
X297799Y515423D01*
X297709Y515340D01*
X297618Y515259D01*
X297523Y515181D01*
X297427Y515107D01*
X297328Y515035D01*
X297226Y514967D01*
X297123Y514902D01*
X297018Y514840D01*
X296910Y514782D01*
X296801Y514727D01*
X296690Y514676D01*
X296578Y514628D01*
X296464Y514584D01*
X296349Y514544D01*
X296232Y514507D01*
X296114Y514475D01*
X295996Y514446D01*
X295876Y514420D01*
X295756Y514399D01*
X295635Y514381D01*
X295514Y514368D01*
X295392Y514358D01*
X295270Y514352D01*
X295148Y514350D01*
X298958Y518160D02*
X298958Y599440D01*
X295148Y603250D02*
X263652Y603250D01*
X263652Y514350D02*
X274320Y514350D01*
X284480Y514350D01*
X295148Y514350D01*
X284480Y514350D02*
X284478Y514491D01*
X284472Y514632D01*
X284462Y514773D01*
X284449Y514914D01*
X284431Y515054D01*
X284409Y515193D01*
X284384Y515332D01*
X284355Y515471D01*
X284322Y515608D01*
X284285Y515744D01*
X284244Y515879D01*
X284200Y516014D01*
X284152Y516146D01*
X284100Y516278D01*
X284045Y516408D01*
X283986Y516536D01*
X283923Y516663D01*
X283857Y516787D01*
X283788Y516910D01*
X283715Y517031D01*
X283639Y517150D01*
X283559Y517267D01*
X283476Y517381D01*
X283391Y517494D01*
X283302Y517603D01*
X283210Y517711D01*
X283115Y517815D01*
X283017Y517917D01*
X282916Y518016D01*
X282813Y518113D01*
X282707Y518206D01*
X282599Y518296D01*
X282488Y518384D01*
X282375Y518468D01*
X282259Y518549D01*
X282141Y518627D01*
X282021Y518702D01*
X281899Y518773D01*
X281775Y518841D01*
X281649Y518905D01*
X281522Y518966D01*
X281393Y519023D01*
X281262Y519076D01*
X281130Y519126D01*
X280997Y519173D01*
X280862Y519215D01*
X280726Y519254D01*
X280589Y519289D01*
X280452Y519320D01*
X280313Y519347D01*
X280174Y519371D01*
X280034Y519390D01*
X279894Y519406D01*
X279753Y519418D01*
X279612Y519426D01*
X279471Y519430D01*
X279329Y519430D01*
X279188Y519426D01*
X279047Y519418D01*
X278906Y519406D01*
X278766Y519390D01*
X278626Y519371D01*
X278487Y519347D01*
X278348Y519320D01*
X278211Y519289D01*
X278074Y519254D01*
X277938Y519215D01*
X277803Y519173D01*
X277670Y519126D01*
X277538Y519076D01*
X277407Y519023D01*
X277278Y518966D01*
X277151Y518905D01*
X277025Y518841D01*
X276901Y518773D01*
X276779Y518702D01*
X276659Y518627D01*
X276541Y518549D01*
X276425Y518468D01*
X276312Y518384D01*
X276201Y518296D01*
X276093Y518206D01*
X275987Y518113D01*
X275884Y518016D01*
X275783Y517917D01*
X275685Y517815D01*
X275590Y517711D01*
X275498Y517603D01*
X275409Y517494D01*
X275324Y517381D01*
X275241Y517267D01*
X275161Y517150D01*
X275085Y517031D01*
X275012Y516910D01*
X274943Y516787D01*
X274877Y516663D01*
X274814Y516536D01*
X274755Y516408D01*
X274700Y516278D01*
X274648Y516146D01*
X274600Y516014D01*
X274556Y515879D01*
X274515Y515744D01*
X274478Y515608D01*
X274445Y515471D01*
X274416Y515332D01*
X274391Y515193D01*
X274369Y515054D01*
X274351Y514914D01*
X274338Y514773D01*
X274328Y514632D01*
X274322Y514491D01*
X274320Y514350D01*
X295402Y514350D02*
X295402Y603250D01*
X228600Y647700D02*
X215900Y647700D01*
X228600Y647700D02*
X234950Y641350D01*
X234950Y628650D01*
X228600Y622300D01*
X234950Y641350D02*
X241300Y647700D01*
X254000Y647700D01*
X260350Y641350D01*
X260350Y628650D01*
X254000Y622300D01*
X241300Y622300D01*
X234950Y628650D01*
X209550Y628650D02*
X209550Y641350D01*
X215900Y647700D01*
X209550Y628650D02*
X215900Y622300D01*
X228600Y622300D01*
X260350Y641350D02*
X266700Y647700D01*
X279400Y647700D01*
X285750Y641350D01*
X285750Y628650D01*
X279400Y622300D01*
X266700Y622300D01*
X260350Y628650D01*
D13*
X228123Y619252D02*
X231171Y610108D01*
X234219Y619252D01*
X238100Y619252D02*
X238100Y610108D01*
X242164Y610108D01*
X246025Y610108D02*
X250089Y610108D01*
X246025Y610108D02*
X246025Y619252D01*
X250089Y619252D01*
X249073Y615188D02*
X246025Y615188D01*
X253116Y619252D02*
X256164Y610108D01*
X259212Y619252D01*
X263093Y610108D02*
X267157Y610108D01*
X263093Y610108D02*
X263093Y619252D01*
X267157Y619252D01*
X266141Y615188D02*
X263093Y615188D01*
X271018Y619252D02*
X271018Y610108D01*
X275082Y610108D01*
M02*
